<?xml version="1.0" encoding="UTF-8" standalone="no"?>
<svg
        xmlns:dc="http://purl.org/dc/elements/1.1/"
        xmlns:cc="http://creativecommons.org/ns#"
        xmlns:rdf="http://www.w3.org/1999/02/22-rdf-syntax-ns#"
        xmlns="http://www.w3.org/2000/svg"
        xmlns:xlink="http://www.w3.org/1999/xlink"
        xmlns:sodipodi="http://sodipodi.sourceforge.net/DTD/sodipodi-0.dtd"
        xmlns:inkscape="http://www.inkscape.org/namespaces/inkscape"
        viewBox="0 0 32 32"
        id="vector"
        width="32px"
        height="32px"
        version="1.1"
        sodipodi:docname="frame23.svg"
        inkscape:version="0.92.4 (5da689c313, 2019-01-14)"
        inkscape:export-filename="D:\IdeaProjects\donim\icons\30fps\frame23.png"
        inkscape:export-xdpi="48"
        inkscape:export-ydpi="48">
  <metadata
     id="metadata10">
    <rdf:RDF>
      <cc:Work
         rdf:about="">
        <dc:format>image/svg+xml</dc:format>
        <dc:type
           rdf:resource="http://purl.org/dc/dcmitype/StillImage" />
      </cc:Work>
    </rdf:RDF>
  </metadata>
  <defs
     id="defs8">
    <linearGradient
       inkscape:collect="always"
       id="linearGradient3957">
      <stop
         style="stop-color:#003878;stop-opacity:1"
         offset="0"
         id="stop3953" />
      <stop
         style="stop-color:#1985ff;stop-opacity:1"
         offset="1"
         id="stop3955" />
    </linearGradient>
    <linearGradient
       inkscape:collect="always"
       xlink:href="#linearGradient3957"
       id="linearGradient3959"
       x1="3.4063649"
       y1="18.323868"
       x2="24.187315"
       y2="11.313011"
       gradientUnits="userSpaceOnUse" />
    <linearGradient
       inkscape:collect="always"
       xlink:href="#linearGradient3957"
       id="linearGradient3967"
       x1="3.4063649"
       y1="18.323868"
       x2="24.187315"
       y2="11.313011"
       gradientUnits="userSpaceOnUse" />
    <linearGradient
       inkscape:collect="always"
       xlink:href="#linearGradient3957"
       id="linearGradient3975"
       x1="28.593636"
       y1="13.676133"
       x2="7.812685"
       y2="20.686989"
       gradientUnits="userSpaceOnUse" />
    <linearGradient
       inkscape:collect="always"
       xlink:href="#linearGradient3957"
       id="linearGradient3983"
       x1="28.593636"
       y1="13.676133"
       x2="7.812685"
       y2="20.686989"
       gradientUnits="userSpaceOnUse" />
  </defs>
  <sodipodi:namedview
     pagecolor="#ffffff"
     bordercolor="#666666"
     borderopacity="1"
     objecttolerance="10"
     gridtolerance="10"
     guidetolerance="10"
     inkscape:pageopacity="0"
     inkscape:pageshadow="2"
     inkscape:window-width="640"
     inkscape:window-height="480"
     id="namedview6"
     showgrid="false"
     inkscape:zoom="10.40625"
     inkscape:cx="-13.981982"
     inkscape:cy="16"
     inkscape:current-layer="vector" />
  <path
     style="fill:url(#linearGradient3983);stroke:url(#linearGradient3975);stroke-width:2;stroke-linecap:round;stroke-linejoin:round;fill-opacity:1"
     inkscape:connector-curvature="0"
     d="m 14.582127,18.643792 c 6.168847,3.308371 12.057025,0.792549 14.011508,-4.967659 C 30.981487,24.034616 19.549786,32.6553 9.8558823,27.456431 M 7.8126848,20.686989 c 0.6267,-1.168556 1.6923044,-2.04045 2.9613702,-2.424227 1.269475,-0.382422 2.639516,-0.24567 3.808072,0.38103 1.168556,0.6267 2.04045,1.692304 2.424227,2.96137 0.382422,1.269475 0.24567,2.639516 -0.38103,3.808072 -0.6267,1.168556 -1.692304,2.04045 -2.96137,2.424227 -1.269475,0.382422 -2.639516,0.24567 -3.8080717,-0.38103 -1.168556,-0.6267 -2.0404507,-1.692304 -2.4242272,-2.96137 -0.3824225,-1.269475 -0.2456704,-2.639516 0.3810297,-3.808072 z"
     id="path_1" />
  <path
     style="fill:url(#linearGradient3959);stroke:url(#linearGradient3967);stroke-width:2;stroke-linecap:round;stroke-linejoin:round;fill-opacity:1"
     inkscape:connector-curvature="0"
     d="M 17.417873,13.356208 C 11.249026,10.047837 5.3608477,12.563659 3.406365,18.323867 1.018513,7.9653845 12.450214,-0.65530012 22.144118,4.5435687 m 2.043197,6.7694423 c -0.6267,1.168556 -1.692304,2.04045 -2.96137,2.424227 -1.269475,0.382422 -2.639516,0.24567 -3.808072,-0.38103 -1.168556,-0.6267 -2.04045,-1.692304 -2.424227,-2.96137 -0.382422,-1.2694749 -0.24567,-2.6395158 0.38103,-3.8080718 0.6267,-1.1685559 1.692304,-2.0404506 2.96137,-2.4242271 1.269475,-0.3824226 2.639516,-0.2456704 3.808072,0.3810296 1.168556,0.6267 2.04045,1.6923044 2.424227,2.9613705 0.382422,1.2694747 0.24567,2.6395158 -0.38103,3.8080718 z"
     id="path_2" />
</svg>
