<?xml version="1.0" encoding="UTF-8" standalone="no"?>
<svg
        xmlns:dc="http://purl.org/dc/elements/1.1/"
        xmlns:cc="http://creativecommons.org/ns#"
        xmlns:rdf="http://www.w3.org/1999/02/22-rdf-syntax-ns#"
        xmlns="http://www.w3.org/2000/svg"
        xmlns:xlink="http://www.w3.org/1999/xlink"
        xmlns:sodipodi="http://sodipodi.sourceforge.net/DTD/sodipodi-0.dtd"
        xmlns:inkscape="http://www.inkscape.org/namespaces/inkscape"
        viewBox="0 0 32 32"
        id="vector"
        width="32px"
        height="32px"
        version="1.1"
        sodipodi:docname="frame09.svg"
        inkscape:version="0.92.4 (5da689c313, 2019-01-14)"
        inkscape:export-filename="D:\IdeaProjects\donim\icons\30fps\frame09.png"
        inkscape:export-xdpi="48"
        inkscape:export-ydpi="48">
  <metadata
     id="metadata10">
    <rdf:RDF>
      <cc:Work
         rdf:about="">
        <dc:format>image/svg+xml</dc:format>
        <dc:type
           rdf:resource="http://purl.org/dc/dcmitype/StillImage" />
      </cc:Work>
    </rdf:RDF>
  </metadata>
  <defs
     id="defs8">
    <linearGradient
       inkscape:collect="always"
       id="linearGradient3957">
      <stop
         style="stop-color:#003878;stop-opacity:1"
         offset="0"
         id="stop3953" />
      <stop
         style="stop-color:#1985ff;stop-opacity:1"
         offset="1"
         id="stop3955" />
    </linearGradient>
    <linearGradient
       inkscape:collect="always"
       xlink:href="#linearGradient3957"
       id="linearGradient3959"
       x1="3.6249228"
       y1="19.295067"
       x2="23.798513"
       y2="10.691219"
       gradientUnits="userSpaceOnUse" />
    <linearGradient
       inkscape:collect="always"
       xlink:href="#linearGradient3957"
       id="linearGradient3967"
       x1="3.6249228"
       y1="19.295067"
       x2="23.798513"
       y2="10.691219"
       gradientUnits="userSpaceOnUse" />
    <linearGradient
       inkscape:collect="always"
       xlink:href="#linearGradient3957"
       id="linearGradient3975"
       x1="28.375076"
       y1="12.704934"
       x2="8.2014866"
       y2="21.308784"
       gradientUnits="userSpaceOnUse" />
    <linearGradient
       inkscape:collect="always"
       xlink:href="#linearGradient3957"
       id="linearGradient3983"
       x1="28.375076"
       y1="12.704934"
       x2="8.2014866"
       y2="21.308784"
       gradientUnits="userSpaceOnUse" />
  </defs>
  <sodipodi:namedview
     pagecolor="#ffffff"
     bordercolor="#666666"
     borderopacity="1"
     objecttolerance="10"
     gridtolerance="10"
     guidetolerance="10"
     inkscape:pageopacity="0"
     inkscape:pageshadow="2"
     inkscape:window-width="640"
     inkscape:window-height="480"
     id="namedview6"
     showgrid="false"
     inkscape:zoom="17.4375"
     inkscape:cx="6.6810036"
     inkscape:cy="16"
     inkscape:current-layer="vector" />
  <path
     style="fill:url(#linearGradient3959);stroke:url(#linearGradient3967);stroke-width:2;stroke-linecap:round;stroke-linejoin:round;fill-opacity:1"
     inkscape:connector-curvature="0"
     d="M 17.208231,13.254062 C 10.801041,10.434856 5.1260717,13.400446 3.6249227,19.295066 0.43968203,9.1533581 11.167226,-0.32924671 21.235667,4.1009333 m 2.562846,6.5902827 c -0.534038,1.213704 -1.528698,2.165736 -2.764119,2.646929 -1.235934,0.479875 -2.612458,0.449955 -3.826163,-0.08408 -1.213705,-0.534039 -2.165737,-1.528698 -2.64693,-2.76412 -0.479874,-1.2359342 -0.449954,-2.612458 0.08408,-3.8261628 0.534038,-1.2137048 1.528698,-2.1657368 2.764119,-2.6469294 1.235935,-0.4798746 2.612459,-0.4499545 3.826163,0.084084 1.213705,0.5340381 2.165737,1.5286978 2.64693,2.7641195 0.479874,1.2359342 0.449954,2.612458 -0.08408,3.8261632 z"
     id="path_1" />
  <path
     style="fill:url(#linearGradient3983);stroke:url(#linearGradient3975);stroke-width:2;stroke-linecap:round;stroke-linejoin:round;fill-opacity:1"
     inkscape:connector-curvature="0"
     d="m 14.791769,18.745938 c 6.40719,2.819206 12.082159,-0.146384 13.583308,-6.041004 3.185241,10.141708 -7.542303,19.624313 -17.610744,15.194133 M 8.2014868,21.308784 c 0.534038,-1.213704 1.5286978,-2.165736 2.7641192,-2.646929 1.235934,-0.479875 2.612458,-0.449955 3.826163,0.08408 1.213705,0.534039 2.165737,1.528698 2.64693,2.76412 0.479874,1.235934 0.449954,2.612458 -0.08408,3.826163 -0.534038,1.213705 -1.528698,2.165737 -2.764119,2.646929 -1.235935,0.479875 -2.612459,0.449955 -3.826163,-0.08408 C 9.5506279,27.365029 8.5985959,26.370369 8.1174032,25.134947 7.6375287,23.899013 7.6674487,22.522489 8.2014868,21.308784 Z"
     id="path_2" />
</svg>
