<?xml version="1.0" encoding="UTF-8" standalone="no"?>
<svg
        xmlns:osb="http://www.openswatchbook.org/uri/2009/osb"
        xmlns:dc="http://purl.org/dc/elements/1.1/"
        xmlns:cc="http://creativecommons.org/ns#"
        xmlns:rdf="http://www.w3.org/1999/02/22-rdf-syntax-ns#"
        xmlns="http://www.w3.org/2000/svg"
        xmlns:xlink="http://www.w3.org/1999/xlink"
        xmlns:sodipodi="http://sodipodi.sourceforge.net/DTD/sodipodi-0.dtd"
        xmlns:inkscape="http://www.inkscape.org/namespaces/inkscape"
        viewBox="0 0 32 32"
        id="vector"
        width="32px"
        height="32px"
        version="1.1"
        sodipodi:docname="frame01.svg"
        inkscape:version="0.92.4 (5da689c313, 2019-01-14)">
  <metadata
     id="metadata10">
    <rdf:RDF>
      <cc:Work
         rdf:about="">
        <dc:format>image/svg+xml</dc:format>
        <dc:type
           rdf:resource="http://purl.org/dc/dcmitype/StillImage" />
      </cc:Work>
    </rdf:RDF>
  </metadata>
  <defs
     id="defs8">
    <linearGradient
       inkscape:collect="always"
       id="linearGradient3973">
      <stop
         style="stop-color:#003878;stop-opacity:1"
         offset="0"
         id="stop3969" />
      <stop
         style="stop-color:#1985ff;stop-opacity:1"
         offset="1"
         id="stop3971" />
    </linearGradient>
    <linearGradient
       inkscape:collect="always"
       id="linearGradient3957"
       osb:paint="gradient">
      <stop
         style="stop-color:#000000;stop-opacity:1;"
         offset="0"
         id="stop3953" />
      <stop
         style="stop-color:#000000;stop-opacity:0;"
         offset="1"
         id="stop3955" />
    </linearGradient>
    <linearGradient
       inkscape:collect="always"
       xlink:href="#linearGradient3973"
       id="linearGradient3975"
       x1="5.9700069"
       y1="23.962364"
       x2="21.030027"
       y2="8.0188465"
       gradientUnits="userSpaceOnUse" />
    <linearGradient
       inkscape:collect="always"
       xlink:href="#linearGradient3973"
       id="linearGradient3983"
       x1="5.9700069"
       y1="23.962364"
       x2="21.030027"
       y2="8.0188465"
       gradientUnits="userSpaceOnUse" />
    <linearGradient
       inkscape:collect="always"
       xlink:href="#linearGradient3973"
       id="linearGradient3991"
       x1="26.029993"
       y1="8.0376358"
       x2="10.969972"
       y2="23.981153"
       gradientUnits="userSpaceOnUse" />
    <linearGradient
       inkscape:collect="always"
       xlink:href="#linearGradient3973"
       id="linearGradient3999"
       x1="26.029993"
       y1="8.0376358"
       x2="10.969972"
       y2="23.981153"
       gradientUnits="userSpaceOnUse" />
  </defs>
  <sodipodi:namedview
     pagecolor="#ffffff"
     bordercolor="#666666"
     borderopacity="1"
     objecttolerance="10"
     gridtolerance="10"
     guidetolerance="10"
     inkscape:pageopacity="0"
     inkscape:pageshadow="2"
     inkscape:window-width="640"
     inkscape:window-height="480"
     id="namedview6"
     showgrid="false"
     inkscape:zoom="10.40625"
     inkscape:cx="0.38438438"
     inkscape:cy="16"
     inkscape:current-layer="vector" />
  <path
     style="fill:url(#linearGradient3975);stroke:url(#linearGradient3983);stroke-width:2;stroke-linecap:round;stroke-linejoin:round;fill-opacity:1"
     inkscape:connector-curvature="0"
     d="M 16.011274,13.000021 C 9.0113233,12.973715 4.9925617,17.958648 5.9700068,23.962364 -0.99987996,15.936115 5.0489313,2.9587541 16.048854,3.0000918 m 4.981174,5.0187545 c -0.005,1.3259907 -0.536759,2.5960017 -1.477277,3.5304737 -0.941515,0.933468 -2.215486,1.455684 -3.541477,1.450701 -1.325991,-0.005 -2.596001,-0.536759 -3.530473,-1.477278 -0.933469,-0.941514 -1.455685,-2.2154857 -1.450702,-3.5414764 0.005,-1.3259906 0.53676,-2.5960012 1.477278,-3.5304733 0.941515,-0.9334684 2.215486,-1.4556846 3.541477,-1.4507015 1.32599,0.00498 2.596001,0.5367595 3.530473,1.4772778 0.933468,0.9415146 1.455685,2.2154861 1.450701,3.5414767 z"
     id="path_1" />
  <path
     style="fill:url(#linearGradient3999);stroke:url(#linearGradient3991);stroke-width:2;stroke-linecap:round;stroke-linejoin:round;fill-opacity:1"
     inkscape:connector-curvature="0"
     d="M 15.988726,18.999979 C 22.988677,19.026285 27.007438,14.041352 26.029993,8.0376362 32.99988,16.063885 26.951069,29.041246 15.951146,28.999908 m -4.981174,-5.018754 c 0.005,-1.325991 0.536759,-2.596002 1.477277,-3.530474 0.941515,-0.933468 2.215486,-1.455684 3.541477,-1.450701 1.325991,0.005 2.596001,0.536759 3.530473,1.477278 0.933469,0.941514 1.455685,2.215486 1.450702,3.541476 -0.005,1.325991 -0.53676,2.596002 -1.477278,3.530474 -0.941515,0.933468 -2.215486,1.455684 -3.541477,1.450701 -1.32599,-0.005 -2.596001,-0.536759 -3.530473,-1.477278 -0.933468,-0.941514 -1.455685,-2.215486 -1.450701,-3.541476 z"
     id="path_2" />
</svg>
