<?xml version="1.0" encoding="UTF-8" standalone="no"?>
<svg
        xmlns:dc="http://purl.org/dc/elements/1.1/"
        xmlns:cc="http://creativecommons.org/ns#"
        xmlns:rdf="http://www.w3.org/1999/02/22-rdf-syntax-ns#"
        xmlns="http://www.w3.org/2000/svg"
        xmlns:xlink="http://www.w3.org/1999/xlink"
        xmlns:sodipodi="http://sodipodi.sourceforge.net/DTD/sodipodi-0.dtd"
        xmlns:inkscape="http://www.inkscape.org/namespaces/inkscape"
        viewBox="0 0 32 32"
        id="vector"
        width="32px"
        height="32px"
        version="1.1"
        sodipodi:docname="frame52.svg"
        inkscape:version="0.92.4 (5da689c313, 2019-01-14)"
        inkscape:export-filename="D:\IdeaProjects\donim\icons\30fps\frame52.png"
        inkscape:export-xdpi="48"
        inkscape:export-ydpi="48">
  <metadata
     id="metadata10">
    <rdf:RDF>
      <cc:Work
         rdf:about="">
        <dc:format>image/svg+xml</dc:format>
        <dc:type
           rdf:resource="http://purl.org/dc/dcmitype/StillImage" />
      </cc:Work>
    </rdf:RDF>
  </metadata>
  <defs
     id="defs8">
    <linearGradient
       inkscape:collect="always"
       id="linearGradient3957">
      <stop
         style="stop-color:#003878;stop-opacity:1"
         offset="0"
         id="stop3953" />
      <stop
         style="stop-color:#1985ff;stop-opacity:1"
         offset="1"
         id="stop3955" />
    </linearGradient>
    <linearGradient
       inkscape:collect="always"
       xlink:href="#linearGradient3957"
       id="linearGradient3959"
       x1="6.540103"
       y1="24.631939"
       x2="20.47043"
       y2="7.6924586"
       gradientUnits="userSpaceOnUse" />
    <linearGradient
       inkscape:collect="always"
       xlink:href="#linearGradient3957"
       id="linearGradient3967"
       x1="6.540103"
       y1="24.631939"
       x2="20.47043"
       y2="7.6924586"
       gradientUnits="userSpaceOnUse" />
    <linearGradient
       inkscape:collect="always"
       xlink:href="#linearGradient3957"
       id="linearGradient3975"
       x1="25.459896"
       y1="7.368062"
       x2="11.529569"
       y2="24.307541"
       gradientUnits="userSpaceOnUse" />
    <linearGradient
       inkscape:collect="always"
       xlink:href="#linearGradient3957"
       id="linearGradient3983"
       x1="25.459896"
       y1="7.368062"
       x2="11.529569"
       y2="24.307541"
       gradientUnits="userSpaceOnUse" />
  </defs>
  <sodipodi:namedview
     pagecolor="#ffffff"
     bordercolor="#666666"
     borderopacity="1"
     objecttolerance="10"
     gridtolerance="10"
     guidetolerance="10"
     inkscape:pageopacity="0"
     inkscape:pageshadow="2"
     inkscape:window-width="640"
     inkscape:window-height="480"
     id="namedview6"
     showgrid="false"
     inkscape:zoom="10.40625"
     inkscape:cx="-13.981982"
     inkscape:cy="16"
     inkscape:current-layer="vector" />
  <path
     style="fill:url(#linearGradient3959);stroke:url(#linearGradient3967);stroke-width:2;stroke-linecap:round;stroke-linejoin:round;fill-opacity:1"
     inkscape:connector-curvature="0"
     d="M 15.805362,13.006321 C 8.8201103,13.460476 5.1529343,18.709458 6.5401031,24.631938 -0.96418303,17.102948 4.1797449,3.7410616 15.156569,3.0273894 m 5.313862,4.6650692 c 0.08603,1.3232063 -0.357333,2.6267174 -1.231502,3.6235334 -0.875232,0.995883 -2.110361,1.604299 -3.433567,1.690329 -1.323206,0.08603 -2.626718,-0.357334 -3.623533,-1.231503 C 11.185946,10.899586 10.57753,9.6644578 10.4915,8.3412515 10.40547,7.0180452 10.848833,5.7145338 11.723002,4.7177181 c 0.875232,-0.9958826 2.110361,-1.6042987 3.433567,-1.6903287 1.323207,-0.08603 2.626718,0.3573333 3.623534,1.2315024 0.995882,0.8752319 1.604298,2.1103605 1.690328,3.4335668 z"
     id="path_1" />
  <path
     style="fill:url(#linearGradient3983);stroke:url(#linearGradient3975);stroke-width:2;stroke-linecap:round;stroke-linejoin:round;fill-opacity:1"
     inkscape:connector-curvature="0"
     d="M 16.194638,18.993679 C 23.17989,18.539524 26.847066,13.290542 25.459897,7.3680622 32.964183,14.897052 27.820255,28.258938 16.843431,28.972611 m -5.313862,-4.66507 c -0.08603,-1.323206 0.357333,-2.626717 1.231502,-3.623533 0.875232,-0.995883 2.110361,-1.604299 3.433567,-1.690329 1.323206,-0.08603 2.626718,0.357334 3.623533,1.231503 0.995883,0.875232 1.604299,2.11036 1.690329,3.433567 0.08603,1.323206 -0.357333,2.626717 -1.231502,3.623533 -0.875232,0.995882 -2.110361,1.604299 -3.433567,1.690329 -1.323207,0.08603 -2.626718,-0.357334 -3.623534,-1.231503 -0.995882,-0.875232 -1.604298,-2.11036 -1.690328,-3.433567 z"
     id="path_2" />
</svg>
