<?xml version="1.0" encoding="UTF-8" standalone="no"?>
<svg
        xmlns:dc="http://purl.org/dc/elements/1.1/"
        xmlns:cc="http://creativecommons.org/ns#"
        xmlns:rdf="http://www.w3.org/1999/02/22-rdf-syntax-ns#"
        xmlns="http://www.w3.org/2000/svg"
        xmlns:xlink="http://www.w3.org/1999/xlink"
        xmlns:sodipodi="http://sodipodi.sourceforge.net/DTD/sodipodi-0.dtd"
        xmlns:inkscape="http://www.inkscape.org/namespaces/inkscape"
        viewBox="0 0 32 32"
        id="vector"
        width="32px"
        height="32px"
        version="1.1"
        sodipodi:docname="frame25.svg"
        inkscape:version="0.92.4 (5da689c313, 2019-01-14)"
        inkscape:export-filename="D:\IdeaProjects\donim\icons\30fps\frame25.png"
        inkscape:export-xdpi="48"
        inkscape:export-ydpi="48">
  <metadata
     id="metadata10">
    <rdf:RDF>
      <cc:Work
         rdf:about="">
        <dc:format>image/svg+xml</dc:format>
        <dc:type
           rdf:resource="http://purl.org/dc/dcmitype/StillImage" />
      </cc:Work>
    </rdf:RDF>
  </metadata>
  <defs
     id="defs8">
    <linearGradient
       inkscape:collect="always"
       id="linearGradient3957">
      <stop
         style="stop-color:#003878;stop-opacity:1"
         offset="0"
         id="stop3953" />
      <stop
         style="stop-color:#1985ff;stop-opacity:1"
         offset="1"
         id="stop3955" />
    </linearGradient>
    <linearGradient
       inkscape:collect="always"
       xlink:href="#linearGradient3957"
       id="linearGradient3959"
       x1="3.5735459"
       y1="12.904319"
       x2="25.392944"
       y2="15.121033"
       gradientUnits="userSpaceOnUse" />
    <linearGradient
       inkscape:collect="always"
       xlink:href="#linearGradient3957"
       id="linearGradient3967"
       x1="3.5735459"
       y1="12.904319"
       x2="25.392944"
       y2="15.121033"
       gradientUnits="userSpaceOnUse" />
    <linearGradient
       inkscape:collect="always"
       xlink:href="#linearGradient3957"
       id="linearGradient3975"
       x1="28.426455"
       y1="19.09568"
       x2="6.6070547"
       y2="16.878967"
       gradientUnits="userSpaceOnUse" />
    <linearGradient
       inkscape:collect="always"
       xlink:href="#linearGradient3957"
       id="linearGradient3983"
       x1="28.426455"
       y1="19.09568"
       x2="6.6070547"
       y2="16.878967"
       gradientUnits="userSpaceOnUse" />
  </defs>
  <sodipodi:namedview
     pagecolor="#ffffff"
     bordercolor="#666666"
     borderopacity="1"
     objecttolerance="10"
     gridtolerance="10"
     guidetolerance="10"
     inkscape:pageopacity="0"
     inkscape:pageshadow="2"
     inkscape:window-width="640"
     inkscape:window-height="480"
     id="namedview6"
     showgrid="false"
     inkscape:zoom="10.40625"
     inkscape:cx="-13.981982"
     inkscape:cy="16"
     inkscape:current-layer="vector" />
  <path
     style="fill:url(#linearGradient3983);stroke:url(#linearGradient3975);stroke-width:2;stroke-linecap:round;stroke-linejoin:round;fill-opacity:1"
     inkscape:connector-curvature="0"
     d="m 13.615211,17.820105 c 4.246913,5.564507 10.648368,5.710716 14.811243,1.275576 C 26.31393,29.513802 12.339636,32.631348 5.6659161,23.887123 m 0.9411388,-7.008156 c 1.0540765,-0.804487 2.3849587,-1.157284 3.6990821,-0.981521 1.313935,0.177164 2.504588,0.868583 3.309074,1.922659 0.804487,1.054077 1.157284,2.384959 0.981521,3.699083 -0.177164,1.313935 -0.868583,2.504587 -1.922659,3.309074 -1.054077,0.804486 -2.384959,1.157283 -3.6990826,0.98152 C 7.6610552,25.632618 6.4704027,24.9412 5.6659161,23.887123 4.8614296,22.833047 4.5086328,21.502164 4.6843955,20.188041 4.8615598,18.874106 5.5529783,17.683453 6.6070549,16.878967 Z"
     id="path_1" />
  <path
     style="fill:url(#linearGradient3959);stroke:url(#linearGradient3967);stroke-width:2;stroke-linecap:round;stroke-linejoin:round;fill-opacity:1"
     inkscape:connector-curvature="0"
     d="M 18.384789,14.179895 C 14.137876,8.615388 7.7364214,8.4691787 3.573546,12.904319 5.6860698,2.486198 19.660364,-0.63134789 26.334084,8.1128769 m -0.941139,7.0081561 c -1.054076,0.804487 -2.384959,1.157284 -3.699082,0.981521 -1.313935,-0.177164 -2.504588,-0.868583 -3.309074,-1.922659 -0.804487,-1.054077 -1.157284,-2.384959 -0.981521,-3.699083 0.177164,-1.3139348 0.868583,-2.5045873 1.922659,-3.3090738 1.054077,-0.8044866 2.384959,-1.1572834 3.699083,-0.9815207 1.313935,0.1771643 2.504587,0.8685829 3.309074,1.9226594 0.804486,1.0540766 1.157283,2.3849591 0.981521,3.6990821 -0.177165,1.313935 -0.868583,2.504588 -1.92266,3.309074 z"
     id="path_2" />
</svg>
