<?xml version="1.0" encoding="UTF-8" standalone="no"?>
<svg
        xmlns:dc="http://purl.org/dc/elements/1.1/"
        xmlns:cc="http://creativecommons.org/ns#"
        xmlns:rdf="http://www.w3.org/1999/02/22-rdf-syntax-ns#"
        xmlns="http://www.w3.org/2000/svg"
        xmlns:xlink="http://www.w3.org/1999/xlink"
        xmlns:sodipodi="http://sodipodi.sourceforge.net/DTD/sodipodi-0.dtd"
        xmlns:inkscape="http://www.inkscape.org/namespaces/inkscape"
        viewBox="0 0 32 32"
        id="vector"
        width="32px"
        height="32px"
        version="1.1"
        sodipodi:docname="frame19.svg"
        inkscape:version="0.92.4 (5da689c313, 2019-01-14)"
        inkscape:export-filename="D:\IdeaProjects\donim\icons\30fps\frame19.png"
        inkscape:export-xdpi="48"
        inkscape:export-ydpi="48">
  <metadata
     id="metadata10">
    <rdf:RDF>
      <cc:Work
         rdf:about="">
        <dc:format>image/svg+xml</dc:format>
        <dc:type
           rdf:resource="http://purl.org/dc/dcmitype/StillImage" />
      </cc:Work>
    </rdf:RDF>
  </metadata>
  <defs
     id="defs8">
    <linearGradient
       inkscape:collect="always"
       id="linearGradient3957">
      <stop
         style="stop-color:#003878;stop-opacity:1"
         offset="0"
         id="stop3953" />
      <stop
         style="stop-color:#1985ff;stop-opacity:1"
         offset="1"
         id="stop3955" />
    </linearGradient>
    <linearGradient
       inkscape:collect="always"
       xlink:href="#linearGradient3957"
       id="linearGradient3959"
       x1="20.364689"
       y1="3.9605029"
       x2="15.902472"
       y2="25.433477"
       gradientUnits="userSpaceOnUse" />
    <linearGradient
       inkscape:collect="always"
       xlink:href="#linearGradient3957"
       id="linearGradient3967"
       x1="20.364689"
       y1="3.9605029"
       x2="15.902472"
       y2="25.433477"
       gradientUnits="userSpaceOnUse" />
    <linearGradient
       inkscape:collect="always"
       xlink:href="#linearGradient3957"
       id="linearGradient3975"
       x1="11.635311"
       y1="28.039497"
       x2="16.097528"
       y2="6.5665231"
       gradientUnits="userSpaceOnUse" />
    <linearGradient
       inkscape:collect="always"
       xlink:href="#linearGradient3957"
       id="linearGradient3983"
       x1="11.635311"
       y1="28.039497"
       x2="16.097528"
       y2="6.5665231"
       gradientUnits="userSpaceOnUse" />
  </defs>
  <sodipodi:namedview
     pagecolor="#ffffff"
     bordercolor="#666666"
     borderopacity="1"
     objecttolerance="10"
     gridtolerance="10"
     guidetolerance="10"
     inkscape:pageopacity="0"
     inkscape:pageshadow="2"
     inkscape:window-width="640"
     inkscape:window-height="480"
     id="namedview6"
     showgrid="false"
     inkscape:zoom="10.40625"
     inkscape:cx="-15.231231"
     inkscape:cy="16"
     inkscape:current-layer="vector" />
  <path
     style="fill:url(#linearGradient3959);stroke:url(#linearGradient3967);stroke-width:2;stroke-linecap:round;stroke-linejoin:round;fill-opacity:1"
     inkscape:connector-curvature="0"
     d="M 17.563612,18.560296 C 23.537637,14.911868 24.345345,8.5598915 20.364689,3.9605029 30.508346,7.1395315 32.163406,21.361373 22.775652,27.094617 m -6.87318,-1.66114 c -0.691117,-1.131651 -0.90433,-2.491891 -0.593553,-3.780779 0.312151,-1.288555 1.123042,-2.401285 2.254693,-3.092402 1.131651,-0.691116 2.491891,-0.904329 3.780779,-0.593553 1.288555,0.312152 2.401285,1.123043 3.092402,2.254694 0.691116,1.131651 0.904329,2.491891 0.593553,3.780778 -0.312152,1.288556 -1.123043,2.401286 -2.254694,3.092402 -1.131651,0.691117 -2.491891,0.90433 -3.780778,0.593553 -1.288556,-0.312151 -2.401286,-1.123042 -3.092402,-2.254693 z"
     id="path_1" />
  <path
     style="fill:url(#linearGradient3975);stroke:url(#linearGradient3983);stroke-width:2;stroke-linecap:round;stroke-linejoin:round;fill-opacity:1"
     inkscape:connector-curvature="0"
     d="M 14.436388,13.439704 C 8.4623632,17.088132 7.6546549,23.440109 11.635311,28.039497 1.4916542,24.860468 -0.16340554,10.638627 9.2243476,4.9053826 M 16.097528,6.566523 c 0.691117,1.131651 0.90433,2.4918911 0.593553,3.780779 -0.312151,1.288555 -1.123042,2.401285 -2.254693,3.092402 -1.131651,0.691116 -2.491891,0.904329 -3.780779,0.593553 C 9.367054,13.721105 8.2543238,12.910214 7.5632072,11.778563 6.8720907,10.646912 6.6588779,9.2866721 6.9696544,7.9977847 7.2818055,6.7092294 8.0926967,5.5964991 9.2243476,4.9053826 10.355999,4.2142661 11.716239,4.0010533 13.005126,4.3118298 14.293682,4.6239809 15.406412,5.434872 16.097528,6.566523 Z"
     id="path_2" />
</svg>
