<?xml version="1.0" encoding="UTF-8" standalone="no"?>
<svg
        xmlns:dc="http://purl.org/dc/elements/1.1/"
        xmlns:cc="http://creativecommons.org/ns#"
        xmlns:rdf="http://www.w3.org/1999/02/22-rdf-syntax-ns#"
        xmlns="http://www.w3.org/2000/svg"
        xmlns:xlink="http://www.w3.org/1999/xlink"
        xmlns:sodipodi="http://sodipodi.sourceforge.net/DTD/sodipodi-0.dtd"
        xmlns:inkscape="http://www.inkscape.org/namespaces/inkscape"
        viewBox="0 0 32 32"
        id="vector"
        width="32px"
        height="32px"
        version="1.1"
        sodipodi:docname="frame46.svg"
        inkscape:version="0.92.4 (5da689c313, 2019-01-14)"
        inkscape:export-filename="D:\IdeaProjects\donim\icons\30fps\frame46.png"
        inkscape:export-xdpi="48"
        inkscape:export-ydpi="48">
  <metadata
     id="metadata10">
    <rdf:RDF>
      <cc:Work
         rdf:about="">
        <dc:format>image/svg+xml</dc:format>
        <dc:type
           rdf:resource="http://purl.org/dc/dcmitype/StillImage" />
      </cc:Work>
    </rdf:RDF>
  </metadata>
  <defs
     id="defs8">
    <linearGradient
       inkscape:collect="always"
       id="linearGradient3957">
      <stop
         style="stop-color:#003878;stop-opacity:1"
         offset="0"
         id="stop3953" />
      <stop
         style="stop-color:#1985ff;stop-opacity:1"
         offset="1"
         id="stop3955" />
    </linearGradient>
    <linearGradient
       inkscape:collect="always"
       xlink:href="#linearGradient3957"
       id="linearGradient3959"
       x1="7.973094"
       y1="25.978416"
       x2="19.14592"
       y2="7.1060023"
       gradientUnits="userSpaceOnUse" />
    <linearGradient
       inkscape:collect="always"
       xlink:href="#linearGradient3957"
       id="linearGradient3967"
       x1="7.973094"
       y1="25.978416"
       x2="19.14592"
       y2="7.1060023"
       gradientUnits="userSpaceOnUse" />
    <linearGradient
       inkscape:collect="always"
       xlink:href="#linearGradient3957"
       id="linearGradient3975"
       x1="24.026905"
       y1="6.0215845"
       x2="12.854081"
       y2="24.893997"
       gradientUnits="userSpaceOnUse" />
    <linearGradient
       inkscape:collect="always"
       xlink:href="#linearGradient3957"
       id="linearGradient3983"
       x1="24.026905"
       y1="6.0215845"
       x2="12.854081"
       y2="24.893997"
       gradientUnits="userSpaceOnUse" />
  </defs>
  <sodipodi:namedview
     pagecolor="#ffffff"
     bordercolor="#666666"
     borderopacity="1"
     objecttolerance="10"
     gridtolerance="10"
     guidetolerance="10"
     inkscape:pageopacity="0"
     inkscape:pageshadow="2"
     inkscape:window-width="640"
     inkscape:window-height="480"
     id="namedview6"
     showgrid="false"
     inkscape:zoom="10.40625"
     inkscape:cx="-13.981982"
     inkscape:cy="16"
     inkscape:current-layer="vector" />
  <path
     style="fill:url(#linearGradient3959);stroke:url(#linearGradient3967);stroke-width:2;stroke-linecap:round;stroke-linejoin:round;fill-opacity:1"
     inkscape:connector-curvature="0"
     d="M 15.349349,13.071408 C 8.5159669,14.589593 5.695595,20.338114 7.973094,25.978416 -0.59535705,19.687021 2.4423411,5.6951524 13.180513,3.3094328 m 5.965406,3.7965695 c 0.287587,1.2944378 0.04901,2.6504586 -0.662253,3.7693517 -0.712453,1.118134 -1.839879,1.908466 -3.134317,2.196054 -1.294438,0.287587 -2.650458,0.04901 -3.769352,-0.662253 C 10.461864,11.696702 9.6715315,10.569276 9.3839439,9.2748382 9.0963563,7.9804003 9.3349364,6.6243795 10.046197,5.5054863 10.75865,4.3873525 11.886075,3.5970205 13.180513,3.3094328 c 1.294438,-0.2875876 2.650459,-0.049008 3.769352,0.6622528 1.118134,0.7124533 1.908466,1.8398788 2.196054,3.1343167 z"
     id="path_1" />
  <path
     style="fill:url(#linearGradient3983);stroke:url(#linearGradient3975);stroke-width:2;stroke-linecap:round;stroke-linejoin:round;fill-opacity:1"
     inkscape:connector-curvature="0"
     d="m 16.650651,18.928592 c 6.833382,-1.518185 9.653754,-7.266706 7.376255,-12.9070077 8.568451,6.2913947 5.530753,20.2832637 -5.207419,22.6689827 m -5.965406,-3.796569 c -0.287587,-1.294438 -0.04901,-2.650459 0.662253,-3.769352 0.712453,-1.118134 1.839879,-1.908466 3.134317,-2.196054 1.294438,-0.287587 2.650458,-0.04901 3.769352,0.662253 1.118133,0.712453 1.908465,1.839879 2.196053,3.134317 0.287588,1.294438 0.04901,2.650459 -0.662253,3.769352 -0.712453,1.118134 -1.839878,1.908466 -3.134316,2.196053 -1.294438,0.287588 -2.650459,0.04901 -3.769352,-0.662253 -1.118134,-0.712453 -1.908466,-1.839878 -2.196054,-3.134316 z"
     id="path_2" />
</svg>
