<?xml version="1.0" encoding="UTF-8" standalone="no"?>
<svg
        xmlns:dc="http://purl.org/dc/elements/1.1/"
        xmlns:cc="http://creativecommons.org/ns#"
        xmlns:rdf="http://www.w3.org/1999/02/22-rdf-syntax-ns#"
        xmlns="http://www.w3.org/2000/svg"
        xmlns:xlink="http://www.w3.org/1999/xlink"
        xmlns:sodipodi="http://sodipodi.sourceforge.net/DTD/sodipodi-0.dtd"
        xmlns:inkscape="http://www.inkscape.org/namespaces/inkscape"
        viewBox="0 0 32 32"
        id="vector"
        width="32px"
        height="32px"
        version="1.1"
        sodipodi:docname="frame29.svg"
        inkscape:version="0.92.4 (5da689c313, 2019-01-14)"
        inkscape:export-filename="D:\IdeaProjects\donim\icons\30fps\frame29.png"
        inkscape:export-xdpi="48"
        inkscape:export-ydpi="48">
  <metadata
     id="metadata10">
    <rdf:RDF>
      <cc:Work
         rdf:about="">
        <dc:format>image/svg+xml</dc:format>
        <dc:type
           rdf:resource="http://purl.org/dc/dcmitype/StillImage" />
      </cc:Work>
    </rdf:RDF>
  </metadata>
  <defs
     id="defs8">
    <linearGradient
       inkscape:collect="always"
       id="linearGradient3957">
      <stop
         style="stop-color:#003878;stop-opacity:1"
         offset="0"
         id="stop3953" />
      <stop
         style="stop-color:#1985ff;stop-opacity:1"
         offset="1"
         id="stop3955" />
    </linearGradient>
    <linearGradient
       inkscape:collect="always"
       xlink:href="#linearGradient3957"
       id="linearGradient3959"
       x1="8.2331829"
       y1="5.8178315"
       x2="23.882341"
       y2="21.183502"
       gradientUnits="userSpaceOnUse" />
    <linearGradient
       inkscape:collect="always"
       xlink:href="#linearGradient3957"
       id="linearGradient3967"
       x1="8.2331829"
       y1="5.8178315"
       x2="23.882341"
       y2="21.183502"
       gradientUnits="userSpaceOnUse" />
    <linearGradient
       inkscape:collect="always"
       xlink:href="#linearGradient3957"
       id="linearGradient3975"
       x1="23.766817"
       y1="26.182167"
       x2="8.1176596"
       y2="10.816497"
       gradientUnits="userSpaceOnUse" />
    <linearGradient
       inkscape:collect="always"
       xlink:href="#linearGradient3957"
       id="linearGradient3983"
       x1="23.766817"
       y1="26.182167"
       x2="8.1176596"
       y2="10.816497"
       gradientUnits="userSpaceOnUse" />
  </defs>
  <sodipodi:namedview
     pagecolor="#ffffff"
     bordercolor="#666666"
     borderopacity="1"
     objecttolerance="10"
     gridtolerance="10"
     guidetolerance="10"
     inkscape:pageopacity="0"
     inkscape:pageshadow="2"
     inkscape:window-width="640"
     inkscape:window-height="480"
     id="namedview6"
     showgrid="false"
     inkscape:zoom="10.40625"
     inkscape:cx="-13.981982"
     inkscape:cy="16"
     inkscape:current-layer="vector" />
  <path
     style="fill:url(#linearGradient3983);stroke:url(#linearGradient3975);stroke-width:2;stroke-linecap:round;stroke-linejoin:round;fill-opacity:1"
     inkscape:connector-curvature="0"
     d="M 13.000801,15.930686 C 12.839068,22.928817 17.745314,27.043273 23.766817,26.182168 15.60722,32.995462 2.7493184,26.696702 3.0034703,15.699639 m 5.1141889,-4.883142 c 1.325646,0.03064 2.5851298,0.586885 3.5012308,1.545307 0.915078,0.959399 1.412548,2.243236 1.381911,3.568882 -0.03064,1.325646 -0.586886,2.58513 -1.545308,3.501231 -0.959398,0.915077 -2.243235,1.412547 -3.568881,1.38191 C 6.560966,20.783191 5.3014817,20.226942 4.3853812,19.26852 3.4703036,18.309121 2.9728335,17.025285 3.0034703,15.699639 3.0341072,14.373993 3.5903557,13.114508 4.5487778,12.198408 5.5081766,11.28333 6.7920132,10.78586 8.1176592,10.816497 Z"
     id="path_1" />
  <path
     style="fill:url(#linearGradient3959);stroke:url(#linearGradient3967);stroke-width:2;stroke-linecap:round;stroke-linejoin:round;fill-opacity:1"
     inkscape:connector-curvature="0"
     d="M 18.999199,16.069314 C 19.160932,9.0711828 14.254686,4.956727 8.2331828,5.8178317 16.39278,-0.99546185 29.250682,5.3032979 28.99653,16.300361 m -5.114189,4.883142 c -1.325646,-0.03064 -2.58513,-0.586885 -3.501231,-1.545307 -0.915078,-0.959399 -1.412548,-2.243236 -1.381911,-3.568882 0.03064,-1.325646 0.586886,-2.58513 1.545308,-3.501231 0.959398,-0.915077 2.243235,-1.412547 3.568881,-1.38191 1.325646,0.03064 2.58513,0.586885 3.501231,1.545307 0.915077,0.959399 1.412548,2.243235 1.381911,3.568881 -0.03064,1.325646 -0.586886,2.585131 -1.545308,3.501231 -0.959399,0.915078 -2.243235,1.412548 -3.568881,1.381911 z"
     id="path_2" />
</svg>
