<?xml version="1.0" encoding="UTF-8" standalone="no"?>
<svg
        xmlns:dc="http://purl.org/dc/elements/1.1/"
        xmlns:cc="http://creativecommons.org/ns#"
        xmlns:rdf="http://www.w3.org/1999/02/22-rdf-syntax-ns#"
        xmlns="http://www.w3.org/2000/svg"
        xmlns:xlink="http://www.w3.org/1999/xlink"
        xmlns:sodipodi="http://sodipodi.sourceforge.net/DTD/sodipodi-0.dtd"
        xmlns:inkscape="http://www.inkscape.org/namespaces/inkscape"
        viewBox="0 0 32 32"
        id="vector"
        width="32px"
        height="32px"
        version="1.1"
        sodipodi:docname="frame22.svg"
        inkscape:version="0.92.4 (5da689c313, 2019-01-14)"
        inkscape:export-filename="D:\IdeaProjects\donim\icons\30fps\frame22.png"
        inkscape:export-xdpi="48"
        inkscape:export-ydpi="48">
  <metadata
     id="metadata10">
    <rdf:RDF>
      <cc:Work
         rdf:about="">
        <dc:format>image/svg+xml</dc:format>
        <dc:type
           rdf:resource="http://purl.org/dc/dcmitype/StillImage" />
      </cc:Work>
    </rdf:RDF>
  </metadata>
  <defs
     id="defs8">
    <linearGradient
       inkscape:collect="always"
       id="linearGradient3957">
      <stop
         style="stop-color:#003878;stop-opacity:1"
         offset="0"
         id="stop3953" />
      <stop
         style="stop-color:#1985ff;stop-opacity:1"
         offset="1"
         id="stop3955" />
    </linearGradient>
    <linearGradient
       inkscape:collect="always"
       xlink:href="#linearGradient3957"
       id="linearGradient3959"
       x1="4.3096418"
       y1="21.228338"
       x2="22.851021"
       y2="9.5143604"
       gradientUnits="userSpaceOnUse" />
    <linearGradient
       inkscape:collect="always"
       xlink:href="#linearGradient3957"
       id="linearGradient3967"
       x1="4.3096418"
       y1="21.228338"
       x2="22.851021"
       y2="9.5143604"
       gradientUnits="userSpaceOnUse" />
    <linearGradient
       inkscape:collect="always"
       xlink:href="#linearGradient3957"
       id="linearGradient3975"
       x1="27.690357"
       y1="10.771662"
       x2="9.1489801"
       y2="22.48564"
       gradientUnits="userSpaceOnUse" />
    <linearGradient
       inkscape:collect="always"
       xlink:href="#linearGradient3957"
       id="linearGradient3983"
       x1="27.690357"
       y1="10.771662"
       x2="9.1489801"
       y2="22.48564"
       gradientUnits="userSpaceOnUse" />
  </defs>
  <sodipodi:namedview
     pagecolor="#ffffff"
     bordercolor="#666666"
     borderopacity="1"
     objecttolerance="10"
     gridtolerance="10"
     guidetolerance="10"
     inkscape:pageopacity="0"
     inkscape:pageshadow="2"
     inkscape:window-width="640"
     inkscape:window-height="480"
     id="namedview6"
     showgrid="false"
     inkscape:zoom="10.40625"
     inkscape:cx="-13.981982"
     inkscape:cy="16"
     inkscape:current-layer="vector" />
  <path
     style="fill:url(#linearGradient3983);stroke:url(#linearGradient3975);stroke-width:2;stroke-linecap:round;stroke-linejoin:round;fill-opacity:1"
     inkscape:connector-curvature="0"
     d="m 15.245619,18.903603 c 6.775074,1.760222 11.903845,-2.073275 12.444739,-8.131941 4.763392,9.503163 -4.312798,20.57668 -14.959341,17.810617 M 9.1489798,22.48564 c 0.3334363,-1.283393 1.1633602,-2.382001 2.3061212,-3.054242 1.143479,-0.671023 2.507126,-0.861231 3.790518,-0.527795 1.283393,0.333436 2.382001,1.16336 3.054242,2.306122 0.671023,1.143478 0.861231,2.507125 0.527795,3.790517 -0.333436,1.283393 -1.16336,2.382001 -2.306122,3.054242 -1.143478,0.671023 -2.507125,0.861231 -3.790517,0.527795 C 11.447624,28.248843 10.349016,27.418919 9.6767745,26.276157 9.0057522,25.132679 8.8155435,23.769032 9.1489798,22.48564 Z"
     id="path_1" />
  <path
     style="fill:url(#linearGradient3959);stroke:url(#linearGradient3967);stroke-width:2;stroke-linecap:round;stroke-linejoin:round;fill-opacity:1"
     inkscape:connector-curvature="0"
     d="M 16.754381,13.096397 C 9.9793074,11.336175 4.8505356,15.169672 4.3096417,21.228338 -0.45374958,11.725175 8.6224396,0.65165799 19.268983,3.4177209 m 3.582037,6.0966394 c -0.333436,1.2833927 -1.16336,2.3820007 -2.306121,3.0542417 -1.143479,0.671023 -2.507126,0.861231 -3.790518,0.527795 -1.283393,-0.333436 -2.382001,-1.16336 -3.054242,-2.306122 -0.671023,-1.1434777 -0.861231,-2.5071248 -0.527795,-3.7905173 0.333436,-1.2833925 1.16336,-2.3820005 2.306122,-3.0542421 1.143478,-0.6710222 2.507125,-0.861231 3.790517,-0.5277947 1.283393,0.3334363 2.382001,1.16336 3.054243,2.3061217 0.671022,1.1434781 0.861231,2.5071253 0.527794,3.7905177 z"
     id="path_2" />
</svg>
