<?xml version="1.0" encoding="UTF-8" standalone="no"?>
<svg
        xmlns:dc="http://purl.org/dc/elements/1.1/"
        xmlns:cc="http://creativecommons.org/ns#"
        xmlns:rdf="http://www.w3.org/1999/02/22-rdf-syntax-ns#"
        xmlns="http://www.w3.org/2000/svg"
        xmlns:xlink="http://www.w3.org/1999/xlink"
        xmlns:sodipodi="http://sodipodi.sourceforge.net/DTD/sodipodi-0.dtd"
        xmlns:inkscape="http://www.inkscape.org/namespaces/inkscape"
        viewBox="0 0 32 32"
        id="vector"
        width="32px"
        height="32px"
        version="1.1"
        sodipodi:docname="frame41.svg"
        inkscape:version="0.92.4 (5da689c313, 2019-01-14)"
        inkscape:export-filename="D:\IdeaProjects\donim\icons\30fps\frame41.png"
        inkscape:export-xdpi="48"
        inkscape:export-ydpi="48">
  <metadata
     id="metadata10">
    <rdf:RDF>
      <cc:Work
         rdf:about="">
        <dc:format>image/svg+xml</dc:format>
        <dc:type
           rdf:resource="http://purl.org/dc/dcmitype/StillImage" />
      </cc:Work>
    </rdf:RDF>
  </metadata>
  <defs
     id="defs8">
    <linearGradient
       inkscape:collect="always"
       id="linearGradient3957">
      <stop
         style="stop-color:#003878;stop-opacity:1"
         offset="0"
         id="stop3953" />
      <stop
         style="stop-color:#1985ff;stop-opacity:1"
         offset="1"
         id="stop3955" />
    </linearGradient>
    <linearGradient
       inkscape:collect="always"
       xlink:href="#linearGradient3957"
       id="linearGradient3959"
       x1="10.366791"
       y1="27.500736"
       x2="17.110708"
       y2="6.6316319"
       gradientUnits="userSpaceOnUse" />
    <linearGradient
       inkscape:collect="always"
       xlink:href="#linearGradient3957"
       id="linearGradient3967"
       x1="10.366791"
       y1="27.500736"
       x2="17.110708"
       y2="6.6316319"
       gradientUnits="userSpaceOnUse" />
    <linearGradient
       inkscape:collect="always"
       xlink:href="#linearGradient3957"
       id="linearGradient3975"
       x1="21.633209"
       y1="4.4992628"
       x2="14.88929"
       y2="25.368368"
       gradientUnits="userSpaceOnUse" />
    <linearGradient
       inkscape:collect="always"
       xlink:href="#linearGradient3957"
       id="linearGradient3983"
       x1="21.633209"
       y1="4.4992628"
       x2="14.88929"
       y2="25.368368"
       gradientUnits="userSpaceOnUse" />
  </defs>
  <sodipodi:namedview
     pagecolor="#ffffff"
     bordercolor="#666666"
     borderopacity="1"
     objecttolerance="10"
     gridtolerance="10"
     guidetolerance="10"
     inkscape:pageopacity="0"
     inkscape:pageshadow="2"
     inkscape:window-width="640"
     inkscape:window-height="480"
     id="namedview6"
     showgrid="false"
     inkscape:zoom="10.40625"
     inkscape:cx="-13.981982"
     inkscape:cy="16"
     inkscape:current-layer="vector" />
  <path
     style="fill:url(#linearGradient3959);stroke:url(#linearGradient3967);stroke-width:2;stroke-linecap:round;stroke-linejoin:round;fill-opacity:1"
     inkscape:connector-curvature="0"
     d="M 14.720579,13.2865 C 8.3890792,16.271817 6.9034487,22.500212 10.366791,27.500737 0.62350157,23.250055 0.50634138,8.9327132 10.45584,4.2415012 m 6.654869,2.3901305 c 0.565504,1.1993668 0.631308,2.5746424 0.183824,3.8226693 -0.448815,1.247549 -1.374588,2.266695 -2.573954,2.832199 -1.199367,0.565505 -2.574643,0.631308 -3.82267,0.183824 C 9.6503603,13.021509 8.6312142,12.095737 8.0657099,10.89637 7.5002056,9.697003 7.4344024,8.3217274 7.8818864,7.0737005 8.3307013,5.8261516 9.2564735,4.8070055 10.45584,4.2415012 c 1.199367,-0.5655043 2.574643,-0.6313075 3.82267,-0.1838236 1.247549,0.448815 2.266695,1.3745872 2.832199,2.5739541 z"
     id="path_1" />
  <path
     style="fill:url(#linearGradient3983);stroke:url(#linearGradient3975);stroke-width:2;stroke-linecap:round;stroke-linejoin:round;fill-opacity:1"
     inkscape:connector-curvature="0"
     d="m 17.279421,18.7135 c 6.3315,-2.985317 7.81713,-9.2137118 4.353788,-14.2142374 9.743289,4.2506825 9.86045,18.5680244 -0.08905,23.2592364 m -6.654869,-2.390131 c -0.565504,-1.199367 -0.631308,-2.574642 -0.183824,-3.822669 0.448815,-1.247549 1.374588,-2.266695 2.573954,-2.832199 1.199367,-0.565505 2.574643,-0.631308 3.82267,-0.183824 1.247549,0.448815 2.266695,1.374587 2.832199,2.573954 0.565504,1.199367 0.631308,2.574643 0.183824,3.82267 -0.448815,1.247548 -1.374587,2.266695 -2.573954,2.832199 -1.199367,0.565504 -2.574643,0.631307 -3.82267,0.183823 -1.247549,-0.448815 -2.266695,-1.374587 -2.832199,-2.573954 z"
     id="path_2" />
</svg>
