<?xml version="1.0" encoding="UTF-8" standalone="no"?>
<svg
        xmlns:dc="http://purl.org/dc/elements/1.1/"
        xmlns:cc="http://creativecommons.org/ns#"
        xmlns:rdf="http://www.w3.org/1999/02/22-rdf-syntax-ns#"
        xmlns="http://www.w3.org/2000/svg"
        xmlns:xlink="http://www.w3.org/1999/xlink"
        xmlns:sodipodi="http://sodipodi.sourceforge.net/DTD/sodipodi-0.dtd"
        xmlns:inkscape="http://www.inkscape.org/namespaces/inkscape"
        viewBox="0 0 32 32"
        id="vector"
        width="32px"
        height="32px"
        version="1.1"
        sodipodi:docname="frame27.svg"
        inkscape:version="0.92.4 (5da689c313, 2019-01-14)"
        inkscape:export-filename="D:\IdeaProjects\donim\icons\30fps\frame27.png"
        inkscape:export-xdpi="48"
        inkscape:export-ydpi="48">
  <metadata
     id="metadata10">
    <rdf:RDF>
      <cc:Work
         rdf:about="">
        <dc:format>image/svg+xml</dc:format>
        <dc:type
           rdf:resource="http://purl.org/dc/dcmitype/StillImage" />
      </cc:Work>
    </rdf:RDF>
  </metadata>
  <defs
     id="defs8">
    <linearGradient
       inkscape:collect="always"
       id="linearGradient3957">
      <stop
         style="stop-color:#003878;stop-opacity:1"
         offset="0"
         id="stop3953" />
      <stop
         style="stop-color:#1985ff;stop-opacity:1"
         offset="1"
         id="stop3955" />
    </linearGradient>
    <linearGradient
       inkscape:collect="always"
       xlink:href="#linearGradient3957"
       id="linearGradient3959"
       x1="5.4940753"
       y1="8.6770535"
       x2="25.088984"
       y2="18.52792"
       gradientUnits="userSpaceOnUse" />
    <linearGradient
       inkscape:collect="always"
       xlink:href="#linearGradient3957"
       id="linearGradient3967"
       x1="5.4940753"
       y1="8.6770535"
       x2="25.088984"
       y2="18.52792"
       gradientUnits="userSpaceOnUse" />
    <linearGradient
       inkscape:collect="always"
       xlink:href="#linearGradient3957"
       id="linearGradient3975"
       x1="26.505924"
       y1="23.322947"
       x2="6.9110165"
       y2="13.47208"
       gradientUnits="userSpaceOnUse" />
    <linearGradient
       inkscape:collect="always"
       xlink:href="#linearGradient3957"
       id="linearGradient3983"
       x1="26.505924"
       y1="23.322947"
       x2="6.9110165"
       y2="13.47208"
       gradientUnits="userSpaceOnUse" />
  </defs>
  <sodipodi:namedview
     pagecolor="#ffffff"
     bordercolor="#666666"
     borderopacity="1"
     objecttolerance="10"
     gridtolerance="10"
     guidetolerance="10"
     inkscape:pageopacity="0"
     inkscape:pageshadow="2"
     inkscape:window-width="640"
     inkscape:window-height="480"
     id="namedview6"
     showgrid="false"
     inkscape:zoom="10.40625"
     inkscape:cx="-13.981982"
     inkscape:cy="16"
     inkscape:current-layer="vector" />
  <path
     style="fill:url(#linearGradient3983);stroke:url(#linearGradient3975);stroke-width:2;stroke-linecap:round;stroke-linejoin:round;fill-opacity:1"
     inkscape:connector-curvature="0"
     d="m 13.122984,16.850165 c 1.983718,6.713037 7.912297,9.132116 13.382941,6.472782 C 20.8176,32.30309 6.6502021,30.233105 3.5329315,19.684047 M 6.9110167,13.47208 c 1.2716409,-0.375773 2.6408412,-0.230847 3.8059233,0.401922 1.164406,0.634013 2.030271,1.704522 2.406044,2.976163 0.375773,1.271641 0.230847,2.640841 -0.401923,3.805923 -0.634012,1.164406 -1.704521,2.030271 -2.9761619,2.406044 C 8.4732581,23.437905 7.1040578,23.292979 5.938976,22.660209 4.7745699,22.026197 3.9087043,20.955688 3.5329315,19.684047 3.1571587,18.412406 3.3020846,17.043206 3.9348544,15.878124 4.5688666,14.713718 5.6393757,13.847852 6.9110167,13.47208 Z"
     id="path_1" />
  <path
     style="fill:url(#linearGradient3959);stroke:url(#linearGradient3967);stroke-width:2;stroke-linecap:round;stroke-linejoin:round;fill-opacity:1"
     inkscape:connector-curvature="0"
     d="M 18.877016,15.149835 C 16.893298,8.4367984 10.964719,6.0177185 5.4940755,8.6770532 11.1824,-0.30308957 25.349798,1.7668949 28.467068,12.315953 m -3.378085,6.211967 c -1.271641,0.375773 -2.640841,0.230847 -3.805923,-0.401922 -1.164406,-0.634013 -2.030271,-1.704522 -2.406044,-2.976163 -0.375773,-1.271641 -0.230847,-2.640841 0.401923,-3.805923 0.634012,-1.164406 1.704521,-2.0302715 2.976162,-2.4060443 1.271641,-0.3757728 2.640841,-0.2308468 3.805923,0.4019229 1.164406,0.6340122 2.030272,1.7045214 2.406044,2.9761624 0.375773,1.271641 0.230847,2.640841 -0.401922,3.805923 -0.634013,1.164406 -1.704522,2.030272 -2.976163,2.406044 z"
     id="path_2" />
</svg>
