<?xml version="1.0" encoding="UTF-8" standalone="no"?>
<svg
        xmlns:dc="http://purl.org/dc/elements/1.1/"
        xmlns:cc="http://creativecommons.org/ns#"
        xmlns:rdf="http://www.w3.org/1999/02/22-rdf-syntax-ns#"
        xmlns="http://www.w3.org/2000/svg"
        xmlns:xlink="http://www.w3.org/1999/xlink"
        xmlns:sodipodi="http://sodipodi.sourceforge.net/DTD/sodipodi-0.dtd"
        xmlns:inkscape="http://www.inkscape.org/namespaces/inkscape"
        viewBox="0 0 32 32"
        id="vector"
        width="32px"
        height="32px"
        version="1.1"
        sodipodi:docname="frame35.svg"
        inkscape:version="0.92.4 (5da689c313, 2019-01-14)"
        inkscape:export-filename="D:\IdeaProjects\donim\icons\30fps\frame35.png"
        inkscape:export-xdpi="48"
        inkscape:export-ydpi="48">
  <metadata
     id="metadata10">
    <rdf:RDF>
      <cc:Work
         rdf:about="">
        <dc:format>image/svg+xml</dc:format>
        <dc:type
           rdf:resource="http://purl.org/dc/dcmitype/StillImage" />
      </cc:Work>
    </rdf:RDF>
  </metadata>
  <defs
     id="defs8">
    <linearGradient
       inkscape:collect="always"
       id="linearGradient3957">
      <stop
         style="stop-color:#003878;stop-opacity:1"
         offset="0"
         id="stop3953" />
      <stop
         style="stop-color:#1985ff;stop-opacity:1"
         offset="1"
         id="stop3955" />
    </linearGradient>
    <linearGradient
       inkscape:collect="always"
       xlink:href="#linearGradient3957"
       id="linearGradient3959"
       x1="16.399265"
       y1="3.1999772"
       x2="18.844418"
       y2="24.994959"
       gradientUnits="userSpaceOnUse" />
    <linearGradient
       inkscape:collect="always"
       xlink:href="#linearGradient3957"
       id="linearGradient3967"
       x1="16.399265"
       y1="3.1999772"
       x2="18.844418"
       y2="24.994959"
       gradientUnits="userSpaceOnUse" />
    <linearGradient
       inkscape:collect="always"
       xlink:href="#linearGradient3957"
       id="linearGradient3975"
       x1="15.600734"
       y1="28.800022"
       x2="13.155582"
       y2="7.0050411"
       gradientUnits="userSpaceOnUse" />
    <linearGradient
       inkscape:collect="always"
       xlink:href="#linearGradient3957"
       id="linearGradient3983"
       x1="15.600734"
       y1="28.800022"
       x2="13.155582"
       y2="7.0050411"
       gradientUnits="userSpaceOnUse" />
  </defs>
  <sodipodi:namedview
     pagecolor="#ffffff"
     bordercolor="#666666"
     borderopacity="1"
     objecttolerance="10"
     gridtolerance="10"
     guidetolerance="10"
     inkscape:pageopacity="0"
     inkscape:pageshadow="2"
     inkscape:window-width="640"
     inkscape:window-height="480"
     id="namedview6"
     showgrid="false"
     inkscape:zoom="10.40625"
     inkscape:cx="-13.981982"
     inkscape:cy="16"
     inkscape:current-layer="vector" />
  <path
     style="fill:url(#linearGradient3983);stroke:url(#linearGradient3975);stroke-width:2;stroke-linecap:round;stroke-linejoin:round;fill-opacity:1"
     inkscape:connector-curvature="0"
     d="M 13.716962,14.053789 C 9.1758035,19.380879 10.38592,25.668614 15.600734,28.800023 4.9714732,28.937217 -1.0292719,15.937561 6.1068337,7.5664207 M 13.155582,7.0050411 c 1.009103,0.8602251 1.635227,2.0864721 1.74119,3.4080559 0.104554,1.321697 -0.319585,2.631589 -1.17981,3.640692 -0.860225,1.009103 -2.086473,1.635227 -3.408057,1.741191 C 8.9872089,15.899534 7.6773163,15.475394 6.6682133,14.615169 5.6591103,13.754944 5.0329864,12.528697 4.9270228,11.207113 4.822469,9.8854162 5.2466086,8.5755236 6.1068337,7.5664207 6.9670588,6.5573177 8.1933058,5.9311938 9.51489,5.8252302 10.836586,5.7206764 12.146479,6.144816 13.155582,7.0050411 Z"
     id="path_1" />
  <path
     style="fill:url(#linearGradient3959);stroke:url(#linearGradient3967);stroke-width:2;stroke-linecap:round;stroke-linejoin:round;fill-opacity:1"
     inkscape:connector-curvature="0"
     d="M 18.283038,17.946211 C 22.824196,12.619121 21.61408,6.3313855 16.399266,3.1999771 27.028527,3.0627825 33.029272,16.062439 25.893166,24.433579 m -7.048748,0.56138 c -1.009103,-0.860225 -1.635227,-2.086472 -1.74119,-3.408056 -0.104554,-1.321697 0.319585,-2.631589 1.17981,-3.640692 0.860225,-1.009103 2.086473,-1.635227 3.408057,-1.741191 1.321696,-0.104554 2.631589,0.319586 3.640692,1.179811 1.009103,0.860225 1.635227,2.086472 1.74119,3.408056 0.104554,1.321697 -0.319586,2.631589 -1.179811,3.640692 -0.860225,1.009103 -2.086472,1.635227 -3.408056,1.741191 -1.321696,0.104554 -2.631589,-0.319586 -3.640692,-1.179811 z"
     id="path_2" />
</svg>
