<?xml version="1.0" encoding="UTF-8" standalone="no"?>
<svg
        xmlns:dc="http://purl.org/dc/elements/1.1/"
        xmlns:cc="http://creativecommons.org/ns#"
        xmlns:rdf="http://www.w3.org/1999/02/22-rdf-syntax-ns#"
        xmlns="http://www.w3.org/2000/svg"
        xmlns:xlink="http://www.w3.org/1999/xlink"
        xmlns:sodipodi="http://sodipodi.sourceforge.net/DTD/sodipodi-0.dtd"
        xmlns:inkscape="http://www.inkscape.org/namespaces/inkscape"
        viewBox="0 0 32 32"
        id="vector"
        width="32px"
        height="32px"
        version="1.1"
        sodipodi:docname="frame50.svg"
        inkscape:version="0.92.4 (5da689c313, 2019-01-14)"
        inkscape:export-filename="D:\IdeaProjects\donim\icons\30fps\frame50.png"
        inkscape:export-xdpi="48"
        inkscape:export-ydpi="48">
  <metadata
     id="metadata10">
    <rdf:RDF>
      <cc:Work
         rdf:about="">
        <dc:format>image/svg+xml</dc:format>
        <dc:type
           rdf:resource="http://purl.org/dc/dcmitype/StillImage" />
      </cc:Work>
    </rdf:RDF>
  </metadata>
  <defs
     id="defs8">
    <linearGradient
       inkscape:collect="always"
       id="linearGradient3957">
      <stop
         style="stop-color:#003878;stop-opacity:1"
         offset="0"
         id="stop3953" />
      <stop
         style="stop-color:#1985ff;stop-opacity:1"
         offset="1"
         id="stop3955" />
    </linearGradient>
    <linearGradient
       inkscape:collect="always"
       xlink:href="#linearGradient3957"
       id="linearGradient3959"
       x1="6.8895779"
       y1="25.000011"
       x2="20.13773"
       y2="7.5218401"
       gradientUnits="userSpaceOnUse" />
    <linearGradient
       inkscape:collect="always"
       xlink:href="#linearGradient3957"
       id="linearGradient3967"
       x1="6.8895779"
       y1="25.000011"
       x2="20.13773"
       y2="7.5218401"
       gradientUnits="userSpaceOnUse" />
    <linearGradient
       inkscape:collect="always"
       xlink:href="#linearGradient3957"
       id="linearGradient3975"
       x1="25.110422"
       y1="6.9999886"
       x2="11.86227"
       y2="24.478161"
       gradientUnits="userSpaceOnUse" />
    <linearGradient
       inkscape:collect="always"
       xlink:href="#linearGradient3957"
       id="linearGradient3983"
       x1="25.110422"
       y1="6.9999886"
       x2="11.86227"
       y2="24.478161"
       gradientUnits="userSpaceOnUse" />
  </defs>
  <sodipodi:namedview
     pagecolor="#ffffff"
     bordercolor="#666666"
     borderopacity="1"
     objecttolerance="10"
     gridtolerance="10"
     guidetolerance="10"
     inkscape:pageopacity="0"
     inkscape:pageshadow="2"
     inkscape:window-width="640"
     inkscape:window-height="480"
     id="namedview6"
     showgrid="false"
     inkscape:zoom="10.40625"
     inkscape:cx="-13.981982"
     inkscape:cy="16"
     inkscape:current-layer="vector" />
  <path
     style="fill:url(#linearGradient3959);stroke:url(#linearGradient3967);stroke-width:2;stroke-linecap:round;stroke-linejoin:round;fill-opacity:1"
     inkscape:connector-curvature="0"
     d="M 15.686889,13.016384 C 8.7251194,13.746977 5.2688172,19.137151 6.8895778,25.000012 -0.90715451,17.774296 3.7032619,4.2190734 14.643185,3.0709995 m 5.494545,4.4508407 c 0.138395,1.3187581 -0.252968,2.6388138 -1.086951,3.6694868 -0.835082,1.029782 -2.045132,1.686662 -3.36389,1.825057 -1.318758,0.138396 -2.638814,-0.252967 -3.669486,-1.08695 -1.029782,-0.835082 -1.686663,-2.0451322 -1.825058,-3.3638902 -0.138395,-1.3187581 0.252967,-2.6388142 1.08695,-3.6694864 0.835083,-1.0297819 2.045132,-1.6866628 3.36389,-1.8250579 1.318758,-0.1383951 2.638815,0.2529676 3.669487,1.0869508 1.029782,0.8350821 1.686663,2.0451319 1.825058,3.3638899 z"
     id="path_1" />
  <path
     style="fill:url(#linearGradient3983);stroke:url(#linearGradient3975);stroke-width:2;stroke-linecap:round;stroke-linejoin:round;fill-opacity:1"
     inkscape:connector-curvature="0"
     d="m 16.313111,18.983616 c 6.96177,-0.730593 10.418072,-6.120767 8.797311,-11.9836275 7.796733,7.2257155 3.186316,20.7809385 -7.753607,21.9290125 M 11.86227,24.47816 c -0.138395,-1.318758 0.252968,-2.638814 1.086951,-3.669487 0.835082,-1.029782 2.045132,-1.686662 3.36389,-1.825057 1.318758,-0.138396 2.638814,0.252967 3.669486,1.08695 1.029782,0.835082 1.686663,2.045132 1.825058,3.36389 0.138395,1.318758 -0.252967,2.638814 -1.08695,3.669487 -0.835083,1.029782 -2.045132,1.686662 -3.36389,1.825058 C 16.038057,29.067396 14.718,28.676033 13.687328,27.84205 12.657546,27.006968 12.000665,25.796918 11.86227,24.47816 Z"
     id="path_2" />
</svg>
