<?xml version="1.0" encoding="UTF-8" standalone="no"?>
<svg
        xmlns:dc="http://purl.org/dc/elements/1.1/"
        xmlns:cc="http://creativecommons.org/ns#"
        xmlns:rdf="http://www.w3.org/1999/02/22-rdf-syntax-ns#"
        xmlns="http://www.w3.org/2000/svg"
        xmlns:xlink="http://www.w3.org/1999/xlink"
        xmlns:sodipodi="http://sodipodi.sourceforge.net/DTD/sodipodi-0.dtd"
        xmlns:inkscape="http://www.inkscape.org/namespaces/inkscape"
        viewBox="0 0 32 32"
        id="vector"
        width="32px"
        height="32px"
        version="1.1"
        sodipodi:docname="frame57.svg"
        inkscape:version="0.92.4 (5da689c313, 2019-01-14)"
        inkscape:export-filename="D:\IdeaProjects\donim\icons\30fps\frame57.png"
        inkscape:export-xdpi="48"
        inkscape:export-ydpi="48">
  <metadata
     id="metadata10">
    <rdf:RDF>
      <cc:Work
         rdf:about="">
        <dc:format>image/svg+xml</dc:format>
        <dc:type
           rdf:resource="http://purl.org/dc/dcmitype/StillImage" />
      </cc:Work>
    </rdf:RDF>
  </metadata>
  <defs
     id="defs8">
    <linearGradient
       inkscape:collect="always"
       id="linearGradient3957">
      <stop
         style="stop-color:#003878;stop-opacity:1"
         offset="0"
         id="stop3953" />
      <stop
         style="stop-color:#1985ff;stop-opacity:1"
         offset="1"
         id="stop3955" />
    </linearGradient>
    <linearGradient
       inkscape:collect="always"
       xlink:href="#linearGradient3957"
       id="linearGradient3959"
       x1="6.0684295"
       y1="24.084795"
       x2="20.931751"
       y2="7.9577475"
       gradientUnits="userSpaceOnUse" />
    <linearGradient
       inkscape:collect="always"
       xlink:href="#linearGradient3957"
       id="linearGradient3967"
       x1="6.0684295"
       y1="24.084795"
       x2="20.931751"
       y2="7.9577475"
       gradientUnits="userSpaceOnUse" />
    <linearGradient
       inkscape:collect="always"
       xlink:href="#linearGradient3957"
       id="linearGradient3975"
       x1="25.93157"
       y1="7.915205"
       x2="11.068249"
       y2="24.042253"
       gradientUnits="userSpaceOnUse" />
    <linearGradient
       inkscape:collect="always"
       xlink:href="#linearGradient3957"
       id="linearGradient3983"
       x1="25.93157"
       y1="7.915205"
       x2="11.068249"
       y2="24.042253"
       gradientUnits="userSpaceOnUse" />
  </defs>
  <sodipodi:namedview
     pagecolor="#ffffff"
     bordercolor="#666666"
     borderopacity="1"
     objecttolerance="10"
     gridtolerance="10"
     guidetolerance="10"
     inkscape:pageopacity="0"
     inkscape:pageshadow="2"
     inkscape:window-width="640"
     inkscape:window-height="480"
     id="namedview6"
     showgrid="false"
     inkscape:zoom="10.40625"
     inkscape:cx="-13.981982"
     inkscape:cy="16"
     inkscape:current-layer="vector" />
  <path
     style="fill:url(#linearGradient3959);stroke:url(#linearGradient3967);stroke-width:2;stroke-linecap:round;stroke-linejoin:round;fill-opacity:1"
     inkscape:connector-curvature="0"
     d="M 15.974475,13.000109 C 8.974728,13.059668 5.0174151,18.093521 6.0684297,24.084795 -0.99938464,16.144644 4.8897882,3.0940636 15.88939,3.0004706 m 5.042361,4.9572767 c 0.01128,1.325952 -0.504876,2.6023897 -1.433861,3.5483287 -0.929993,0.944947 -2.197463,1.48275 -3.523415,1.494033 -1.325952,0.01128 -2.60239,-0.504876 -3.548329,-1.433861 -0.944947,-0.929994 -1.48275,-2.1974641 -1.494033,-3.5234161 -0.01128,-1.325952 0.504876,-2.6023899 1.433861,-3.5483284 0.929994,-0.944947 2.197464,-1.4827507 3.523416,-1.4940329 1.325952,-0.011282 2.60239,0.5048759 3.548328,1.4338611 0.944947,0.9299936 1.482751,2.1974636 1.494033,3.5234156 z"
     id="path_1" />
  <path
     style="fill:url(#linearGradient3983);stroke:url(#linearGradient3975);stroke-width:2;stroke-linecap:round;stroke-linejoin:round;fill-opacity:1"
     inkscape:connector-curvature="0"
     d="m 16.025525,18.999891 c 6.999747,-0.05956 10.95706,-5.093412 9.906045,-11.084686 7.067815,7.940151 1.178642,20.990731 -9.82096,21.084324 m -5.042361,-4.957276 c -0.01128,-1.325952 0.504876,-2.60239 1.433861,-3.548329 0.929993,-0.944947 2.197463,-1.48275 3.523415,-1.494033 1.325952,-0.01128 2.60239,0.504876 3.548329,1.433861 0.944947,0.929994 1.48275,2.197464 1.494033,3.523416 0.01128,1.325952 -0.504876,2.60239 -1.433861,3.548329 -0.929994,0.944947 -2.197464,1.48275 -3.523416,1.494032 -1.325952,0.01128 -2.60239,-0.504876 -3.548328,-1.433861 -0.944947,-0.929993 -1.482751,-2.197463 -1.494033,-3.523415 z"
     id="path_2" />
</svg>
