<?xml version="1.0" encoding="UTF-8" standalone="no"?>
<svg
        xmlns:dc="http://purl.org/dc/elements/1.1/"
        xmlns:cc="http://creativecommons.org/ns#"
        xmlns:rdf="http://www.w3.org/1999/02/22-rdf-syntax-ns#"
        xmlns="http://www.w3.org/2000/svg"
        xmlns:xlink="http://www.w3.org/1999/xlink"
        xmlns:sodipodi="http://sodipodi.sourceforge.net/DTD/sodipodi-0.dtd"
        xmlns:inkscape="http://www.inkscape.org/namespaces/inkscape"
        viewBox="0 0 32 32"
        id="vector"
        width="32px"
        height="32px"
        version="1.1"
        sodipodi:docname="frame45.svg"
        inkscape:version="0.92.4 (5da689c313, 2019-01-14)"
        inkscape:export-filename="D:\IdeaProjects\donim\icons\30fps\frame45.png"
        inkscape:export-xdpi="48"
        inkscape:export-ydpi="48">
  <metadata
     id="metadata10">
    <rdf:RDF>
      <cc:Work
         rdf:about="">
        <dc:format>image/svg+xml</dc:format>
        <dc:type
           rdf:resource="http://purl.org/dc/dcmitype/StillImage" />
      </cc:Work>
    </rdf:RDF>
  </metadata>
  <defs
     id="defs8">
    <linearGradient
       inkscape:collect="always"
       id="linearGradient3957">
      <stop
         style="stop-color:#003878;stop-opacity:1"
         offset="0"
         id="stop3953" />
      <stop
         style="stop-color:#1985ff;stop-opacity:1"
         offset="1"
         id="stop3955" />
    </linearGradient>
    <linearGradient
       inkscape:collect="always"
       xlink:href="#linearGradient3957"
       id="linearGradient3959"
       x1="8.3444099"
       y1="26.266058"
       x2="18.817652"
       y2="6.9966207"
       gradientUnits="userSpaceOnUse" />
    <linearGradient
       inkscape:collect="always"
       xlink:href="#linearGradient3957"
       id="linearGradient3967"
       x1="8.3444099"
       y1="26.266058"
       x2="18.817652"
       y2="6.9966207"
       gradientUnits="userSpaceOnUse" />
    <linearGradient
       inkscape:collect="always"
       xlink:href="#linearGradient3957"
       id="linearGradient3975"
       x1="23.65559"
       y1="5.733942"
       x2="13.182348"
       y2="25.00338"
       gradientUnits="userSpaceOnUse" />
    <linearGradient
       inkscape:collect="always"
       xlink:href="#linearGradient3957"
       id="linearGradient3983"
       x1="23.65559"
       y1="5.733942"
       x2="13.182348"
       y2="25.00338"
       gradientUnits="userSpaceOnUse" />
  </defs>
  <sodipodi:namedview
     pagecolor="#ffffff"
     bordercolor="#666666"
     borderopacity="1"
     objecttolerance="10"
     gridtolerance="10"
     guidetolerance="10"
     inkscape:pageopacity="0"
     inkscape:pageshadow="2"
     inkscape:window-width="640"
     inkscape:window-height="480"
     id="namedview6"
     showgrid="false"
     inkscape:zoom="10.40625"
     inkscape:cx="-13.981982"
     inkscape:cy="16"
     inkscape:current-layer="vector" />
  <path
     style="fill:url(#linearGradient3959);stroke:url(#linearGradient3967);stroke-width:2;stroke-linecap:round;stroke-linejoin:round;fill-opacity:1"
     inkscape:connector-curvature="0"
     d="M 15.242393,13.097237 C 8.4692798,14.864987 5.8616082,20.713068 8.3444102,26.266058 -0.44898865,20.293108 2.0735722,6.1992547 12.717035,3.4213616 m 6.100617,3.5752592 c 0.334862,1.2830211 0.146169,2.6468788 -0.523582,3.7911022 -0.670971,1.143508 -1.768656,1.974652 -3.051677,2.309514 C 13.959372,13.4321 12.595514,13.243406 11.451291,12.573655 10.307783,11.902684 9.4766386,10.804999 9.1417763,9.5219782 8.8069139,8.238957 8.9956071,6.8750993 9.6653581,5.7308762 10.336329,4.5873681 11.434014,3.756224 12.717035,3.4213616 c 1.283022,-0.3348624 2.646879,-0.1461692 3.791102,0.5235819 1.143508,0.6709711 1.974653,1.7686562 2.309515,3.0516773 z"
     id="path_1" />
  <path
     style="fill:url(#linearGradient3983);stroke:url(#linearGradient3975);stroke-width:2;stroke-linecap:round;stroke-linejoin:round;fill-opacity:1"
     inkscape:connector-curvature="0"
     d="m 16.757607,18.902763 c 6.773113,-1.76775 9.380785,-7.615831 6.897983,-13.1688209 8.793399,5.9729499 6.270838,20.0668029 -4.372625,22.8446959 m -6.100617,-3.575259 c -0.334862,-1.283021 -0.146169,-2.646879 0.523582,-3.791102 0.670971,-1.143508 1.768656,-1.974652 3.051677,-2.309514 1.283021,-0.334863 2.646879,-0.146169 3.791102,0.523582 1.143508,0.670971 1.974652,1.768656 2.309515,3.051677 0.334862,1.283021 0.146169,2.646879 -0.523582,3.791102 -0.670971,1.143508 -1.768656,1.974652 -3.051677,2.309514 -1.283022,0.334863 -2.646879,0.14617 -3.791102,-0.523581 C 14.348355,27.384085 13.51721,26.2864 13.182348,25.003379 Z"
     id="path_2" />
</svg>
