<?xml version="1.0" encoding="UTF-8" standalone="no"?>
<svg
        xmlns:dc="http://purl.org/dc/elements/1.1/"
        xmlns:cc="http://creativecommons.org/ns#"
        xmlns:rdf="http://www.w3.org/1999/02/22-rdf-syntax-ns#"
        xmlns="http://www.w3.org/2000/svg"
        xmlns:xlink="http://www.w3.org/1999/xlink"
        xmlns:sodipodi="http://sodipodi.sourceforge.net/DTD/sodipodi-0.dtd"
        xmlns:inkscape="http://www.inkscape.org/namespaces/inkscape"
        viewBox="0 0 32 32"
        id="vector"
        width="32px"
        height="32px"
        version="1.1"
        sodipodi:docname="frame43.svg"
        inkscape:version="0.92.4 (5da689c313, 2019-01-14)"
        inkscape:export-filename="D:\IdeaProjects\donim\icons\30fps\frame43.png"
        inkscape:export-xdpi="48"
        inkscape:export-ydpi="48">
  <metadata
     id="metadata10">
    <rdf:RDF>
      <cc:Work
         rdf:about="">
        <dc:format>image/svg+xml</dc:format>
        <dc:type
           rdf:resource="http://purl.org/dc/dcmitype/StillImage" />
      </cc:Work>
    </rdf:RDF>
  </metadata>
  <defs
     id="defs8">
    <linearGradient
       inkscape:collect="always"
       id="linearGradient3957">
      <stop
         style="stop-color:#003878;stop-opacity:1"
         offset="0"
         id="stop3953" />
      <stop
         style="stop-color:#1985ff;stop-opacity:1"
         offset="1"
         id="stop3955" />
    </linearGradient>
    <linearGradient
       inkscape:collect="always"
       xlink:href="#linearGradient3957"
       id="linearGradient3961"
       x1="9.2378941"
       y1="26.875381"
       x2="18.047956"
       y2="6.7909894"
       gradientUnits="userSpaceOnUse" />
    <linearGradient
       inkscape:collect="always"
       xlink:href="#linearGradient3957"
       id="linearGradient3969"
       x1="9.2378941"
       y1="26.875381"
       x2="18.047956"
       y2="6.7909894"
       gradientUnits="userSpaceOnUse" />
    <linearGradient
       inkscape:collect="always"
       xlink:href="#linearGradient3957"
       id="linearGradient3977"
       x1="22.762106"
       y1="5.1246185"
       x2="13.952044"
       y2="25.209011"
       gradientUnits="userSpaceOnUse" />
    <linearGradient
       inkscape:collect="always"
       xlink:href="#linearGradient3957"
       id="linearGradient3985"
       x1="22.762106"
       y1="5.1246185"
       x2="13.952044"
       y2="25.209011"
       gradientUnits="userSpaceOnUse" />
  </defs>
  <sodipodi:namedview
     pagecolor="#ffffff"
     bordercolor="#666666"
     borderopacity="1"
     objecttolerance="10"
     gridtolerance="10"
     guidetolerance="10"
     inkscape:pageopacity="0"
     inkscape:pageshadow="2"
     inkscape:window-width="640"
     inkscape:window-height="480"
     id="namedview6"
     showgrid="false"
     inkscape:zoom="10.40625"
     inkscape:cx="-13.981982"
     inkscape:cy="16"
     inkscape:current-layer="vector" />
  <path
     style="fill:url(#linearGradient3961);stroke:url(#linearGradient3969);stroke-width:2;stroke-linecap:round;stroke-linejoin:round;fill-opacity:1"
     inkscape:connector-curvature="0"
     d="M 15.000177,13.17151 C 8.4003678,15.504429 6.2954189,21.551676 9.2378939,26.875381 -0.02810919,21.665661 1.2963062,7.4092266 11.667436,3.7432106 m 6.38052,3.0477789 c 0.441922,1.2501925 0.368975,2.6251077 -0.201845,3.8217605 -0.572097,1.196042 -1.595741,2.116839 -2.845934,2.55876 -1.250192,0.441922 -2.625107,0.368975 -3.82176,-0.201845 C 9.9823745,12.397568 9.0615783,11.373924 8.6196568,10.123731 8.1777352,8.8735388 8.2506818,7.4986236 8.8215023,6.3019712 9.3935989,5.1059283 10.417243,4.1851322 11.667436,3.7432106 c 1.250192,-0.4419215 2.625107,-0.3689749 3.82176,0.2018456 1.196043,0.5720965 2.116839,1.5957408 2.55876,2.8459333 z"
     id="path_1" />
  <path
     style="fill:url(#linearGradient3985);stroke:url(#linearGradient3977);stroke-width:2;stroke-linecap:round;stroke-linejoin:round;fill-opacity:1"
     inkscape:connector-curvature="0"
     d="m 16.999823,18.82849 c 6.599809,-2.332919 8.704758,-8.380166 5.762283,-13.7038714 9.266003,5.2097204 7.941588,19.4661544 -2.429542,23.1321704 m -6.38052,-3.047778 c -0.441922,-1.250193 -0.368975,-2.625108 0.201845,-3.821761 0.572097,-1.196042 1.595741,-2.116839 2.845934,-2.55876 1.250192,-0.441922 2.625107,-0.368975 3.82176,0.201845 1.196043,0.572097 2.116839,1.595741 2.55876,2.845934 0.441922,1.250192 0.368975,2.625107 -0.201845,3.82176 -0.572097,1.196043 -1.595741,2.116839 -2.845934,2.55876 -1.250192,0.441922 -2.625107,0.368975 -3.82176,-0.201845 -1.196043,-0.572097 -2.116839,-1.595741 -2.55876,-2.845933 z"
     id="path_2" />
</svg>
