<?xml version="1.0" encoding="UTF-8" standalone="no"?>
<svg
        xmlns:dc="http://purl.org/dc/elements/1.1/"
        xmlns:cc="http://creativecommons.org/ns#"
        xmlns:rdf="http://www.w3.org/1999/02/22-rdf-syntax-ns#"
        xmlns="http://www.w3.org/2000/svg"
        xmlns:xlink="http://www.w3.org/1999/xlink"
        xmlns:sodipodi="http://sodipodi.sourceforge.net/DTD/sodipodi-0.dtd"
        xmlns:inkscape="http://www.inkscape.org/namespaces/inkscape"
        viewBox="0 0 32 32"
        id="vector"
        width="32px"
        height="32px"
        version="1.1"
        sodipodi:docname="frame02.svg"
        inkscape:version="0.92.4 (5da689c313, 2019-01-14)">
  <metadata
     id="metadata10">
    <rdf:RDF>
      <cc:Work
         rdf:about="">
        <dc:format>image/svg+xml</dc:format>
        <dc:type
           rdf:resource="http://purl.org/dc/dcmitype/StillImage" />
      </cc:Work>
    </rdf:RDF>
  </metadata>
  <defs
     id="defs8">
    <linearGradient
       inkscape:collect="always"
       id="linearGradient3957">
      <stop
         style="stop-color:#003878;stop-opacity:1"
         offset="0"
         id="stop3953" />
      <stop
         style="stop-color:#1986ff;stop-opacity:1"
         offset="1"
         id="stop3955" />
    </linearGradient>
    <linearGradient
       inkscape:collect="always"
       xlink:href="#linearGradient3957"
       id="linearGradient3959"
       x1="5.8767838"
       y1="23.8435"
       x2="21.123821"
       y2="8.0787334"
       gradientUnits="userSpaceOnUse" />
    <linearGradient
       inkscape:collect="always"
       xlink:href="#linearGradient3957"
       id="linearGradient3967"
       x1="5.8767838"
       y1="23.8435"
       x2="21.123821"
       y2="8.0787334"
       gradientUnits="userSpaceOnUse" />
    <linearGradient
       inkscape:collect="always"
       xlink:href="#linearGradient3957"
       id="linearGradient3975"
       x1="26.123217"
       y1="8.1564999"
       x2="10.876179"
       y2="23.921267"
       gradientUnits="userSpaceOnUse" />
    <linearGradient
       inkscape:collect="always"
       xlink:href="#linearGradient3957"
       id="linearGradient3983"
       x1="26.123217"
       y1="8.1564999"
       x2="10.876179"
       y2="23.921267"
       gradientUnits="userSpaceOnUse" />
  </defs>
  <sodipodi:namedview
     pagecolor="#ffffff"
     bordercolor="#666666"
     borderopacity="1"
     objecttolerance="10"
     gridtolerance="10"
     guidetolerance="10"
     inkscape:pageopacity="0"
     inkscape:pageshadow="2"
     inkscape:window-width="640"
     inkscape:window-height="480"
     id="namedview6"
     showgrid="false"
     inkscape:zoom="10.40625"
     inkscape:cx="0.38438438"
     inkscape:cy="16"
     inkscape:current-layer="vector" />
  <path
     style="fill:url(#linearGradient3959);stroke:url(#linearGradient3967);stroke-width:2;stroke-linecap:round;stroke-linejoin:round;fill-opacity:1"
     inkscape:connector-curvature="0"
     d="M 16.04666,13.000363 C 9.0475063,12.89149 4.9702241,17.828673 5.876784,23.8435 -0.99794371,15.735596 5.2035221,2.8304873 16.202192,3.0015725 m 4.921629,5.0771612 c -0.02062,1.3258396 -0.567344,2.5894893 -1.518819,3.5128023 -0.95246,0.922298 -2.232503,1.42945 -3.558342,1.408827 -1.32584,-0.02062 -2.58949,-0.567344 -3.512803,-1.518819 -0.922298,-0.95246 -1.42945,-2.2325027 -1.408827,-3.5583423 0.02062,-1.3258396 0.567344,-2.5894892 1.518819,-3.5128024 0.95246,-0.9222978 2.232503,-1.4294504 3.558343,-1.4088268 1.325839,0.020624 2.589489,0.5673434 3.512802,1.518819 0.922298,0.9524599 1.42945,2.2325026 1.408827,3.5583422 z"
     id="path_1" />
  <path
     style="fill:url(#linearGradient3983);stroke:url(#linearGradient3975);stroke-width:2;stroke-linecap:round;stroke-linejoin:round;fill-opacity:1"
     inkscape:connector-curvature="0"
     d="M 15.95334,18.999637 C 22.952494,19.10851 27.029776,14.171327 26.123216,8.1564997 32.997944,16.264404 26.796478,29.169513 15.797808,28.998428 m -4.921629,-5.077162 c 0.02062,-1.325839 0.567344,-2.589489 1.518819,-3.512802 0.95246,-0.922298 2.232503,-1.42945 3.558342,-1.408827 1.32584,0.02062 2.58949,0.567344 3.512803,1.518819 0.922298,0.95246 1.42945,2.232503 1.408827,3.558342 -0.02062,1.32584 -0.567344,2.58949 -1.518819,3.512803 -0.95246,0.922297 -2.232503,1.42945 -3.558343,1.408827 -1.325839,-0.02062 -2.589489,-0.567344 -3.512802,-1.518819 -0.922298,-0.95246 -1.42945,-2.232503 -1.408827,-3.558343 z"
     id="path_2" />
</svg>
