<?xml version="1.0" encoding="UTF-8" standalone="no"?>
<svg
        xmlns:dc="http://purl.org/dc/elements/1.1/"
        xmlns:cc="http://creativecommons.org/ns#"
        xmlns:rdf="http://www.w3.org/1999/02/22-rdf-syntax-ns#"
        xmlns="http://www.w3.org/2000/svg"
        xmlns:xlink="http://www.w3.org/1999/xlink"
        xmlns:sodipodi="http://sodipodi.sourceforge.net/DTD/sodipodi-0.dtd"
        xmlns:inkscape="http://www.inkscape.org/namespaces/inkscape"
        viewBox="0 0 32 32"
        id="vector"
        width="32px"
        height="32px"
        version="1.1"
        sodipodi:docname="frame30.svg"
        inkscape:version="0.92.4 (5da689c313, 2019-01-14)"
        inkscape:export-filename="D:\IdeaProjects\donim\icons\30fps\frame30.png"
        inkscape:export-xdpi="48"
        inkscape:export-ydpi="48">
  <metadata
     id="metadata10">
    <rdf:RDF>
      <cc:Work
         rdf:about="">
        <dc:format>image/svg+xml</dc:format>
        <dc:type
           rdf:resource="http://purl.org/dc/dcmitype/StillImage" />
      </cc:Work>
    </rdf:RDF>
  </metadata>
  <defs
     id="defs8">
    <linearGradient
       inkscape:collect="always"
       id="linearGradient3957">
      <stop
         style="stop-color:#003878;stop-opacity:1"
         offset="0"
         id="stop3953" />
      <stop
         style="stop-color:#1985ff;stop-opacity:1"
         offset="1"
         id="stop3955" />
    </linearGradient>
    <linearGradient
       inkscape:collect="always"
       xlink:href="#linearGradient3957"
       id="linearGradient3959"
       x1="9.7021246"
       y1="4.84936"
       x2="23.09746"
       y2="22.214987"
       gradientUnits="userSpaceOnUse" />
    <linearGradient
       inkscape:collect="always"
       xlink:href="#linearGradient3957"
       id="linearGradient3967"
       x1="9.7021246"
       y1="4.84936"
       x2="23.09746"
       y2="22.214987"
       gradientUnits="userSpaceOnUse" />
    <linearGradient
       inkscape:collect="always"
       xlink:href="#linearGradient3957"
       id="linearGradient3975"
       x1="22.297874"
       y1="27.15064"
       x2="8.9025402"
       y2="9.7850122"
       gradientUnits="userSpaceOnUse" />
    <linearGradient
       inkscape:collect="always"
       xlink:href="#linearGradient3957"
       id="linearGradient3983"
       x1="22.297874"
       y1="27.15064"
       x2="8.9025402"
       y2="9.7850122"
       gradientUnits="userSpaceOnUse" />
  </defs>
  <sodipodi:namedview
     pagecolor="#ffffff"
     bordercolor="#666666"
     borderopacity="1"
     objecttolerance="10"
     gridtolerance="10"
     guidetolerance="10"
     inkscape:pageopacity="0"
     inkscape:pageshadow="2"
     inkscape:window-width="640"
     inkscape:window-height="480"
     id="namedview6"
     showgrid="false"
     inkscape:zoom="10.40625"
     inkscape:cx="-13.981982"
     inkscape:cy="16"
     inkscape:current-layer="vector" />
  <path
     style="fill:url(#linearGradient3983);stroke:url(#linearGradient3975);stroke-width:2;stroke-linecap:round;stroke-linejoin:round;fill-opacity:1"
     inkscape:connector-curvature="0"
     d="M 13.038609,15.520249 C 11.91919,22.430163 16.215175,27.178269 22.297875,27.15064 13.281413,32.781218 1.408218,24.779516 3.1673037,13.92108 M 8.9025406,9.7850125 c 1.3089354,0.2120498 2.4802884,0.9356815 3.2563754,2.0106255 0.774939,1.07577 1.091742,2.415676 0.879693,3.724611 -0.21205,1.308935 -0.935682,2.480289 -2.010626,3.256375 -1.0757701,0.77494 -2.4156763,1.091743 -3.7246113,0.879693 C 5.9944367,19.444268 4.8230829,18.720635 4.0469966,17.645692 3.2720574,16.569922 2.9552539,15.230016 3.1673037,13.92108 3.3793535,12.612145 4.1029856,11.440792 5.1779289,10.664705 6.2536994,9.8897662 7.5936055,9.5729627 8.9025406,9.7850125 Z"
     id="path_1" />
  <path
     style="fill:url(#linearGradient3959);stroke:url(#linearGradient3967);stroke-width:2;stroke-linecap:round;stroke-linejoin:round;fill-opacity:1"
     inkscape:connector-curvature="0"
     d="M 18.961391,16.479751 C 20.08081,9.5698373 15.784825,4.8217309 9.702125,4.8493601 18.718587,-0.7812182 30.591782,7.2204842 28.832696,18.07892 m -5.735237,4.136067 c -1.308935,-0.212049 -2.480288,-0.935681 -3.256375,-2.010625 -0.774939,-1.07577 -1.091742,-2.415676 -0.879693,-3.724611 0.21205,-1.308935 0.935682,-2.480289 2.010626,-3.256375 1.07577,-0.77494 2.415676,-1.091743 3.724611,-0.879693 1.308935,0.212049 2.480289,0.935682 3.256375,2.010625 0.77494,1.07577 1.091743,2.415676 0.879693,3.724612 -0.21205,1.308935 -0.935682,2.480288 -2.010625,3.256375 -1.07577,0.774939 -2.415677,1.091742 -3.724612,0.879692 z"
     id="path_2" />
</svg>
