<?xml version="1.0" encoding="UTF-8" standalone="no"?>
<svg
        xmlns:dc="http://purl.org/dc/elements/1.1/"
        xmlns:cc="http://creativecommons.org/ns#"
        xmlns:rdf="http://www.w3.org/1999/02/22-rdf-syntax-ns#"
        xmlns="http://www.w3.org/2000/svg"
        xmlns:xlink="http://www.w3.org/1999/xlink"
        xmlns:sodipodi="http://sodipodi.sourceforge.net/DTD/sodipodi-0.dtd"
        xmlns:inkscape="http://www.inkscape.org/namespaces/inkscape"
        viewBox="0 0 32 32"
        id="vector"
        width="32px"
        height="32px"
        version="1.1"
        sodipodi:docname="frame05.svg"
        inkscape:version="0.92.4 (5da689c313, 2019-01-14)">
  <metadata
     id="metadata10">
    <rdf:RDF>
      <cc:Work
         rdf:about="">
        <dc:format>image/svg+xml</dc:format>
        <dc:type
           rdf:resource="http://purl.org/dc/dcmitype/StillImage" />
      </cc:Work>
    </rdf:RDF>
  </metadata>
  <defs
     id="defs8">
    <linearGradient
       inkscape:collect="always"
       id="linearGradient3957">
      <stop
         style="stop-color:#003878;stop-opacity:1"
         offset="0"
         id="stop3953" />
      <stop
         style="stop-color:#1985ff;stop-opacity:1"
         offset="1"
         id="stop3955" />
    </linearGradient>
    <linearGradient
       inkscape:collect="always"
       xlink:href="#linearGradient3957"
       id="linearGradient3959"
       x1="5.1924801"
       y1="22.870045"
       x2="21.836924"
       y2="8.588501"
       gradientUnits="userSpaceOnUse" />
    <linearGradient
       inkscape:collect="always"
       xlink:href="#linearGradient3957"
       id="linearGradient3967"
       x1="5.1924801"
       y1="22.870045"
       x2="21.836924"
       y2="8.588501"
       gradientUnits="userSpaceOnUse" />
    <linearGradient
       inkscape:collect="always"
       xlink:href="#linearGradient3957"
       id="linearGradient3975"
       x1="26.80752"
       y1="9.1299553"
       x2="10.163076"
       y2="23.411499"
       gradientUnits="userSpaceOnUse" />
    <linearGradient
       inkscape:collect="always"
       xlink:href="#linearGradient3957"
       id="linearGradient3983"
       x1="26.80752"
       y1="9.1299553"
       x2="10.163076"
       y2="23.411499"
       gradientUnits="userSpaceOnUse" />
  </defs>
  <sodipodi:namedview
     pagecolor="#ffffff"
     bordercolor="#666666"
     borderopacity="1"
     objecttolerance="10"
     gridtolerance="10"
     guidetolerance="10"
     inkscape:pageopacity="0"
     inkscape:pageshadow="2"
     inkscape:window-width="640"
     inkscape:window-height="480"
     id="namedview6"
     showgrid="false"
     inkscape:zoom="10.40625"
     inkscape:cx="0.38438438"
     inkscape:cy="16"
     inkscape:current-layer="vector" />
  <path
     style="fill:url(#linearGradient3959);stroke:url(#linearGradient3967);stroke-width:2;stroke-linecap:round;stroke-linejoin:round;fill-opacity:1"
     inkscape:connector-curvature="0"
     d="M 16.324873,13.017642 C 9.3660382,12.259606 4.8481064,16.797038 5.1924799,22.870044 -0.90002712,14.159054 6.4724708,1.8852493 17.407783,3.0764499 m 4.429141,5.512051 C 21.69333,9.906703 21.031683,11.114153 19.998616,11.945169 18.964664,12.775081 17.643075,13.161236 16.324873,13.017642 15.006671,12.874048 13.79922,12.212402 12.968205,11.179335 12.138292,10.145382 11.752138,8.8237934 11.895731,7.5055913 12.039325,6.1873891 12.700972,4.9799388 13.734039,4.1489236 14.767991,3.3190108 16.08958,2.932856 17.407783,3.0764499 c 1.318202,0.1435938 2.525652,0.8052407 3.356667,1.8383074 0.829913,1.0339524 1.216068,2.3555415 1.072474,3.6737436 z"
     id="path_1" />
  <path
     style="fill:url(#linearGradient3983);stroke:url(#linearGradient3975);stroke-width:2;stroke-linecap:round;stroke-linejoin:round;fill-opacity:1"
     inkscape:connector-curvature="0"
     d="M 15.675127,18.982358 C 22.633962,19.740394 27.151894,15.202962 26.80752,9.1299557 32.900027,17.840946 25.527529,30.114751 14.592217,28.92355 m -4.429141,-5.512051 c 0.143594,-1.318202 0.805241,-2.525652 1.838308,-3.356668 1.033952,-0.829912 2.355541,-1.216067 3.673743,-1.072473 1.318202,0.143594 2.525653,0.80524 3.356668,1.838307 0.829913,1.033953 1.216067,2.355542 1.072474,3.673744 -0.143594,1.318202 -0.805241,2.525652 -1.838308,3.356667 -1.033952,0.829913 -2.355541,1.216068 -3.673744,1.072474 -1.318202,-0.143594 -2.525652,-0.805241 -3.356667,-1.838307 -0.829913,-1.033953 -1.216068,-2.355542 -1.072474,-3.673744 z"
     id="path_2" />
</svg>
