<?xml version="1.0" encoding="UTF-8" standalone="no"?>
<svg
        xmlns:dc="http://purl.org/dc/elements/1.1/"
        xmlns:cc="http://creativecommons.org/ns#"
        xmlns:rdf="http://www.w3.org/1999/02/22-rdf-syntax-ns#"
        xmlns="http://www.w3.org/2000/svg"
        xmlns:xlink="http://www.w3.org/1999/xlink"
        xmlns:sodipodi="http://sodipodi.sourceforge.net/DTD/sodipodi-0.dtd"
        xmlns:inkscape="http://www.inkscape.org/namespaces/inkscape"
        viewBox="0 0 32 32"
        id="vector"
        width="32px"
        height="32px"
        version="1.1"
        sodipodi:docname="frame18.svg"
        inkscape:version="0.92.4 (5da689c313, 2019-01-14)"
        inkscape:export-filename="D:\IdeaProjects\donim\icons\30fps\frame18.png"
        inkscape:export-xdpi="48"
        inkscape:export-ydpi="48">
  <metadata
     id="metadata10">
    <rdf:RDF>
      <cc:Work
         rdf:about="">
        <dc:format>image/svg+xml</dc:format>
        <dc:type
           rdf:resource="http://purl.org/dc/dcmitype/StillImage" />
      </cc:Work>
    </rdf:RDF>
  </metadata>
  <defs
     id="defs8">
    <linearGradient
       inkscape:collect="always"
       id="linearGradient3957">
      <stop
         style="stop-color:#003878;stop-opacity:1"
         offset="0"
         id="stop3953" />
      <stop
         style="stop-color:#1985ff;stop-opacity:1"
         offset="1"
         id="stop3955" />
    </linearGradient>
    <linearGradient
       inkscape:collect="always"
       xlink:href="#linearGradient3957"
       id="linearGradient3959"
       x1="16.796671"
       y1="3.2185557"
       x2="18.563643"
       y2="25.078972"
       gradientUnits="userSpaceOnUse" />
    <linearGradient
       inkscape:collect="always"
       xlink:href="#linearGradient3957"
       id="linearGradient3967"
       x1="16.796671"
       y1="3.2185557"
       x2="18.563643"
       y2="25.078972"
       gradientUnits="userSpaceOnUse" />
    <linearGradient
       inkscape:collect="always"
       xlink:href="#linearGradient3957"
       id="linearGradient3975"
       x1="15.20333"
       y1="28.781445"
       x2="13.436357"
       y2="6.9210281"
       gradientUnits="userSpaceOnUse" />
    <linearGradient
       inkscape:collect="always"
       xlink:href="#linearGradient3957"
       id="linearGradient3983"
       x1="15.20333"
       y1="28.781445"
       x2="13.436357"
       y2="6.9210281"
       gradientUnits="userSpaceOnUse" />
  </defs>
  <sodipodi:namedview
     pagecolor="#ffffff"
     bordercolor="#666666"
     borderopacity="1"
     objecttolerance="10"
     gridtolerance="10"
     guidetolerance="10"
     inkscape:pageopacity="0"
     inkscape:pageshadow="2"
     inkscape:window-width="640"
     inkscape:window-height="480"
     id="namedview6"
     showgrid="false"
     inkscape:zoom="10.40625"
     inkscape:cx="-13.981982"
     inkscape:cy="16"
     inkscape:current-layer="vector" />
  <path
     style="fill:url(#linearGradient3959);stroke:url(#linearGradient3967);stroke-width:2;stroke-linecap:round;stroke-linejoin:round;fill-opacity:1"
     inkscape:connector-curvature="0"
     d="M 18.221483,18.016188 C 22.925921,12.832727 21.911699,6.5104363 16.79667,3.2185557 27.425063,3.4115948 33.019115,16.591374 25.626428,24.736813 m -7.062785,0.342159 c -0.981896,-0.891155 -1.569628,-2.136259 -1.634489,-3.460497 -0.06345,-1.324306 0.401174,-2.620392 1.292329,-3.602287 0.891155,-0.981896 2.136259,-1.569628 3.460497,-1.634489 1.324306,-0.06345 2.620392,0.401174 3.602288,1.292329 0.981896,0.891155 1.569627,2.136259 1.634489,3.460497 0.06345,1.324306 -0.401175,2.620392 -1.292329,3.602288 -0.891155,0.981895 -2.136259,1.569627 -3.460497,1.634488 -1.324307,0.06345 -2.620393,-0.401174 -3.602288,-1.292329 z"
     id="path_1" />
  <path
     style="fill:url(#linearGradient3983);stroke:url(#linearGradient3975);stroke-width:2;stroke-linecap:round;stroke-linejoin:round;fill-opacity:1"
     inkscape:connector-curvature="0"
     d="M 13.778517,13.983812 C 9.0740792,19.167273 10.088301,25.489564 15.20333,28.781444 4.5749375,28.588405 -1.019115,15.408626 6.3735725,7.2631875 M 13.436357,6.9210279 c 0.981896,0.8911548 1.569628,2.1362589 1.634489,3.4604971 0.06345,1.324306 -0.401174,2.620392 -1.292329,3.602287 -0.891155,0.981896 -2.136259,1.569628 -3.460497,1.634489 C 8.9937135,15.68175 7.6976277,15.217127 6.7157321,14.325972 5.7338365,13.434817 5.1461045,12.189713 5.0812433,10.865475 5.0177947,9.5411689 5.4824176,8.2450831 6.3735725,7.2631875 7.2647274,6.2812919 8.5098314,5.6935599 9.8340693,5.6286987 11.158376,5.56525 12.454462,6.029873 13.436357,6.9210279 Z"
     id="path_2" />
</svg>
