<?xml version="1.0" encoding="UTF-8" standalone="no"?>
<svg
        xmlns:dc="http://purl.org/dc/elements/1.1/"
        xmlns:cc="http://creativecommons.org/ns#"
        xmlns:rdf="http://www.w3.org/1999/02/22-rdf-syntax-ns#"
        xmlns="http://www.w3.org/2000/svg"
        xmlns:xlink="http://www.w3.org/1999/xlink"
        xmlns:sodipodi="http://sodipodi.sourceforge.net/DTD/sodipodi-0.dtd"
        xmlns:inkscape="http://www.inkscape.org/namespaces/inkscape"
        viewBox="0 0 32 32"
        id="vector"
        width="32px"
        height="32px"
        version="1.1"
        sodipodi:docname="frame54.svg"
        inkscape:version="0.92.4 (5da689c313, 2019-01-14)"
        inkscape:export-filename="D:\IdeaProjects\donim\icons\30fps\frame54.png"
        inkscape:export-xdpi="48"
        inkscape:export-ydpi="48">
  <metadata
     id="metadata10">
    <rdf:RDF>
      <cc:Work
         rdf:about="">
        <dc:format>image/svg+xml</dc:format>
        <dc:type
           rdf:resource="http://purl.org/dc/dcmitype/StillImage" />
      </cc:Work>
    </rdf:RDF>
  </metadata>
  <defs
     id="defs8">
    <linearGradient
       inkscape:collect="always"
       id="linearGradient3957">
      <stop
         style="stop-color:#003878;stop-opacity:1"
         offset="0"
         id="stop3953" />
      <stop
         style="stop-color:#1985ff;stop-opacity:1"
         offset="1"
         id="stop3955" />
    </linearGradient>
    <linearGradient
       inkscape:collect="always"
       xlink:href="#linearGradient3957"
       id="linearGradient3959"
       x1="6.2900348"
       y1="24.349646"
       x2="20.713112"
       y2="7.8276939"
       gradientUnits="userSpaceOnUse" />
    <linearGradient
       inkscape:collect="always"
       xlink:href="#linearGradient3957"
       id="linearGradient3967"
       x1="6.2900348"
       y1="24.349646"
       x2="20.713112"
       y2="7.8276939"
       gradientUnits="userSpaceOnUse" />
    <linearGradient
       inkscape:collect="always"
       xlink:href="#linearGradient3957"
       id="linearGradient3975"
       x1="25.709965"
       y1="7.6503549"
       x2="11.286889"
       y2="24.172306"
       gradientUnits="userSpaceOnUse" />
    <linearGradient
       inkscape:collect="always"
       xlink:href="#linearGradient3957"
       id="linearGradient3983"
       x1="25.709965"
       y1="7.6503549"
       x2="11.286889"
       y2="24.172306"
       gradientUnits="userSpaceOnUse" />
  </defs>
  <sodipodi:namedview
     pagecolor="#ffffff"
     bordercolor="#666666"
     borderopacity="1"
     objecttolerance="10"
     gridtolerance="10"
     guidetolerance="10"
     inkscape:pageopacity="0"
     inkscape:pageshadow="2"
     inkscape:window-width="640"
     inkscape:window-height="480"
     id="namedview6"
     showgrid="false"
     inkscape:zoom="10.40625"
     inkscape:cx="-13.981982"
     inkscape:cy="16"
     inkscape:current-layer="vector" />
  <path
     style="fill:url(#linearGradient3959);stroke:url(#linearGradient3967);stroke-width:2;stroke-linecap:round;stroke-linejoin:round;fill-opacity:1"
     inkscape:connector-curvature="0"
     d="M 15.893596,13.001888 C 8.8980007,13.250163 5.0778568,18.388888 6.2900348,24.349645 -0.98930389,16.602954 4.5458387,3.398326 15.538918,3.0081794 m 5.174193,4.8195147 c 0.04703,1.3251657 -0.434523,2.6150569 -1.337664,3.5856999 -0.904177,0.96968 -2.156685,1.541463 -3.481851,1.588494 -1.325165,0.04703 -2.615057,-0.434523 -3.5857,-1.337665 -0.969679,-0.904176 -1.541463,-2.1566845 -1.588493,-3.4818502 -0.04703,-1.3251657 0.434523,-2.6150569 1.337664,-3.5857001 0.904177,-0.9696794 2.156685,-1.5414629 3.481851,-1.5884933 1.325165,-0.04703 2.615057,0.4345229 3.5857,1.3376645 0.969679,0.9041764 1.541463,2.1566845 1.588493,3.4818502 z"
     id="path_1" />
  <path
     style="fill:url(#linearGradient3983);stroke:url(#linearGradient3975);stroke-width:2;stroke-linecap:round;stroke-linejoin:round;fill-opacity:1"
     inkscape:connector-curvature="0"
     d="m 16.106404,18.998112 c 6.995595,-0.248275 10.815739,-5.387 9.603561,-11.3477573 7.279339,7.7466913 1.744196,20.9513193 -9.248883,21.3414663 m -5.174193,-4.819515 c -0.04703,-1.325166 0.434523,-2.615057 1.337664,-3.5857 0.904177,-0.96968 2.156685,-1.541463 3.481851,-1.588494 1.325165,-0.04703 2.615057,0.434523 3.5857,1.337665 0.969679,0.904176 1.541463,2.156684 1.588493,3.48185 0.04703,1.325166 -0.434523,2.615057 -1.337664,3.5857 -0.904177,0.96968 -2.156685,1.541463 -3.481851,1.588494 -1.325165,0.04703 -2.615057,-0.434523 -3.5857,-1.337665 -0.969679,-0.904176 -1.541463,-2.156684 -1.588493,-3.48185 z"
     id="path_2" />
</svg>
