<?xml version="1.0" encoding="UTF-8" standalone="no"?>
<svg
        xmlns:dc="http://purl.org/dc/elements/1.1/"
        xmlns:cc="http://creativecommons.org/ns#"
        xmlns:rdf="http://www.w3.org/1999/02/22-rdf-syntax-ns#"
        xmlns="http://www.w3.org/2000/svg"
        xmlns:xlink="http://www.w3.org/1999/xlink"
        xmlns:sodipodi="http://sodipodi.sourceforge.net/DTD/sodipodi-0.dtd"
        xmlns:inkscape="http://www.inkscape.org/namespaces/inkscape"
        viewBox="0 0 32 32"
        id="vector"
        width="32px"
        height="32px"
        version="1.1"
        sodipodi:docname="frame49.svg"
        inkscape:version="0.92.4 (5da689c313, 2019-01-14)"
        inkscape:export-filename="D:\IdeaProjects\donim\icons\30fps\frame49.png"
        inkscape:export-xdpi="48"
        inkscape:export-ydpi="48">
  <metadata
     id="metadata10">
    <rdf:RDF>
      <cc:Work
         rdf:about="">
        <dc:format>image/svg+xml</dc:format>
        <dc:type
           rdf:resource="http://purl.org/dc/dcmitype/StillImage" />
      </cc:Work>
    </rdf:RDF>
  </metadata>
  <defs
     id="defs8">
    <linearGradient
       inkscape:collect="always"
       id="linearGradient3957">
      <stop
         style="stop-color:#003878;stop-opacity:1"
         offset="0"
         id="stop3953" />
      <stop
         style="stop-color:#1985ff;stop-opacity:1"
         offset="1"
         id="stop3955" />
    </linearGradient>
    <linearGradient
       inkscape:collect="always"
       xlink:href="#linearGradient3957"
       id="linearGradient3959"
       x1="7.1077123"
       y1="25.215597"
       x2="19.933517"
       y2="7.4251857"
       gradientUnits="userSpaceOnUse" />
    <linearGradient
       inkscape:collect="always"
       xlink:href="#linearGradient3957"
       id="linearGradient3967"
       x1="7.1077123"
       y1="25.215597"
       x2="19.933517"
       y2="7.4251857"
       gradientUnits="userSpaceOnUse" />
    <linearGradient
       inkscape:collect="always"
       xlink:href="#linearGradient3957"
       id="linearGradient3975"
       x1="24.892288"
       y1="6.7844033"
       x2="12.066482"
       y2="24.574814"
       gradientUnits="userSpaceOnUse" />
    <linearGradient
       inkscape:collect="always"
       xlink:href="#linearGradient3957"
       id="linearGradient3983"
       x1="24.892288"
       y1="6.7844033"
       x2="12.066482"
       y2="24.574814"
       gradientUnits="userSpaceOnUse" />
  </defs>
  <sodipodi:namedview
     pagecolor="#ffffff"
     bordercolor="#666666"
     borderopacity="1"
     objecttolerance="10"
     gridtolerance="10"
     guidetolerance="10"
     inkscape:pageopacity="0"
     inkscape:pageshadow="2"
     inkscape:window-width="640"
     inkscape:window-height="480"
     id="namedview6"
     showgrid="false"
     inkscape:zoom="10.40625"
     inkscape:cx="-13.981982"
     inkscape:cy="16"
     inkscape:current-layer="vector" />
  <path
     style="fill:url(#linearGradient3959);stroke:url(#linearGradient3967);stroke-width:2;stroke-linecap:round;stroke-linejoin:round;fill-opacity:1"
     inkscape:connector-curvature="0"
     d="M 15.615531,13.024738 C 8.6732528,13.921834 5.3470195,19.393229 7.1077124,25.215597 -0.85981728,18.17866 3.424672,4.51692 14.333966,3.1071986 m 5.599552,4.3179873 c 0.169935,1.3150657 -0.189704,2.6441151 -0.998767,3.6944631 -0.810182,1.049484 -2.004155,1.735154 -3.31922,1.905089 -1.315066,0.169936 -2.644116,-0.189704 -3.694464,-0.998766 C 10.871583,11.215789 10.185914,10.021817 10.015978,8.7067508 9.8460427,7.3916851 10.205682,6.0626356 11.014745,5.0122877 11.824927,3.9628035 13.0189,3.2771341 14.333966,3.1071986 c 1.315065,-0.1699356 2.644115,0.1897037 3.694463,0.9987664 1.049484,0.8101825 1.735153,2.0041551 1.905089,3.3192209 z"
     id="path_1" />
  <path
     style="fill:url(#linearGradient3983);stroke:url(#linearGradient3975);stroke-width:2;stroke-linecap:round;stroke-linejoin:round;fill-opacity:1"
     inkscape:connector-curvature="0"
     d="M 16.384469,18.975262 C 23.326747,18.078166 26.652981,12.606771 24.892288,6.7844034 32.859817,13.82134 28.575328,27.48308 17.666034,28.892801 m -5.599552,-4.317987 c -0.169935,-1.315066 0.189704,-2.644115 0.998767,-3.694463 0.810182,-1.049484 2.004155,-1.735154 3.31922,-1.905089 1.315066,-0.169936 2.644116,0.189704 3.694464,0.998766 1.049484,0.810183 1.735153,2.004155 1.905089,3.319221 0.169935,1.315066 -0.189704,2.644115 -0.998767,3.694463 -0.810182,1.049485 -2.004155,1.735154 -3.319221,1.905089 -1.315065,0.169936 -2.644115,-0.189703 -3.694463,-0.998766 -1.049484,-0.810183 -1.735153,-2.004155 -1.905089,-3.319221 z"
     id="path_2" />
</svg>
