<?xml version="1.0" encoding="UTF-8" standalone="no"?>
<svg
        xmlns:dc="http://purl.org/dc/elements/1.1/"
        xmlns:cc="http://creativecommons.org/ns#"
        xmlns:rdf="http://www.w3.org/1999/02/22-rdf-syntax-ns#"
        xmlns="http://www.w3.org/2000/svg"
        xmlns:xlink="http://www.w3.org/1999/xlink"
        xmlns:sodipodi="http://sodipodi.sourceforge.net/DTD/sodipodi-0.dtd"
        xmlns:inkscape="http://www.inkscape.org/namespaces/inkscape"
        viewBox="0 0 32 32"
        id="vector"
        width="32px"
        height="32px"
        version="1.1"
        sodipodi:docname="frame37.svg"
        inkscape:version="0.92.4 (5da689c313, 2019-01-14)"
        inkscape:export-filename="D:\IdeaProjects\donim\icons\30fps\frame37.png"
        inkscape:export-xdpi="48"
        inkscape:export-ydpi="48">
  <metadata
     id="metadata10">
    <rdf:RDF>
      <cc:Work
         rdf:about="">
        <dc:format>image/svg+xml</dc:format>
        <dc:type
           rdf:resource="http://purl.org/dc/dcmitype/StillImage" />
      </cc:Work>
    </rdf:RDF>
  </metadata>
  <defs
     id="defs8">
    <linearGradient
       inkscape:collect="always"
       id="linearGradient3957">
      <stop
         style="stop-color:#003878;stop-opacity:1"
         offset="0"
         id="stop3953" />
      <stop
         style="stop-color:#1985ff;stop-opacity:1"
         offset="1"
         id="stop3955" />
    </linearGradient>
    <linearGradient
       inkscape:collect="always"
       xlink:href="#linearGradient3957"
       id="linearGradient3959"
       x1="13.508659"
       y1="28.561577"
       x2="14.667987"
       y2="6.6605277"
       gradientUnits="userSpaceOnUse" />
    <linearGradient
       inkscape:collect="always"
       xlink:href="#linearGradient3957"
       id="linearGradient3967"
       x1="13.508659"
       y1="28.561577"
       x2="14.667987"
       y2="6.6605277"
       gradientUnits="userSpaceOnUse" />
    <linearGradient
       inkscape:collect="always"
       xlink:href="#linearGradient3957"
       id="linearGradient3975"
       x1="18.491341"
       y1="3.4384229"
       x2="17.332012"
       y2="25.339472"
       gradientUnits="userSpaceOnUse" />
    <linearGradient
       inkscape:collect="always"
       xlink:href="#linearGradient3957"
       id="linearGradient3983"
       x1="18.491341"
       y1="3.4384229"
       x2="17.332012"
       y2="25.339472"
       gradientUnits="userSpaceOnUse" />
  </defs>
  <sodipodi:namedview
     pagecolor="#ffffff"
     bordercolor="#666666"
     borderopacity="1"
     objecttolerance="10"
     gridtolerance="10"
     guidetolerance="10"
     inkscape:pageopacity="0"
     inkscape:pageshadow="2"
     inkscape:window-width="640"
     inkscape:window-height="480"
     id="namedview6"
     showgrid="false"
     inkscape:zoom="10.40625"
     inkscape:cx="-13.981982"
     inkscape:cy="16"
     inkscape:current-layer="vector" />
  <path
     style="fill:url(#linearGradient3959);stroke:url(#linearGradient3967);stroke-width:2;stroke-linecap:round;stroke-linejoin:round;fill-opacity:1"
     inkscape:connector-curvature="0"
     d="M 14.066737,13.705987 C 8.7140407,18.216934 8.877462,24.617973 13.508659,28.561577 3.0005946,26.955157 -0.78885278,13.147909 7.6225272,6.0592783 m 7.0454598,0.6012495 c 0.854502,1.0139537 1.271224,2.3262249 1.159194,3.6473082 -0.113439,1.320964 -0.74649,2.543649 -1.760444,3.398151 -1.013954,0.854503 -2.326225,1.271224 -3.647309,1.159195 C 9.0984649,14.751743 7.8757798,14.118691 7.0212776,13.104738 6.1667754,12.090784 5.7500534,10.778513 5.8620832,9.4574291 5.975522,8.1364655 6.6085735,6.9137805 7.6225272,6.0592783 8.6364808,5.204776 9.948752,4.7880541 11.269836,4.9000838 c 1.320963,0.1134389 2.543648,0.7464904 3.398151,1.760444 z"
     id="path_1" />
  <path
     style="fill:url(#linearGradient3983);stroke:url(#linearGradient3975);stroke-width:2;stroke-linecap:round;stroke-linejoin:round;fill-opacity:1"
     inkscape:connector-curvature="0"
     d="M 17.933263,18.294013 C 23.285959,13.783066 23.122538,7.3820273 18.491341,3.4384229 28.999405,5.0448432 32.788853,18.852091 24.377473,25.940722 m -7.04546,-0.60125 c -0.854502,-1.013953 -1.271224,-2.326225 -1.159194,-3.647308 0.113439,-1.320964 0.74649,-2.543649 1.760444,-3.398151 1.013954,-0.854503 2.326225,-1.271224 3.647309,-1.159195 1.320963,0.113439 2.543648,0.746491 3.39815,1.760444 0.854503,1.013954 1.271225,2.326225 1.159195,3.647309 -0.113439,1.320963 -0.746491,2.543649 -1.760444,3.398151 -1.013954,0.854502 -2.326225,1.271224 -3.647309,1.159194 -1.320963,-0.113439 -2.543648,-0.74649 -3.398151,-1.760444 z"
     id="path_2" />
</svg>
