<?xml version="1.0" encoding="UTF-8" standalone="no"?>
<svg
        xmlns:dc="http://purl.org/dc/elements/1.1/"
        xmlns:cc="http://creativecommons.org/ns#"
        xmlns:rdf="http://www.w3.org/1999/02/22-rdf-syntax-ns#"
        xmlns="http://www.w3.org/2000/svg"
        xmlns:xlink="http://www.w3.org/1999/xlink"
        xmlns:sodipodi="http://sodipodi.sourceforge.net/DTD/sodipodi-0.dtd"
        xmlns:inkscape="http://www.inkscape.org/namespaces/inkscape"
        viewBox="0 0 32 32"
        id="vector"
        width="32px"
        height="32px"
        version="1.1"
        sodipodi:docname="frame33.svg"
        inkscape:version="0.92.4 (5da689c313, 2019-01-14)"
        inkscape:export-filename="D:\IdeaProjects\donim\icons\30fps\frame33.png"
        inkscape:export-xdpi="48"
        inkscape:export-ydpi="48">
  <metadata
     id="metadata10">
    <rdf:RDF>
      <cc:Work
         rdf:about="">
        <dc:format>image/svg+xml</dc:format>
        <dc:type
           rdf:resource="http://purl.org/dc/dcmitype/StillImage" />
      </cc:Work>
    </rdf:RDF>
  </metadata>
  <defs
     id="defs8">
    <linearGradient
       inkscape:collect="always"
       id="linearGradient3957">
      <stop
         style="stop-color:#003878;stop-opacity:1"
         offset="0"
         id="stop3953" />
      <stop
         style="stop-color:#1985ff;stop-opacity:1"
         offset="1"
         id="stop3955" />
    </linearGradient>
    <linearGradient
       inkscape:collect="always"
       xlink:href="#linearGradient3957"
       id="linearGradient3959"
       x1="18.059742"
       y1="28.639521"
       x2="11.485419"
       y2="7.7163682"
       gradientUnits="userSpaceOnUse" />
    <linearGradient
       inkscape:collect="always"
       xlink:href="#linearGradient3957"
       id="linearGradient3967"
       x1="18.059742"
       y1="28.639521"
       x2="11.485419"
       y2="7.7163682"
       gradientUnits="userSpaceOnUse" />
    <linearGradient
       inkscape:collect="always"
       xlink:href="#linearGradient3957"
       id="linearGradient3975"
       x1="13.940258"
       y1="3.3604801"
       x2="20.514582"
       y2="24.283632"
       gradientUnits="userSpaceOnUse" />
    <linearGradient
       inkscape:collect="always"
       xlink:href="#linearGradient3957"
       id="linearGradient3983"
       x1="13.940258"
       y1="3.3604801"
       x2="20.514582"
       y2="24.283632"
       gradientUnits="userSpaceOnUse" />
  </defs>
  <sodipodi:namedview
     pagecolor="#ffffff"
     bordercolor="#666666"
     borderopacity="1"
     objecttolerance="10"
     gridtolerance="10"
     guidetolerance="10"
     inkscape:pageopacity="0"
     inkscape:pageshadow="2"
     inkscape:window-width="640"
     inkscape:window-height="480"
     id="namedview6"
     showgrid="false"
     inkscape:zoom="10.40625"
     inkscape:cx="-13.981982"
     inkscape:cy="16"
     inkscape:current-layer="vector" />
  <path
     style="fill:url(#linearGradient3959);stroke:url(#linearGradient3967);stroke-width:2;stroke-linecap:round;stroke-linejoin:round;fill-opacity:1"
     inkscape:connector-curvature="0"
     d="M 13.386467,14.527096 C 9.9496915,20.62534 12.341708,26.56489 18.059742,28.63952 7.6535451,30.81002 -0.72595665,19.200371 4.6746906,9.6174168 M 11.485419,7.7163683 c 1.155181,0.6510235 2.004579,1.7346453 2.361707,3.0114667 0.355765,1.277202 0.190365,2.64408 -0.460659,3.799261 -0.651023,1.155182 -1.734645,2.00458 -3.011467,2.361707 C 9.0977988,17.244569 7.7309207,17.079168 6.5757392,16.428145 5.4205576,15.777121 4.5711598,14.693499 4.2140321,13.416678 3.8582666,12.139476 4.0236672,10.772598 4.6746906,9.6174168 5.3257141,8.4622353 6.4093359,7.6128374 7.6861573,7.2557098 8.9633589,6.8999442 10.330237,7.0653448 11.485419,7.7163683 Z"
     id="path_1" />
  <path
     style="fill:url(#linearGradient3983);stroke:url(#linearGradient3975);stroke-width:2;stroke-linecap:round;stroke-linejoin:round;fill-opacity:1"
     inkscape:connector-curvature="0"
     d="M 18.613533,17.472904 C 22.050308,11.37466 19.658292,5.43511 13.940258,3.3604801 24.346455,1.1899801 32.725957,12.799629 27.325309,22.382583 m -6.810728,1.901049 c -1.155181,-0.651024 -2.004579,-1.734646 -2.361707,-3.011467 -0.355765,-1.277202 -0.190365,-2.64408 0.460659,-3.799261 0.651023,-1.155182 1.734645,-2.00458 3.011467,-2.361707 1.277201,-0.355766 2.644079,-0.190365 3.799261,0.460658 1.155181,0.651024 2.004579,1.734646 2.361707,3.011467 0.355765,1.277202 0.190365,2.64408 -0.460659,3.799261 -0.651023,1.155182 -1.734645,2.00458 -3.011466,2.361707 -1.277202,0.355766 -2.64408,0.190365 -3.799262,-0.460658 z"
     id="path_2" />
</svg>
