<?xml version="1.0" encoding="UTF-8"?>
<svg width="26" height="26" version="1.1" viewBox="0 0 32 32" xmlns="http://www.w3.org/2000/svg">
  <defs>
    <linearGradient id="grad1" x1="6" x2="21" y1="24" y2="8" gradientUnits="userSpaceOnUse">
      <stop stop-color="#003878" offset="0"/>
      <stop stop-color="#1984ff" offset="1"/>
    </linearGradient>
    <linearGradient id="grad2" x1="26" x2="11" y1="8" y2="24" gradientUnits="userSpaceOnUse">
      <stop stop-color="#003878" offset="0"/>
      <stop stop-color="#1984ff" offset="1"/>
    </linearGradient>
  </defs>
  <g stroke-linecap="round" stroke-linejoin="round" stroke-width="2">
    <animateTransform id="anim" attributeName="transform"
                      type="rotate" from="0 16 16" to="180 16 16"
                      dur="3s"
                      begin="0s; anim.end + 5s"
                      calcMode="spline"
                      keyTimes="0; 1"
                      keySplines="0.4, 0.2, 0.25, 1.0"
                      fill="freeze"/>
    <path d="m16 13c-7 0-11 5-10 11-7-8-1-21 10-21m5 5a5 5 0 0 1-5 5 5 5 0 0 1-5-5 5 5 0 0 1 5-5 5 5 0 0 1 5 5z" fill="url(#grad1)" stroke="url(#grad1)"/>
    <path d="m16 19c7 0 11-5 10-11 7 8 1 21-10 21m-5-5a5 5 0 0 1 5-5 5 5 0 0 1 5 5 5 5 0 0 1-5 5 5 5 0 0 1-5-5z" fill="url(#grad2)" stroke="url(#grad2)"/>
  </g>
</svg>
