<?xml version="1.0" encoding="UTF-8" standalone="no"?>
<!-- Created with Inkscape (http://www.inkscape.org/) -->

<svg
        xmlns:dc="http://purl.org/dc/elements/1.1/"
        xmlns:cc="http://creativecommons.org/ns#"
        xmlns:rdf="http://www.w3.org/1999/02/22-rdf-syntax-ns#"
        xmlns="http://www.w3.org/2000/svg"
        xmlns:xlink="http://www.w3.org/1999/xlink"
        xmlns:sodipodi="http://sodipodi.sourceforge.net/DTD/sodipodi-0.dtd"
        xmlns:inkscape="http://www.inkscape.org/namespaces/inkscape"
        width="32"
        height="32"
        viewBox="0 0 32 32"
        version="1.1"
        id="svg8"
        sodipodi:docname="logo.svg"
        inkscape:version="0.92.4 (5da689c313, 2019-01-14)">
  <defs
     id="defs2">
    <linearGradient
       id="linearGradient4088"
       inkscape:collect="always">
      <stop
         style="stop-color:#1986ff;stop-opacity:1"
         offset="0"
         id="stop4086" />
      <stop
         style="stop-color:#003978;stop-opacity:1"
         offset="1"
         id="stop4084" />
    </linearGradient>
    <linearGradient
       inkscape:collect="always"
       xlink:href="#linearGradient4088"
       id="linearGradient4082"
       x1="9"
       y1="19.499981"
       x2="32"
       y2="19.499981"
       gradientUnits="userSpaceOnUse" />
  </defs>
  <sodipodi:namedview
     id="base"
     pagecolor="#ffffff"
     bordercolor="#666666"
     borderopacity="1.0"
     inkscape:pageopacity="0.0"
     inkscape:pageshadow="2"
     inkscape:zoom="12.330175"
     inkscape:cx="1.7666254"
     inkscape:cy="16"
     inkscape:document-units="px"
     inkscape:current-layer="layer1"
     showgrid="true"
     units="px"
     inkscape:window-width="1366"
     inkscape:window-height="705"
     inkscape:window-x="-8"
     inkscape:window-y="-8"
     inkscape:window-maximized="1"
     inkscape:showpageshadow="false"
     showborder="true"
     showguides="true">
    <inkscape:grid
       type="xygrid"
       id="grid4517"
       originx="1"
       originy="1"
       empcolor="#3f3fff"
       empopacity="0.37647059"
       dotted="false" />
  </sodipodi:namedview>
  <metadata
     id="metadata5">
    <rdf:RDF>
      <cc:Work
         rdf:about="">
        <dc:format>image/svg+xml</dc:format>
        <dc:type
           rdf:resource="http://purl.org/dc/dcmitype/StillImage" />
        <dc:title />
      </cc:Work>
    </rdf:RDF>
  </metadata>
  <g
     inkscape:groupmode="layer"
     id="layer1"
     inkscape:label="fg"
     style="display:inline">
    <g
       id="g3154">
      <path
         id="path4018-2"
         style="display:inline;opacity:1;fill:url(#linearGradient4082);fill-opacity:1.0;fill-rule:nonzero;stroke:none;stroke-width:2;stroke-linecap:round;stroke-linejoin:round;stroke-miterlimit:4;stroke-dasharray:none;stroke-dashoffset:0;stroke-opacity:1;paint-order:normal"
         d="m 15,29.999959 c 0.147953,-3.91e-4 0.29584,-0.0062 0.443359,-0.01758 4.753527,-0.187886 8.832395,-3.350355 11.734375,-7.261719 C 30.170038,18.687558 32,13.833292 32,9.999959 c -5.5e-5,-0.552262 -0.447738,-0.999945 -1,-1 h -3 c -0.476873,1.69e-4 -0.887291,0.337007 -0.980469,0.804688 -0.454742,2.273711 -1.882638,5.151943 -3.996093,7.382812 -1.05775,1.116513 -2.273695,2.069762 -3.621094,2.744141 C 18.268265,18.702273 16.672536,18.002106 15,17.999959 c -3.313708,0 -6,2.686292 -6,6 0.0027,3.272915 2.627926,5.939806 5.900391,5.994141 0.03308,0.0036 0.06633,0.0056 0.09961,0.0059 z M 17,2 C 16.852047,2.000391 16.70416,2.00625 16.556641,2.017578 11.803114,2.2054636 7.7242455,5.3679327 4.8222656,9.2792969 1.8299624,13.312401 0,18.166667 0,22 c 5.5217905e-5,0.552262 0.44773812,0.999945 1,1 H 4 C 4.4768729,22.999831 4.8872915,22.662993 4.9804688,22.195312 5.4352112,19.921601 6.8631074,17.043369 8.9765625,14.8125 10.034312,13.695987 11.250257,12.742738 12.597656,12.068359 13.731735,13.297686 15.327464,13.997853 17,14 20.313708,14 23,11.313708 23,8 22.997255,4.7270853 20.372074,2.0601936 17.099609,2.0058594 17.066524,2.0022501 17.03328,2.0002945 17,2 Z" />
    </g>
  </g>
</svg>
