<?xml version="1.0" encoding="UTF-8" standalone="no"?>
<!-- Created with Inkscape (http://www.inkscape.org/) -->

<svg
        xmlns:dc="http://purl.org/dc/elements/1.1/"
        xmlns:cc="http://creativecommons.org/ns#"
        xmlns:rdf="http://www.w3.org/1999/02/22-rdf-syntax-ns#"
        xmlns="http://www.w3.org/2000/svg"
        xmlns:xlink="http://www.w3.org/1999/xlink"
        xmlns:sodipodi="http://sodipodi.sourceforge.net/DTD/sodipodi-0.dtd"
        xmlns:inkscape="http://www.inkscape.org/namespaces/inkscape"
        width="32"
        height="32"
        viewBox="0 0 32 32"
        version="1.1"
        id="svg8"
        sodipodi:docname="logo-1-path.svg"
        inkscape:version="0.92.4 (5da689c313, 2019-01-14)">
  <defs
     id="defs2">
    <linearGradient
       id="linearGradient3971"
       inkscape:collect="always">
      <stop
         style="stop-color:#1986ff;stop-opacity:1"
         offset="0"
         id="stop3969" />
      <stop
         style="stop-color:#003978;stop-opacity:1"
         offset="1"
         id="stop3967" />
    </linearGradient>
    <linearGradient
       id="linearGradient3963"
       inkscape:collect="always">
      <stop
         style="stop-color:#1986ff;stop-opacity:1"
         offset="0"
         id="stop3961" />
      <stop
         style="stop-color:#003978;stop-opacity:1"
         offset="1"
         id="stop3959" />
    </linearGradient>
    <linearGradient
       inkscape:collect="always"
       xlink:href="#linearGradient3963"
       id="linearGradient4035"
       x1="9"
       y1="19.50005"
       x2="32"
       y2="19.50005"
       gradientUnits="userSpaceOnUse" />
    <linearGradient
       inkscape:collect="always"
       xlink:href="#linearGradient3971"
       id="linearGradient4043"
       x1="9"
       y1="19.50005"
       x2="32"
       y2="19.50005"
       gradientUnits="userSpaceOnUse" />
  </defs>
  <sodipodi:namedview
     id="base"
     pagecolor="#ffffff"
     bordercolor="#666666"
     borderopacity="1.0"
     inkscape:pageopacity="0.0"
     inkscape:pageshadow="2"
     inkscape:zoom="17.4375"
     inkscape:cx="16"
     inkscape:cy="16"
     inkscape:document-units="px"
     inkscape:current-layer="layer2"
     showgrid="true"
     units="px"
     inkscape:window-width="1366"
     inkscape:window-height="705"
     inkscape:window-x="-8"
     inkscape:window-y="-8"
     inkscape:window-maximized="1"
     inkscape:showpageshadow="false"
     showborder="true"
     showguides="true">
    <inkscape:grid
       type="xygrid"
       id="grid4517"
       originx="1"
       originy="1"
       empcolor="#3f3fff"
       empopacity="0.37647059"
       dotted="false" />
  </sodipodi:namedview>
  <metadata
     id="metadata5">
    <rdf:RDF>
      <cc:Work
         rdf:about="">
        <dc:format>image/svg+xml</dc:format>
        <dc:type
           rdf:resource="http://purl.org/dc/dcmitype/StillImage" />
        <dc:title />
      </cc:Work>
    </rdf:RDF>
  </metadata>
  <g
     inkscape:groupmode="layer"
     id="layer2"
     inkscape:label="icon">
    <path
       id="path3170-1"
       style="fill:url(#linearGradient4035);fill-opacity:1;stroke:url(#linearGradient4043);stroke-width:2;stroke-linecap:round;stroke-linejoin:round;stroke-miterlimit:4;stroke-dasharray:none;stroke-opacity:1"
       d="m 15,19 c 7,0 12,-4 13,-9 h 3 c 0,7 -7,19 -16,19 m -5,-5 c 0,-2.761424 2.238576,-5 5,-5 2.761424,0 5,2.238576 5,5 0,2.761424 -2.238576,5 -5,5 -2.761424,0 -5,-2.238576 -5,-5 z M 17,13 C 10,13 5,17 4,22 H 1 C 1,15 8,3 17,3 m 5,5 c 0,2.761424 -2.238576,5 -5,5 -2.761424,0 -5,-2.238576 -5,-5 0,-2.7614237 2.238576,-5 5,-5 2.761424,0 5,2.2385763 5,5 z" />
  </g>
</svg>
