<?xml version="1.0" encoding="UTF-8" standalone="no"?>
<svg
        xmlns:dc="http://purl.org/dc/elements/1.1/"
        xmlns:cc="http://creativecommons.org/ns#"
        xmlns:rdf="http://www.w3.org/1999/02/22-rdf-syntax-ns#"
        xmlns="http://www.w3.org/2000/svg"
        xmlns:xlink="http://www.w3.org/1999/xlink"
        xmlns:sodipodi="http://sodipodi.sourceforge.net/DTD/sodipodi-0.dtd"
        xmlns:inkscape="http://www.inkscape.org/namespaces/inkscape"
        viewBox="0 0 32 32"
        id="vector"
        width="32px"
        height="32px"
        version="1.1"
        sodipodi:docname="frame44.svg"
        inkscape:version="0.92.4 (5da689c313, 2019-01-14)"
        inkscape:export-filename="D:\IdeaProjects\donim\icons\30fps\frame44.png"
        inkscape:export-xdpi="48"
        inkscape:export-ydpi="48">
  <metadata
     id="metadata10">
    <rdf:RDF>
      <cc:Work
         rdf:about="">
        <dc:format>image/svg+xml</dc:format>
        <dc:type
           rdf:resource="http://purl.org/dc/dcmitype/StillImage" />
      </cc:Work>
    </rdf:RDF>
  </metadata>
  <defs
     id="defs8">
    <linearGradient
       inkscape:collect="always"
       id="linearGradient3957">
      <stop
         style="stop-color:#003878;stop-opacity:1"
         offset="0"
         id="stop3953" />
      <stop
         style="stop-color:#1985ff;stop-opacity:1"
         offset="1"
         id="stop3955" />
    </linearGradient>
    <linearGradient
       inkscape:collect="always"
       xlink:href="#linearGradient3957"
       id="linearGradient3959"
       x1="8.7643776"
       y1="26.566256"
       x2="18.452503"
       y2="6.8903775"
       gradientUnits="userSpaceOnUse" />
    <linearGradient
       inkscape:collect="always"
       xlink:href="#linearGradient3957"
       id="linearGradient3967"
       x1="8.7643776"
       y1="26.566256"
       x2="18.452503"
       y2="6.8903775"
       gradientUnits="userSpaceOnUse" />
    <linearGradient
       inkscape:collect="always"
       xlink:href="#linearGradient3957"
       id="linearGradient3975"
       x1="23.235622"
       y1="5.433744"
       x2="13.547496"
       y2="25.109623"
       gradientUnits="userSpaceOnUse" />
    <linearGradient
       inkscape:collect="always"
       xlink:href="#linearGradient3957"
       id="linearGradient3983"
       x1="23.235622"
       y1="5.433744"
       x2="13.547496"
       y2="25.109623"
       gradientUnits="userSpaceOnUse" />
  </defs>
  <sodipodi:namedview
     pagecolor="#ffffff"
     bordercolor="#666666"
     borderopacity="1"
     objecttolerance="10"
     gridtolerance="10"
     guidetolerance="10"
     inkscape:pageopacity="0"
     inkscape:pageshadow="2"
     inkscape:window-width="640"
     inkscape:window-height="480"
     id="namedview6"
     showgrid="false"
     inkscape:zoom="10.40625"
     inkscape:cx="-13.981982"
     inkscape:cy="16"
     inkscape:current-layer="vector" />
  <path
     style="fill:url(#linearGradient3959);stroke:url(#linearGradient3967);stroke-width:2;stroke-linecap:round;stroke-linejoin:round;fill-opacity:1"
     inkscape:connector-curvature="0"
     d="M 15.12602,13.130129 C 8.4296545,15.169416 6.0597936,21.117841 8.7643775,26.566256 -0.26260151,20.952554 1.6898929,6.7684868 12.212753,3.563893 m 6.239751,3.3264845 c 0.3863,1.2684829 0.252727,2.6388373 -0.370365,3.8091235 -0.62434,1.169621 -1.687636,2.044329 -2.956119,2.430628 -1.268483,0.386299 -2.638837,0.252726 -3.809124,-0.370366 C 10.147276,12.135424 9.2725674,11.072128 8.8862682,9.8036446 8.499969,8.5351617 8.6335421,7.1648073 9.2566339,5.9945212 9.8809738,4.8249004 10.94427,3.9501922 12.212753,3.563893 c 1.268483,-0.3862993 2.638837,-0.2527262 3.809123,0.3703657 1.169621,0.6243398 2.044329,1.6876359 2.430628,2.9561188 z"
     id="path_1" />
  <path
     style="fill:url(#linearGradient3983);stroke:url(#linearGradient3975);stroke-width:2;stroke-linecap:round;stroke-linejoin:round;fill-opacity:1"
     inkscape:connector-curvature="0"
     d="m 16.87398,18.869871 c 6.696365,-2.039287 9.066226,-7.987712 6.361642,-13.4361271 9.02698,5.6137021 7.074485,19.7977691 -3.448375,23.0023631 m -6.239751,-3.326484 c -0.3863,-1.268483 -0.252727,-2.638838 0.370365,-3.809124 0.62434,-1.169621 1.687636,-2.044329 2.956119,-2.430628 1.268483,-0.386299 2.638837,-0.252726 3.809124,0.370366 1.16962,0.624339 2.044329,1.687635 2.430628,2.956118 0.386299,1.268483 0.252726,2.638838 -0.370366,3.809124 -0.62434,1.169621 -1.687636,2.044329 -2.956119,2.430628 -1.268483,0.386299 -2.638837,0.252726 -3.809123,-0.370366 -1.169621,-0.62434 -2.044329,-1.687636 -2.430628,-2.956118 z"
     id="path_2" />
</svg>
