<?xml version="1.0" encoding="UTF-8" standalone="no"?>
<svg
        xmlns:dc="http://purl.org/dc/elements/1.1/"
        xmlns:cc="http://creativecommons.org/ns#"
        xmlns:rdf="http://www.w3.org/1999/02/22-rdf-syntax-ns#"
        xmlns="http://www.w3.org/2000/svg"
        xmlns:xlink="http://www.w3.org/1999/xlink"
        xmlns:sodipodi="http://sodipodi.sourceforge.net/DTD/sodipodi-0.dtd"
        xmlns:inkscape="http://www.inkscape.org/namespaces/inkscape"
        viewBox="0 0 32 32"
        id="vector"
        width="32px"
        height="32px"
        version="1.1"
        sodipodi:docname="frame10.svg"
        inkscape:version="0.92.4 (5da689c313, 2019-01-14)"
        inkscape:export-filename="D:\IdeaProjects\donim\icons\30fps\frame10.png"
        inkscape:export-xdpi="48"
        inkscape:export-ydpi="48">
  <metadata
     id="metadata10">
    <rdf:RDF>
      <cc:Work
         rdf:about="">
        <dc:format>image/svg+xml</dc:format>
        <dc:type
           rdf:resource="http://purl.org/dc/dcmitype/StillImage" />
      </cc:Work>
    </rdf:RDF>
  </metadata>
  <defs
     id="defs8">
    <linearGradient
       inkscape:collect="always"
       id="linearGradient3957">
      <stop
         style="stop-color:#003878;stop-opacity:1"
         offset="0"
         id="stop3953" />
      <stop
         style="stop-color:#1985ff;stop-opacity:1"
         offset="1"
         id="stop3955" />
    </linearGradient>
    <linearGradient
       inkscape:collect="always"
       xlink:href="#linearGradient3957"
       id="linearGradient3959"
       x1="3.3190613"
       y1="17.787119"
       x2="24.378916"
       y2="11.664823"
       gradientUnits="userSpaceOnUse" />
    <linearGradient
       inkscape:collect="always"
       xlink:href="#linearGradient3957"
       id="linearGradient3967"
       x1="3.3190613"
       y1="17.787119"
       x2="24.378916"
       y2="11.664823"
       gradientUnits="userSpaceOnUse" />
    <linearGradient
       inkscape:collect="always"
       xlink:href="#linearGradient3957"
       id="linearGradient3975"
       x1="28.680939"
       y1="14.212882"
       x2="7.6210837"
       y2="20.335176"
       gradientUnits="userSpaceOnUse" />
    <linearGradient
       inkscape:collect="always"
       xlink:href="#linearGradient3957"
       id="linearGradient3983"
       x1="28.680939"
       y1="14.212882"
       x2="7.6210837"
       y2="20.335176"
       gradientUnits="userSpaceOnUse" />
  </defs>
  <sodipodi:namedview
     pagecolor="#ffffff"
     bordercolor="#666666"
     borderopacity="1"
     objecttolerance="10"
     gridtolerance="10"
     guidetolerance="10"
     inkscape:pageopacity="0"
     inkscape:pageshadow="2"
     inkscape:window-width="640"
     inkscape:window-height="480"
     id="namedview6"
     showgrid="false"
     inkscape:zoom="10.40625"
     inkscape:cx="-15.231231"
     inkscape:cy="16"
     inkscape:current-layer="vector" />
  <path
     style="fill:url(#linearGradient3959);stroke:url(#linearGradient3967);stroke-width:2;stroke-linecap:round;stroke-linejoin:round;fill-opacity:1"
     inkscape:connector-curvature="0"
     d="M 17.528835,13.418787 C 11.506004,9.8515042 5.5163273,12.11508 3.3190612,17.787118 1.373124,7.3366 13.160504,-0.7909875 22.624953,4.8147419 m 1.753963,6.8500811 c -0.675745,1.140896 -1.777404,1.966765 -3.061619,2.296319 -1.284565,0.328183 -2.647565,0.13339 -3.788462,-0.542355 -1.140896,-0.675746 -1.966765,-1.777405 -2.296318,-3.06162 -0.328183,-1.2845654 -0.13339,-2.6475652 0.542355,-3.7884616 0.675745,-1.1408963 1.777404,-1.9667654 3.061619,-2.2963185 1.284566,-0.3281832 2.647566,-0.1333902 3.788462,0.542355 1.140896,0.6757452 1.966765,1.7774045 2.296319,3.0616193 0.328183,1.2845657 0.13339,2.6475658 -0.542356,3.7884618 z"
     id="path_1" />
  <path
     style="fill:url(#linearGradient3983);stroke:url(#linearGradient3975);stroke-width:2;stroke-linecap:round;stroke-linejoin:round;fill-opacity:1"
     inkscape:connector-curvature="0"
     d="M 14.471165,18.581213 C 20.493996,22.148496 26.483673,19.88492 28.680939,14.212882 30.626876,24.6634 18.839496,32.790987 9.3750471,27.185258 M 7.6210835,20.335177 c 0.6757452,-1.140896 1.7774046,-1.966765 3.0616195,-2.296319 1.284565,-0.328183 2.647565,-0.13339 3.788462,0.542355 1.140896,0.675746 1.966765,1.777405 2.296318,3.06162 0.328183,1.284565 0.13339,2.647565 -0.542355,3.788462 -0.675745,1.140896 -1.777404,1.966765 -3.061619,2.296318 -1.284566,0.328183 -2.647566,0.13339 -3.7884619,-0.542355 C 8.2341507,26.509513 7.4082817,25.407854 7.0787285,24.123639 6.7505453,22.839073 6.9453383,21.476073 7.6210835,20.335177 Z"
     id="path_2" />
</svg>
