<?xml version="1.0" encoding="UTF-8" standalone="no"?>
<svg
        xmlns:dc="http://purl.org/dc/elements/1.1/"
        xmlns:cc="http://creativecommons.org/ns#"
        xmlns:rdf="http://www.w3.org/1999/02/22-rdf-syntax-ns#"
        xmlns="http://www.w3.org/2000/svg"
        xmlns:xlink="http://www.w3.org/1999/xlink"
        xmlns:sodipodi="http://sodipodi.sourceforge.net/DTD/sodipodi-0.dtd"
        xmlns:inkscape="http://www.inkscape.org/namespaces/inkscape"
        viewBox="0 0 32 32"
        id="vector"
        width="32px"
        height="32px"
        version="1.1"
        sodipodi:docname="frame38.svg"
        inkscape:version="0.92.4 (5da689c313, 2019-01-14)"
        inkscape:export-filename="D:\IdeaProjects\donim\icons\30fps\frame38.png"
        inkscape:export-xdpi="48"
        inkscape:export-ydpi="48">
  <metadata
     id="metadata10">
    <rdf:RDF>
      <cc:Work
         rdf:about="">
        <dc:format>image/svg+xml</dc:format>
        <dc:type
           rdf:resource="http://purl.org/dc/dcmitype/StillImage" />
      </cc:Work>
    </rdf:RDF>
  </metadata>
  <defs
     id="defs8">
    <linearGradient
       inkscape:collect="always"
       id="linearGradient3957">
      <stop
         style="stop-color:#003878;stop-opacity:1"
         offset="0"
         id="stop3953" />
      <stop
         style="stop-color:#1985ff;stop-opacity:1"
         offset="1"
         id="stop3955" />
    </linearGradient>
    <linearGradient
       inkscape:collect="always"
       xlink:href="#linearGradient3957"
       id="linearGradient3959"
       x1="12.599065"
       y1="28.346401"
       x2="15.352747"
       y2="6.5882487"
       gradientUnits="userSpaceOnUse" />
    <linearGradient
       inkscape:collect="always"
       xlink:href="#linearGradient3957"
       id="linearGradient3967"
       x1="12.599065"
       y1="28.346401"
       x2="15.352747"
       y2="6.5882487"
       gradientUnits="userSpaceOnUse" />
    <linearGradient
       inkscape:collect="always"
       xlink:href="#linearGradient3957"
       id="linearGradient3977"
       gradientUnits="userSpaceOnUse"
       x1="19.400934"
       y1="3.6535981"
       x2="16.647253"
       y2="25.411751" />
    <linearGradient
       inkscape:collect="always"
       xlink:href="#linearGradient3957"
       id="linearGradient3985"
       x1="19.400934"
       y1="3.6535981"
       x2="16.647253"
       y2="25.411751"
       gradientUnits="userSpaceOnUse" />
  </defs>
  <sodipodi:namedview
     pagecolor="#ffffff"
     bordercolor="#666666"
     borderopacity="1"
     objecttolerance="10"
     gridtolerance="10"
     guidetolerance="10"
     inkscape:pageopacity="0"
     inkscape:pageshadow="2"
     inkscape:window-width="640"
     inkscape:window-height="480"
     id="namedview6"
     showgrid="false"
     inkscape:zoom="10.40625"
     inkscape:cx="-13.981982"
     inkscape:cy="16"
     inkscape:current-layer="vector" />
  <path
     style="fill:url(#linearGradient3959);stroke:url(#linearGradient3967);stroke-width:2;stroke-linecap:round;stroke-linejoin:round;fill-opacity:1"
     inkscape:connector-curvature="0"
     d="M 14.23921,13.571087 C 8.5717465,17.679598 8.2678468,24.075507 12.599065,28.346402 2.236161,25.977812 -0.53610513,11.930943 8.3699083,5.4747113 m 6.9828387,1.1135374 c 0.778269,1.0735794 1.098165,2.4127506 0.890075,3.7221443 -0.209486,1.309171 -0.930033,2.482425 -2.003612,3.260694 -1.07358,0.77827 -2.412751,1.098166 -3.722145,0.890076 C 9.2078945,14.251676 8.0346404,13.531129 7.256371,12.45755 6.4781017,11.38397 6.1582056,10.044799 6.3662955,8.7354057 6.5757821,7.4262348 7.2963289,6.2529807 8.3699083,5.4747113 9.4434878,4.696442 10.782659,4.3765459 12.092053,4.5846358 c 1.30917,0.2094866 2.482425,0.9300334 3.260694,2.0036129 z"
     id="path_1" />
  <path
     style="fill:url(#linearGradient3985);stroke:url(#linearGradient3977);stroke-width:2;stroke-linecap:round;stroke-linejoin:round;fill-opacity:1"
     inkscape:connector-curvature="0"
     d="m 17.76079,18.428913 c 5.667464,-4.108511 5.971363,-10.5044196 1.640145,-14.775315 10.362904,2.3685898 13.13517,16.415459 4.229157,22.871691 m -6.982839,-1.113538 c -0.778269,-1.073579 -1.098165,-2.41275 -0.890075,-3.722144 0.209486,-1.309171 0.930033,-2.482425 2.003612,-3.260694 1.07358,-0.77827 2.412751,-1.098166 3.722145,-0.890076 1.30917,0.209487 2.482425,0.930034 3.260694,2.003613 0.778269,1.07358 1.098165,2.412751 0.890075,3.722144 -0.209486,1.309171 -0.930033,2.482425 -2.003612,3.260695 -1.07358,0.778269 -2.412751,1.098165 -3.722145,0.890075 -1.30917,-0.209486 -2.482425,-0.930033 -3.260694,-2.003613 z"
     id="path_2" />
</svg>
