<?xml version="1.0" encoding="UTF-8" standalone="no"?>
<svg
        xmlns:dc="http://purl.org/dc/elements/1.1/"
        xmlns:cc="http://creativecommons.org/ns#"
        xmlns:rdf="http://www.w3.org/1999/02/22-rdf-syntax-ns#"
        xmlns="http://www.w3.org/2000/svg"
        xmlns:xlink="http://www.w3.org/1999/xlink"
        xmlns:sodipodi="http://sodipodi.sourceforge.net/DTD/sodipodi-0.dtd"
        xmlns:inkscape="http://www.inkscape.org/namespaces/inkscape"
        viewBox="0 0 32 32"
        id="vector"
        width="32px"
        height="32px"
        version="1.1"
        sodipodi:docname="frame11.svg"
        inkscape:version="0.92.4 (5da689c313, 2019-01-14)"
        inkscape:export-filename="D:\IdeaProjects\donim\icons\30fps\frame11.png"
        inkscape:export-xdpi="48"
        inkscape:export-ydpi="48">
  <metadata
     id="metadata10">
    <rdf:RDF>
      <cc:Work
         rdf:about="">
        <dc:format>image/svg+xml</dc:format>
        <dc:type
           rdf:resource="http://purl.org/dc/dcmitype/StillImage" />
      </cc:Work>
    </rdf:RDF>
  </metadata>
  <defs
     id="defs8">
    <linearGradient
       inkscape:collect="always"
       id="linearGradient3955">
      <stop
         style="stop-color:#003878;stop-opacity:1"
         offset="0"
         id="stop3951" />
      <stop
         style="stop-color:#1985ff;stop-opacity:1"
         offset="1"
         id="stop3953" />
    </linearGradient>
    <linearGradient
       inkscape:collect="always"
       xlink:href="#linearGradient3955"
       id="linearGradient3957"
       x1="6"
       y1="24"
       x2="21"
       y2="8"
       gradientUnits="userSpaceOnUse"
       gradientTransform="rotate(38.758267,16,16)" />
    <linearGradient
       inkscape:collect="always"
       xlink:href="#linearGradient3955"
       id="linearGradient3965"
       x1="6"
       y1="24"
       x2="21"
       y2="8"
       gradientUnits="userSpaceOnUse"
       gradientTransform="rotate(38.758267,16,16)" />
    <linearGradient
       inkscape:collect="always"
       xlink:href="#linearGradient3955"
       id="linearGradient3973"
       x1="26"
       y1="8"
       x2="11"
       y2="24"
       gradientUnits="userSpaceOnUse"
       gradientTransform="rotate(38.758267,16,16)" />
    <linearGradient
       inkscape:collect="always"
       xlink:href="#linearGradient3955"
       id="linearGradient3983"
       gradientUnits="userSpaceOnUse"
       x1="26"
       y1="8"
       x2="11"
       y2="24"
       gradientTransform="rotate(38.758267,16,16)" />
  </defs>
  <sodipodi:namedview
     pagecolor="#ffffff"
     bordercolor="#666666"
     borderopacity="1"
     objecttolerance="10"
     gridtolerance="10"
     guidetolerance="10"
     inkscape:pageopacity="0"
     inkscape:pageshadow="2"
     inkscape:window-width="640"
     inkscape:window-height="480"
     id="namedview6"
     showgrid="false"
     inkscape:zoom="12.330175"
     inkscape:cx="2.8209494"
     inkscape:cy="16"
     inkscape:current-layer="vector" />
  <path
     inkscape:connector-curvature="0"
     style="fill:url(#linearGradient3957);fill-opacity:1;stroke:url(#linearGradient3965);stroke-width:2;stroke-linecap:round;stroke-linejoin:round"
     d="M 17.878108,13.660618 C 12.419549,9.2783656 6.1701922,10.673192 3.1937704,15.977993 2.7434992,5.3573881 15.560732,-1.02372 24.138468,5.8626759 m 0.768791,7.0291511 c -0.830124,1.034007 -2.037393,1.695984 -3.355282,1.840835 -1.318043,0.143445 -2.639862,-0.241921 -3.673869,-1.072044 -1.034007,-0.830124 -1.695984,-2.037394 -1.840835,-3.355282 -0.143446,-1.3180431 0.24192,-2.6398622 1.072044,-3.6738693 0.830124,-1.034007 2.037393,-1.6959842 3.355282,-1.8408354 1.318043,-0.1434454 2.639862,0.2419209 3.673869,1.0720446 1.034007,0.8301237 1.695984,2.037393 1.840835,3.3552819 C 26.122749,10.536 25.737382,11.85782 24.907259,12.891827 Z"
     id="path_1" />
  <path
     inkscape:connector-curvature="0"
     style="fill:url(#linearGradient3983);fill-opacity:1;stroke:url(#linearGradient3973);stroke-width:2;stroke-linecap:round;stroke-linejoin:round"
     d="M 14.121892,18.339382 C 19.580451,22.721634 25.829808,21.326808 28.80623,16.022007 29.256501,26.642612 16.439268,33.02372 7.8615321,26.137324 M 7.0927412,19.108173 c 0.8301238,-1.034007 2.0373931,-1.695984 3.3552818,-1.840835 1.318043,-0.143445 2.639862,0.241921 3.673869,1.072044 1.034007,0.830124 1.695984,2.037394 1.840835,3.355282 0.143446,1.318043 -0.24192,2.639862 -1.072044,3.673869 -0.830124,1.034007 -2.037393,1.695985 -3.355282,1.840836 C 10.217358,27.352814 8.8955392,26.967448 7.8615321,26.137324 6.827525,25.3072 6.1655478,24.099931 6.0206966,22.782042 5.8772513,21.464 6.2626175,20.14218 7.0927412,19.108173 Z"
     id="path_2" />
</svg>
