<?xml version="1.0" encoding="UTF-8" standalone="no"?>
<svg
        xmlns:dc="http://purl.org/dc/elements/1.1/"
        xmlns:cc="http://creativecommons.org/ns#"
        xmlns:rdf="http://www.w3.org/1999/02/22-rdf-syntax-ns#"
        xmlns="http://www.w3.org/2000/svg"
        xmlns:xlink="http://www.w3.org/1999/xlink"
        xmlns:sodipodi="http://sodipodi.sourceforge.net/DTD/sodipodi-0.dtd"
        xmlns:inkscape="http://www.inkscape.org/namespaces/inkscape"
        viewBox="0 0 32 32"
        id="vector"
        width="32px"
        height="32px"
        version="1.1"
        sodipodi:docname="frame59.svg"
        inkscape:version="0.92.4 (5da689c313, 2019-01-14)"
        inkscape:export-filename="D:\IdeaProjects\donim\icons\30fps\frame59.png"
        inkscape:export-xdpi="48"
        inkscape:export-ydpi="48">
  <metadata
     id="metadata10">
    <rdf:RDF>
      <cc:Work
         rdf:about="">
        <dc:format>image/svg+xml</dc:format>
        <dc:type
           rdf:resource="http://purl.org/dc/dcmitype/StillImage" />
      </cc:Work>
    </rdf:RDF>
  </metadata>
  <defs
     id="defs8">
    <linearGradient
       inkscape:collect="always"
       id="linearGradient3957">
      <stop
         style="stop-color:#003878;stop-opacity:1"
         offset="0"
         id="stop3953" />
      <stop
         style="stop-color:#1985ff;stop-opacity:1"
         offset="1"
         id="stop3955" />
    </linearGradient>
    <linearGradient
       inkscape:collect="always"
       xlink:href="#linearGradient3957"
       id="linearGradient3961"
       gradientUnits="userSpaceOnUse"
       x1="6.0073705"
       y1="24.009205"
       x2="20.992632"
       y2="7.9953995" />
    <linearGradient
       inkscape:collect="always"
       xlink:href="#linearGradient3957"
       id="linearGradient3969"
       x1="6.0073705"
       y1="24.009205"
       x2="20.992632"
       y2="7.9953995"
       gradientUnits="userSpaceOnUse" />
    <linearGradient
       inkscape:collect="always"
       xlink:href="#linearGradient3957"
       id="linearGradient3977"
       x1="25.99263"
       y1="7.9907956"
       x2="11.007368"
       y2="24.004601"
       gradientUnits="userSpaceOnUse" />
    <linearGradient
       inkscape:collect="always"
       xlink:href="#linearGradient3957"
       id="linearGradient3985"
       x1="25.99263"
       y1="7.9907956"
       x2="11.007368"
       y2="24.004601"
       gradientUnits="userSpaceOnUse" />
  </defs>
  <sodipodi:namedview
     pagecolor="#ffffff"
     bordercolor="#666666"
     borderopacity="1"
     objecttolerance="10"
     gridtolerance="10"
     guidetolerance="10"
     inkscape:pageopacity="0"
     inkscape:pageshadow="2"
     inkscape:window-width="640"
     inkscape:window-height="480"
     id="namedview6"
     showgrid="false"
     inkscape:zoom="10.40625"
     inkscape:cx="-13.981982"
     inkscape:cy="16"
     inkscape:current-layer="vector" />
  <path
     style="fill:url(#linearGradient3961);stroke:url(#linearGradient3969);stroke-width:2;stroke-linecap:round;stroke-linejoin:round;fill-opacity:1"
     inkscape:connector-curvature="0"
     d="M 15.997238,13.000001 C 8.9972406,13.006447 5.0018462,18.010128 6.0073704,24.009204 -0.9999928,16.015653 4.9880346,3.010134 15.98803,3.0000055 m 5.004602,4.995394 c 0.0012,1.3259994 -0.524608,2.5984845 -1.460744,3.5373465 -0.937137,0.937863 -2.208651,1.466034 -3.53465,1.467255 -1.326,0.0012 -2.598484,-0.524607 -3.537347,-1.460743 -0.937863,-0.937137 -1.466034,-2.2086513 -1.467255,-3.5346507 -0.0012,-1.3259995 0.524608,-2.5984842 1.460743,-3.5373465 0.937137,-0.9378633 2.208651,-1.4660343 3.534651,-1.4672553 1.325999,-0.00122 2.598484,0.5246076 3.537346,1.4607435 0.937864,0.9371369 1.466035,2.2086511 1.467256,3.5346505 z"
     id="path_1" />
  <path
     style="fill:url(#linearGradient3985);stroke:url(#linearGradient3977);stroke-width:2;stroke-linecap:round;stroke-linejoin:round;fill-opacity:1"
     inkscape:connector-curvature="0"
     d="m 16.002762,18.999999 c 6.999997,-0.0064 10.995392,-5.010127 9.989868,-11.0092034 7.007363,7.9935514 1.019335,20.9990704 -9.98066,21.0091984 M 11.007368,24.0046 c -0.0012,-1.325999 0.524608,-2.598484 1.460744,-3.537346 0.937137,-0.937863 2.208651,-1.466034 3.53465,-1.467255 1.326,-0.0012 2.598484,0.524607 3.537347,1.460743 0.937863,0.937137 1.466034,2.208651 1.467255,3.534651 0.0012,1.325999 -0.524608,2.598484 -1.460743,3.537346 -0.937137,0.937864 -2.208651,1.466035 -3.534651,1.467255 -1.325999,0.0012 -2.598484,-0.524607 -3.537346,-1.460743 C 11.53676,26.602114 11.008589,25.3306 11.007368,24.0046 Z"
     id="path_2" />
</svg>
