<?xml version="1.0" encoding="UTF-8" standalone="no"?>
<svg
        xmlns:dc="http://purl.org/dc/elements/1.1/"
        xmlns:cc="http://creativecommons.org/ns#"
        xmlns:rdf="http://www.w3.org/1999/02/22-rdf-syntax-ns#"
        xmlns="http://www.w3.org/2000/svg"
        xmlns:xlink="http://www.w3.org/1999/xlink"
        xmlns:sodipodi="http://sodipodi.sourceforge.net/DTD/sodipodi-0.dtd"
        xmlns:inkscape="http://www.inkscape.org/namespaces/inkscape"
        viewBox="0 0 32 32"
        id="vector"
        width="32px"
        height="32px"
        version="1.1"
        sodipodi:docname="frame47.svg"
        inkscape:version="0.92.4 (5da689c313, 2019-01-14)"
        inkscape:export-filename="D:\IdeaProjects\donim\icons\30fps\frame47.png"
        inkscape:export-xdpi="48"
        inkscape:export-ydpi="48">
  <metadata
     id="metadata10">
    <rdf:RDF>
      <cc:Work
         rdf:about="">
        <dc:format>image/svg+xml</dc:format>
        <dc:type
           rdf:resource="http://purl.org/dc/dcmitype/StillImage" />
      </cc:Work>
    </rdf:RDF>
  </metadata>
  <defs
     id="defs8">
    <linearGradient
       inkscape:collect="always"
       id="linearGradient3957">
      <stop
         style="stop-color:#003878;stop-opacity:1"
         offset="0"
         id="stop3953" />
      <stop
         style="stop-color:#1985ff;stop-opacity:1"
         offset="1"
         id="stop3955" />
    </linearGradient>
    <linearGradient
       inkscape:collect="always"
       xlink:href="#linearGradient3957"
       id="linearGradient3959"
       x1="7.6459022"
       y1="25.706135"
       x2="19.439768"
       y2="7.2154679"
       gradientUnits="userSpaceOnUse" />
    <linearGradient
       inkscape:collect="always"
       xlink:href="#linearGradient3957"
       id="linearGradient3967"
       x1="7.6459022"
       y1="25.706135"
       x2="19.439768"
       y2="7.2154679"
       gradientUnits="userSpaceOnUse" />
    <linearGradient
       inkscape:collect="always"
       xlink:href="#linearGradient3957"
       id="linearGradient3975"
       x1="24.354097"
       y1="6.2938652"
       x2="12.560233"
       y2="24.784533"
       gradientUnits="userSpaceOnUse" />
    <linearGradient
       inkscape:collect="always"
       xlink:href="#linearGradient3957"
       id="linearGradient3983"
       x1="24.354097"
       y1="6.2938652"
       x2="12.560233"
       y2="24.784533"
       gradientUnits="userSpaceOnUse" />
  </defs>
  <sodipodi:namedview
     pagecolor="#ffffff"
     bordercolor="#666666"
     borderopacity="1"
     objecttolerance="10"
     gridtolerance="10"
     guidetolerance="10"
     inkscape:pageopacity="0"
     inkscape:pageshadow="2"
     inkscape:window-width="640"
     inkscape:window-height="480"
     id="namedview6"
     showgrid="false"
     inkscape:zoom="10.40625"
     inkscape:cx="-13.981982"
     inkscape:cy="16"
     inkscape:current-layer="vector" />
  <path
     style="fill:url(#linearGradient3959);stroke:url(#linearGradient3967);stroke-width:2;stroke-linecap:round;stroke-linejoin:round;fill-opacity:1"
     inkscape:connector-curvature="0"
     d="M 15.447038,13.051401 C 8.5669751,14.341645 5.557113,19.993258 7.6459023,25.706135 -0.70872521,19.133449 2.7923051,5.2502653 13.603833,3.2227395 m 5.835934,3.9927284 c 0.244409,1.3032805 -0.03911,2.6506232 -0.787159,3.7452601 -0.74922,1.093838 -1.902289,1.846264 -3.20557,2.090673 -1.30328,0.244409 -2.650623,-0.03911 -3.74526,-0.787158 C 10.60794,11.515023 9.8555139,10.361954 9.6111049,9.0586731 9.3666959,7.7553925 9.6502106,6.4080498 10.398264,5.313413 c 0.74922,-1.0938383 1.902289,-1.8462644 3.205569,-2.0906735 1.303281,-0.244409 2.650623,0.039106 3.74526,0.7871588 1.093839,0.7492201 1.846265,1.902289 2.090674,3.2055696 z"
     id="path_1" />
  <path
     style="fill:url(#linearGradient3983);stroke:url(#linearGradient3975);stroke-width:2;stroke-linecap:round;stroke-linejoin:round;fill-opacity:1"
     inkscape:connector-curvature="0"
     d="m 16.552962,18.948599 c 6.880063,-1.290244 9.889925,-6.941857 7.801136,-12.6547337 8.354627,6.5726857 4.853597,20.4558697 -5.957931,22.4833947 m -5.835934,-3.992728 c -0.244409,-1.30328 0.03911,-2.650623 0.787159,-3.74526 0.74922,-1.093838 1.902289,-1.846264 3.20557,-2.090673 1.30328,-0.244409 2.650623,0.0391 3.74526,0.787158 1.093838,0.74922 1.846264,1.902289 2.090673,3.20557 0.244409,1.30328 -0.03911,2.650623 -0.787159,3.74526 -0.74922,1.093838 -1.902289,1.846264 -3.205569,2.090673 -1.303281,0.244409 -2.650623,-0.0391 -3.74526,-0.787158 -1.093839,-0.74922 -1.846265,-1.902289 -2.090674,-3.20557 z"
     id="path_2" />
</svg>
