<?xml version="1.0" encoding="UTF-8" standalone="no"?>
<svg
        xmlns:dc="http://purl.org/dc/elements/1.1/"
        xmlns:cc="http://creativecommons.org/ns#"
        xmlns:rdf="http://www.w3.org/1999/02/22-rdf-syntax-ns#"
        xmlns="http://www.w3.org/2000/svg"
        xmlns:xlink="http://www.w3.org/1999/xlink"
        xmlns:sodipodi="http://sodipodi.sourceforge.net/DTD/sodipodi-0.dtd"
        xmlns:inkscape="http://www.inkscape.org/namespaces/inkscape"
        viewBox="0 0 32 32"
        id="vector"
        width="32px"
        height="32px"
        version="1.1"
        sodipodi:docname="frame04.svg"
        inkscape:version="0.92.4 (5da689c313, 2019-01-14)">
  <metadata
     id="metadata10">
    <rdf:RDF>
      <cc:Work
         rdf:about="">
        <dc:format>image/svg+xml</dc:format>
        <dc:type
           rdf:resource="http://purl.org/dc/dcmitype/StillImage" />
      </cc:Work>
    </rdf:RDF>
  </metadata>
  <defs
     id="defs8">
    <linearGradient
       inkscape:collect="always"
       id="linearGradient3957">
      <stop
         style="stop-color:#003878;stop-opacity:1"
         offset="0"
         id="stop3953" />
      <stop
         style="stop-color:#1985ff;stop-opacity:1"
         offset="1"
         id="stop3955" />
    </linearGradient>
    <linearGradient
       inkscape:collect="always"
       xlink:href="#linearGradient3957"
       id="linearGradient3959"
       x1="5.4878774"
       y1="23.314047"
       x2="21.523294"
       y2="8.3519135"
       gradientUnits="userSpaceOnUse" />
    <linearGradient
       inkscape:collect="always"
       xlink:href="#linearGradient3957"
       id="linearGradient3967"
       x1="5.4878774"
       y1="23.314047"
       x2="21.523294"
       y2="8.3519135"
       gradientUnits="userSpaceOnUse" />
    <linearGradient
       inkscape:collect="always"
       xlink:href="#linearGradient3957"
       id="linearGradient3975"
       x1="26.512123"
       y1="8.6859531"
       x2="10.476706"
       y2="23.648087"
       gradientUnits="userSpaceOnUse" />
    <linearGradient
       inkscape:collect="always"
       xlink:href="#linearGradient3957"
       id="linearGradient3983"
       x1="26.512123"
       y1="8.6859531"
       x2="10.476706"
       y2="23.648087"
       gradientUnits="userSpaceOnUse" />
  </defs>
  <sodipodi:namedview
     pagecolor="#ffffff"
     bordercolor="#666666"
     borderopacity="1"
     objecttolerance="10"
     gridtolerance="10"
     guidetolerance="10"
     inkscape:pageopacity="0"
     inkscape:pageshadow="2"
     inkscape:window-width="640"
     inkscape:window-height="480"
     id="namedview6"
     showgrid="false"
     inkscape:zoom="10.40625"
     inkscape:cx="0.38438438"
     inkscape:cy="16"
     inkscape:current-layer="vector" />
  <path
     style="fill:url(#linearGradient3959);stroke:url(#linearGradient3967);stroke-width:2;stroke-linecap:round;stroke-linejoin:round;fill-opacity:1"
     inkscape:connector-curvature="0"
     d="M 16.200424,13.006702 C 9.2160632,12.539046 4.8909596,17.260643 5.4878772,23.314046 -0.96201941,14.864263 5.8930801,2.2941556 16.868504,3.029044 m 4.65479,5.3228694 c -0.08859,1.3230375 -0.69939,2.5569876 -1.696963,3.4302926 -0.998503,0.872241 -2.302869,1.313084 -3.625907,1.224496 -1.323037,-0.08859 -2.556988,-0.699389 -3.430293,-1.696962 -0.872241,-0.998503 -1.313083,-2.3028694 -1.224496,-3.625907 0.08859,-1.3230375 0.69939,-2.5569878 1.696962,-3.430293 0.998504,-0.8722407 2.30287,-1.3130835 3.625907,-1.224496 1.323038,0.088587 2.556988,0.6993899 3.430294,1.6969624 0.87224,0.9985035 1.313083,2.3028695 1.224496,3.625907 z"
     id="path_1" />
  <path
     style="fill:url(#linearGradient3983);stroke:url(#linearGradient3975);stroke-width:2;stroke-linecap:round;stroke-linejoin:round;fill-opacity:1"
     inkscape:connector-curvature="0"
     d="M 15.799576,18.993298 C 22.783937,19.460954 27.10904,14.739357 26.512123,8.6859536 32.962019,17.135737 26.10692,29.705844 15.131496,28.970956 m -4.65479,-5.322869 c 0.08859,-1.323038 0.69939,-2.556988 1.696963,-3.430293 0.998503,-0.872241 2.302869,-1.313084 3.625907,-1.224496 1.323037,0.08859 2.556988,0.699389 3.430293,1.696962 0.872241,0.998503 1.313083,2.302869 1.224496,3.625907 -0.08859,1.323037 -0.69939,2.556988 -1.696962,3.430293 -0.998504,0.872241 -2.30287,1.313083 -3.625907,1.224496 -1.323038,-0.08859 -2.556988,-0.69939 -3.430294,-1.696962 -0.87224,-0.998504 -1.313083,-2.30287 -1.224496,-3.625907 z"
     id="path_2" />
</svg>
