<?xml version="1.0" encoding="UTF-8" standalone="no"?>
<svg
        xmlns:dc="http://purl.org/dc/elements/1.1/"
        xmlns:cc="http://creativecommons.org/ns#"
        xmlns:rdf="http://www.w3.org/1999/02/22-rdf-syntax-ns#"
        xmlns="http://www.w3.org/2000/svg"
        xmlns:xlink="http://www.w3.org/1999/xlink"
        xmlns:sodipodi="http://sodipodi.sourceforge.net/DTD/sodipodi-0.dtd"
        xmlns:inkscape="http://www.inkscape.org/namespaces/inkscape"
        viewBox="0 0 32 32"
        id="vector"
        width="32px"
        height="32px"
        version="1.1"
        sodipodi:docname="frame28.svg"
        inkscape:version="0.92.4 (5da689c313, 2019-01-14)"
        inkscape:export-filename="D:\IdeaProjects\donim\icons\30fps\frame28.png"
        inkscape:export-xdpi="48"
        inkscape:export-ydpi="48">
  <metadata
     id="metadata10">
    <rdf:RDF>
      <cc:Work
         rdf:about="">
        <dc:format>image/svg+xml</dc:format>
        <dc:type
           rdf:resource="http://purl.org/dc/dcmitype/StillImage" />
      </cc:Work>
    </rdf:RDF>
  </metadata>
  <defs
     id="defs8">
    <linearGradient
       inkscape:collect="always"
       id="linearGradient3957">
      <stop
         style="stop-color:#003878;stop-opacity:1"
         offset="0"
         id="stop3953" />
      <stop
         style="stop-color:#1985ff;stop-opacity:1"
         offset="1"
         id="stop3955" />
    </linearGradient>
    <linearGradient
       inkscape:collect="always"
       xlink:href="#linearGradient3957"
       id="linearGradient3959"
       x1="6.8079228"
       y1="7.0834022"
       x2="24.564396"
       y2="19.956154"
       gradientUnits="userSpaceOnUse" />
    <linearGradient
       inkscape:collect="always"
       xlink:href="#linearGradient3957"
       id="linearGradient3967"
       x1="6.8079228"
       y1="7.0834022"
       x2="24.564396"
       y2="19.956154"
       gradientUnits="userSpaceOnUse" />
    <linearGradient
       inkscape:collect="always"
       xlink:href="#linearGradient3957"
       id="linearGradient3975"
       x1="25.192078"
       y1="24.916597"
       x2="7.4356055"
       y2="12.043847"
       gradientUnits="userSpaceOnUse" />
    <linearGradient
       inkscape:collect="always"
       xlink:href="#linearGradient3957"
       id="linearGradient3985"
       gradientUnits="userSpaceOnUse"
       x1="25.192078"
       y1="24.916597"
       x2="7.4356055"
       y2="12.043847" />
  </defs>
  <sodipodi:namedview
     pagecolor="#ffffff"
     bordercolor="#666666"
     borderopacity="1"
     objecttolerance="10"
     gridtolerance="10"
     guidetolerance="10"
     inkscape:pageopacity="0"
     inkscape:pageshadow="2"
     inkscape:window-width="640"
     inkscape:window-height="480"
     id="namedview6"
     showgrid="false"
     inkscape:zoom="10.40625"
     inkscape:cx="-13.981982"
     inkscape:cy="16"
     inkscape:current-layer="vector" />
  <path
     style="fill:url(#linearGradient3985);stroke:url(#linearGradient3975);stroke-width:2;stroke-linecap:round;stroke-linejoin:round;fill-opacity:1.0"
     inkscape:connector-curvature="0"
     d="m 13.023733,16.376609 c 0.878755,6.944624 6.341346,10.285297 12.168344,8.539989 C 18.13412,32.865513 4.4837445,28.544954 3.102843,17.631974 m 4.3327625,-5.588127 c 1.31551,-0.166461 2.6436045,0.196687 3.6918125,1.008521 1.04734,0.812952 1.729854,2.008731 1.896315,3.324241 0.166461,1.315511 -0.196687,2.643605 -1.008521,3.691813 -0.812952,1.04734 -2.008731,1.729854 -3.3242415,1.896315 C 7.3754605,22.131198 6.0473655,21.76805 4.9991583,20.956216 3.9518177,20.143264 3.2693044,18.947485 3.102843,17.631974 2.9363816,16.316464 3.2995301,14.98837 4.1113642,13.940162 4.924316,12.892822 6.1200955,12.210308 7.4356055,12.043847 Z"
     id="path_1" />
  <path
     style="fill:url(#linearGradient3959);stroke:url(#linearGradient3967);stroke-width:2;stroke-linecap:round;stroke-linejoin:round;fill-opacity:1"
     inkscape:connector-curvature="0"
     d="M 18.976267,15.623391 C 18.097512,8.6787675 12.634921,5.338094 6.807923,7.083402 13.86588,-0.86551303 27.516256,3.4550465 28.897157,14.368026 m -4.332762,5.588127 c -1.315511,0.166461 -2.643605,-0.196687 -3.691813,-1.008521 -1.04734,-0.812952 -1.729854,-2.008731 -1.896315,-3.324241 -0.166461,-1.315511 0.196687,-2.643605 1.008521,-3.691813 0.812952,-1.04734 2.008731,-1.729854 3.324242,-1.896315 1.31551,-0.1664614 2.643604,0.196687 3.691812,1.008521 1.04734,0.812952 1.729854,2.008731 1.896315,3.324242 0.166461,1.31551 -0.196687,2.643604 -1.008521,3.691812 -0.812952,1.04734 -2.008731,1.729854 -3.324241,1.896315 z"
     id="path_2" />
</svg>
