<?xml version="1.0" encoding="UTF-8" standalone="no"?>
<svg
        xmlns:dc="http://purl.org/dc/elements/1.1/"
        xmlns:cc="http://creativecommons.org/ns#"
        xmlns:rdf="http://www.w3.org/1999/02/22-rdf-syntax-ns#"
        xmlns="http://www.w3.org/2000/svg"
        xmlns:xlink="http://www.w3.org/1999/xlink"
        xmlns:sodipodi="http://sodipodi.sourceforge.net/DTD/sodipodi-0.dtd"
        xmlns:inkscape="http://www.inkscape.org/namespaces/inkscape"
        viewBox="0 0 32 32"
        id="vector"
        width="32px"
        height="32px"
        version="1.1"
        sodipodi:docname="frame51.svg"
        inkscape:version="0.92.4 (5da689c313, 2019-01-14)"
        inkscape:export-filename="D:\IdeaProjects\donim\icons\30fps\frame51.png"
        inkscape:export-xdpi="48"
        inkscape:export-ydpi="48">
  <metadata
     id="metadata10">
    <rdf:RDF>
      <cc:Work
         rdf:about="">
        <dc:format>image/svg+xml</dc:format>
        <dc:type
           rdf:resource="http://purl.org/dc/dcmitype/StillImage" />
      </cc:Work>
    </rdf:RDF>
  </metadata>
  <defs
     id="defs8">
    <linearGradient
       inkscape:collect="always"
       id="linearGradient3957">
      <stop
         style="stop-color:#003878;stop-opacity:1"
         offset="0"
         id="stop3953" />
      <stop
         style="stop-color:#1985ff;stop-opacity:1"
         offset="1"
         id="stop3955" />
    </linearGradient>
    <linearGradient
       inkscape:collect="always"
       xlink:href="#linearGradient3957"
       id="linearGradient3959"
       x1="6.7012687"
       y1="24.805317"
       x2="20.316114"
       y2="7.611248"
       gradientUnits="userSpaceOnUse" />
    <linearGradient
       inkscape:collect="always"
       xlink:href="#linearGradient3957"
       id="linearGradient3967"
       x1="6.7012687"
       y1="24.805317"
       x2="20.316114"
       y2="7.611248"
       gradientUnits="userSpaceOnUse" />
    <linearGradient
       inkscape:collect="always"
       xlink:href="#linearGradient3957"
       id="linearGradient3975"
       x1="25.298731"
       y1="7.1946836"
       x2="11.683886"
       y2="24.388752"
       gradientUnits="userSpaceOnUse" />
    <linearGradient
       inkscape:collect="always"
       xlink:href="#linearGradient3957"
       id="linearGradient3983"
       x1="25.298731"
       y1="7.1946836"
       x2="11.683886"
       y2="24.388752"
       gradientUnits="userSpaceOnUse" />
  </defs>
  <sodipodi:namedview
     pagecolor="#ffffff"
     bordercolor="#666666"
     borderopacity="1"
     objecttolerance="10"
     gridtolerance="10"
     guidetolerance="10"
     inkscape:pageopacity="0"
     inkscape:pageshadow="2"
     inkscape:window-width="640"
     inkscape:window-height="480"
     id="namedview6"
     showgrid="false"
     inkscape:zoom="10.40625"
     inkscape:cx="-13.981982"
     inkscape:cy="16"
     inkscape:current-layer="vector" />
  <path
     style="fill:url(#linearGradient3959);stroke:url(#linearGradient3967);stroke-width:2;stroke-linecap:round;stroke-linejoin:round;fill-opacity:1"
     inkscape:connector-curvature="0"
     d="M 15.750061,13.01043 C 8.7743973,13.59362 5.204868,18.909489 6.7012687,24.805316 -0.94089844,17.416319 3.9551746,3.9616371 14.916932,3.0451953 m 5.399182,4.5660527 c 0.110473,1.3213901 -0.308721,2.632874 -1.164316,3.645677 -0.856675,1.01189 -2.080347,1.643032 -3.401737,1.753505 -1.32139,0.110473 -2.632873,-0.308721 -3.645677,-1.164316 C 11.092494,10.989439 10.461353,9.765767 10.35088,8.444377 10.240407,7.1229869 10.659601,5.8115032 11.515196,4.7987 12.37187,3.7868101 13.595542,3.1556682 14.916932,3.0451953 c 1.32139,-0.1104729 2.632874,0.308721 3.645677,1.1643159 1.01189,0.8566748 1.643032,2.0803468 1.753505,3.4017368 z"
     id="path_1" />
  <path
     style="fill:url(#linearGradient3983);stroke:url(#linearGradient3975);stroke-width:2;stroke-linecap:round;stroke-linejoin:round;fill-opacity:1"
     inkscape:connector-curvature="0"
     d="m 16.249939,18.98957 c 6.975664,-0.58319 10.545193,-5.899059 9.048792,-11.7948864 7.642167,7.3889974 2.746094,20.8436794 -8.215663,21.7601214 m -5.399182,-4.566053 c -0.110473,-1.32139 0.308721,-2.632874 1.164316,-3.645677 0.856675,-1.01189 2.080347,-1.643032 3.401737,-1.753505 1.32139,-0.110473 2.632873,0.308721 3.645677,1.164316 1.01189,0.856675 1.643031,2.080347 1.753504,3.401737 0.110473,1.32139 -0.308721,2.632874 -1.164316,3.645677 -0.856674,1.01189 -2.080346,1.643032 -3.401736,1.753505 -1.32139,0.110473 -2.632874,-0.308721 -3.645677,-1.164316 -1.01189,-0.856675 -1.643032,-2.080347 -1.753505,-3.401737 z"
     id="path_2" />
</svg>
