<?xml version="1.0" encoding="UTF-8" standalone="no"?>
<svg
        xmlns:dc="http://purl.org/dc/elements/1.1/"
        xmlns:cc="http://creativecommons.org/ns#"
        xmlns:rdf="http://www.w3.org/1999/02/22-rdf-syntax-ns#"
        xmlns="http://www.w3.org/2000/svg"
        xmlns:xlink="http://www.w3.org/1999/xlink"
        xmlns:sodipodi="http://sodipodi.sourceforge.net/DTD/sodipodi-0.dtd"
        xmlns:inkscape="http://www.inkscape.org/namespaces/inkscape"
        viewBox="0 0 32 32"
        id="vector"
        width="32px"
        height="32px"
        version="1.1"
        sodipodi:docname="frame39.svg"
        inkscape:version="0.92.4 (5da689c313, 2019-01-14)"
        inkscape:export-filename="D:\IdeaProjects\donim\icons\30fps\frame39.png"
        inkscape:export-xdpi="48"
        inkscape:export-ydpi="48">
  <metadata
     id="metadata10">
    <rdf:RDF>
      <cc:Work
         rdf:about="">
        <dc:format>image/svg+xml</dc:format>
        <dc:type
           rdf:resource="http://purl.org/dc/dcmitype/StillImage" />
      </cc:Work>
    </rdf:RDF>
  </metadata>
  <defs
     id="defs8">
    <linearGradient
       inkscape:collect="always"
       id="linearGradient3957">
      <stop
         style="stop-color:#003878;stop-opacity:1"
         offset="0"
         id="stop3953" />
      <stop
         style="stop-color:#1985ff;stop-opacity:1"
         offset="1"
         id="stop3955" />
    </linearGradient>
    <linearGradient
       inkscape:collect="always"
       xlink:href="#linearGradient3957"
       id="linearGradient3959"
       x1="11.775625"
       y1="28.089443"
       x2="15.987811"
       y2="6.5660267"
       gradientUnits="userSpaceOnUse" />
    <linearGradient
       inkscape:collect="always"
       xlink:href="#linearGradient3957"
       id="linearGradient3967"
       x1="11.775625"
       y1="28.089443"
       x2="15.987811"
       y2="6.5660267"
       gradientUnits="userSpaceOnUse" />
    <linearGradient
       inkscape:collect="always"
       xlink:href="#linearGradient3957"
       id="linearGradient3975"
       x1="20.224375"
       y1="3.9105558"
       x2="16.01219"
       y2="25.433973"
       gradientUnits="userSpaceOnUse" />
    <linearGradient
       inkscape:collect="always"
       xlink:href="#linearGradient3957"
       id="linearGradient3983"
       x1="20.224375"
       y1="3.9105558"
       x2="16.01219"
       y2="25.433973"
       gradientUnits="userSpaceOnUse" />
  </defs>
  <sodipodi:namedview
     pagecolor="#ffffff"
     bordercolor="#666666"
     borderopacity="1"
     objecttolerance="10"
     gridtolerance="10"
     guidetolerance="10"
     inkscape:pageopacity="0"
     inkscape:pageshadow="2"
     inkscape:window-width="640"
     inkscape:window-height="480"
     id="namedview6"
     showgrid="false"
     inkscape:zoom="10.40625"
     inkscape:cx="-13.981982"
     inkscape:cy="16"
     inkscape:current-layer="vector" />
  <path
     style="fill:url(#linearGradient3959);stroke:url(#linearGradient3967);stroke-width:2;stroke-linecap:round;stroke-linejoin:round;fill-opacity:1"
     inkscape:connector-curvature="0"
     d="M 14.406717,13.458062 C 8.4755279,17.175721 7.7417476,23.536662 11.775625,28.089444 1.5956825,25.028601 -0.22466508,10.82697 9.0957757,4.9849337 m 6.8920353,1.581093 c 0.70423,1.1235368 0.933248,2.4812053 0.637483,3.7736203 -0.297145,1.292098 -1.09504,2.414184 -2.218577,3.118415 -1.123536,0.70423 -2.481205,0.933248 -3.773619,0.637483 C 9.3409991,13.798401 8.2189135,13.000505 7.5146826,11.876969 6.8104517,10.753432 6.5814338,9.3957633 6.8771995,8.1033486 7.1743437,6.8112502 7.9722389,5.6891646 9.0957757,4.9849337 10.219312,4.2807028 11.576981,4.0516848 12.869396,4.3474506 14.161494,4.6445947 15.28358,5.44249 15.987811,6.5660267 Z"
     id="path_1" />
  <path
     style="fill:url(#linearGradient3983);stroke:url(#linearGradient3975);stroke-width:2;stroke-linecap:round;stroke-linejoin:round;fill-opacity:1"
     inkscape:connector-curvature="0"
     d="M 17.593283,18.541938 C 23.524472,14.824279 24.258252,8.4633384 20.224375,3.9105558 30.404318,6.9713989 32.224665,21.17303 22.904224,27.015066 m -6.892035,-1.581093 c -0.70423,-1.123537 -0.933248,-2.481205 -0.637483,-3.77362 0.297145,-1.292098 1.09504,-2.414184 2.218577,-3.118415 1.123536,-0.70423 2.481205,-0.933248 3.773619,-0.637483 1.292099,0.297144 2.414185,1.09504 3.118415,2.218576 0.704231,1.123537 0.933249,2.481206 0.637484,3.77362 -0.297145,1.292099 -1.09504,2.414184 -2.218577,3.118415 -1.123536,0.704231 -2.481205,0.933249 -3.77362,0.637483 -1.292098,-0.297144 -2.414184,-1.095039 -3.118415,-2.218576 z"
     id="path_2" />
</svg>
