<?xml version="1.0" encoding="UTF-8" standalone="no"?>
<svg
        xmlns:dc="http://purl.org/dc/elements/1.1/"
        xmlns:cc="http://creativecommons.org/ns#"
        xmlns:rdf="http://www.w3.org/1999/02/22-rdf-syntax-ns#"
        xmlns="http://www.w3.org/2000/svg"
        xmlns:xlink="http://www.w3.org/1999/xlink"
        xmlns:sodipodi="http://sodipodi.sourceforge.net/DTD/sodipodi-0.dtd"
        xmlns:inkscape="http://www.inkscape.org/namespaces/inkscape"
        viewBox="0 0 32 32"
        id="vector"
        width="32px"
        height="32px"
        version="1.1"
        sodipodi:docname="frame32.svg"
        inkscape:version="0.92.4 (5da689c313, 2019-01-14)"
        inkscape:export-filename="D:\IdeaProjects\donim\icons\30fps\frame32.png"
        inkscape:export-xdpi="48"
        inkscape:export-ydpi="48">
  <metadata
     id="metadata10">
    <rdf:RDF>
      <cc:Work
         rdf:about="">
        <dc:format>image/svg+xml</dc:format>
        <dc:type
           rdf:resource="http://purl.org/dc/dcmitype/StillImage" />
      </cc:Work>
    </rdf:RDF>
  </metadata>
  <defs
     id="defs8">
    <linearGradient
       inkscape:collect="always"
       id="linearGradient3957">
      <stop
         style="stop-color:#003878;stop-opacity:1"
         offset="0"
         id="stop3953" />
      <stop
         style="stop-color:#1985ff;stop-opacity:1"
         offset="1"
         id="stop3955" />
    </linearGradient>
    <linearGradient
       inkscape:collect="always"
       xlink:href="#linearGradient3957"
       id="linearGradient3959"
       x1="12.585368"
       y1="3.6573792"
       x2="21.383982"
       y2="23.74679"
       gradientUnits="userSpaceOnUse" />
    <linearGradient
       inkscape:collect="always"
       xlink:href="#linearGradient3957"
       id="linearGradient3967"
       x1="12.585368"
       y1="3.6573792"
       x2="21.383982"
       y2="23.74679"
       gradientUnits="userSpaceOnUse" />
    <linearGradient
       inkscape:collect="always"
       xlink:href="#linearGradient3957"
       id="linearGradient3975"
       x1="19.414633"
       y1="28.342621"
       x2="10.616019"
       y2="8.2532101"
       gradientUnits="userSpaceOnUse" />
    <linearGradient
       inkscape:collect="always"
       xlink:href="#linearGradient3957"
       id="linearGradient3983"
       x1="19.414633"
       y1="28.342621"
       x2="10.616019"
       y2="8.2532101"
       gradientUnits="userSpaceOnUse" />
  </defs>
  <sodipodi:namedview
     pagecolor="#ffffff"
     bordercolor="#666666"
     borderopacity="1"
     objecttolerance="10"
     gridtolerance="10"
     guidetolerance="10"
     inkscape:pageopacity="0"
     inkscape:pageshadow="2"
     inkscape:window-width="640"
     inkscape:window-height="480"
     id="namedview6"
     showgrid="false"
     inkscape:zoom="10.40625"
     inkscape:cx="-13.981982"
     inkscape:cy="16"
     inkscape:current-layer="vector" />
  <path
     style="fill:url(#linearGradient3983);stroke:url(#linearGradient3975);stroke-width:2;stroke-linecap:round;stroke-linejoin:round;fill-opacity:1"
     inkscape:connector-curvature="0"
     d="m 13.242501,14.818391 c -2.757088,6.434163 0.263264,12.080177 6.172131,13.52423 C 9.3042137,31.625826 -0.28172886,20.990522 4.0508388,10.879693 M 10.616019,8.2532105 c 1.218814,0.5222713 2.180424,1.5076743 2.673546,2.7383825 0.491809,1.231234 0.475208,2.607983 -0.04706,3.826798 -0.522271,1.218814 -1.507674,2.180424 -2.738383,2.673546 C 9.2728844,17.983746 7.8961355,17.967144 6.6773211,17.444873 5.4585066,16.922602 4.4968965,15.937199 4.0037746,14.70649 3.5119657,13.475256 3.5285674,12.098507 4.0508388,10.879693 4.5731101,9.6608784 5.5585131,8.6992683 6.7892217,8.2061463 8.0204556,7.7143374 9.3972045,7.7309392 10.616019,8.2532105 Z"
     id="path_1" />
  <path
     style="fill:url(#linearGradient3959);stroke:url(#linearGradient3967);stroke-width:2;stroke-linecap:round;stroke-linejoin:round;fill-opacity:1"
     inkscape:connector-curvature="0"
     d="M 18.757499,17.181609 C 21.514587,10.747446 18.494235,5.1014317 12.585368,3.6573792 22.695786,0.37417377 32.281729,11.009478 27.949161,21.120307 m -6.56518,2.626483 c -1.218814,-0.522272 -2.180424,-1.507675 -2.673546,-2.738383 -0.491809,-1.231234 -0.475208,-2.607983 0.04706,-3.826798 0.522271,-1.218814 1.507674,-2.180424 2.738383,-2.673546 1.231234,-0.491809 2.607982,-0.475207 3.826797,0.04706 1.218814,0.522271 2.180424,1.507674 2.673546,2.738383 0.491809,1.231234 0.475208,2.607983 -0.04706,3.826797 -0.522271,1.218815 -1.507674,2.180425 -2.738383,2.673547 -1.231234,0.491809 -2.607982,0.475207 -3.826797,-0.04706 z"
     id="path_2" />
</svg>
