<?xml version="1.0" encoding="UTF-8" standalone="no"?>
<svg
        xmlns:dc="http://purl.org/dc/elements/1.1/"
        xmlns:cc="http://creativecommons.org/ns#"
        xmlns:rdf="http://www.w3.org/1999/02/22-rdf-syntax-ns#"
        xmlns="http://www.w3.org/2000/svg"
        xmlns:xlink="http://www.w3.org/1999/xlink"
        xmlns:sodipodi="http://sodipodi.sourceforge.net/DTD/sodipodi-0.dtd"
        xmlns:inkscape="http://www.inkscape.org/namespaces/inkscape"
        viewBox="0 0 32 32"
        id="vector"
        width="32px"
        height="32px"
        version="1.1"
        sodipodi:docname="frame31.svg"
        inkscape:version="0.92.4 (5da689c313, 2019-01-14)"
        inkscape:export-filename="D:\IdeaProjects\donim\icons\30fps\frame31.png"
        inkscape:export-xdpi="48"
        inkscape:export-ydpi="48">
  <metadata
     id="metadata10">
    <rdf:RDF>
      <cc:Work
         rdf:about="">
        <dc:format>image/svg+xml</dc:format>
        <dc:type
           rdf:resource="http://purl.org/dc/dcmitype/StillImage" />
      </cc:Work>
    </rdf:RDF>
  </metadata>
  <defs
     id="defs8">
    <linearGradient
       inkscape:collect="always"
       id="linearGradient3957">
      <stop
         style="stop-color:#003878;stop-opacity:1"
         offset="0"
         id="stop3953" />
      <stop
         style="stop-color:#1985ff;stop-opacity:1"
         offset="1"
         id="stop3955" />
    </linearGradient>
    <linearGradient
       inkscape:collect="always"
       xlink:href="#linearGradient3957"
       id="linearGradient3959"
       x1="11.164683"
       y1="4.1416817"
       x2="22.253408"
       y2="23.063631"
       gradientUnits="userSpaceOnUse" />
    <linearGradient
       inkscape:collect="always"
       xlink:href="#linearGradient3957"
       id="linearGradient3967"
       x1="11.164683"
       y1="4.1416817"
       x2="22.253408"
       y2="23.063631"
       gradientUnits="userSpaceOnUse" />
    <linearGradient
       inkscape:collect="always"
       xlink:href="#linearGradient3957"
       id="linearGradient3975"
       x1="20.835318"
       y1="27.858318"
       x2="9.7465925"
       y2="8.936368"
       gradientUnits="userSpaceOnUse" />
    <linearGradient
       inkscape:collect="always"
       xlink:href="#linearGradient3957"
       id="linearGradient3983"
       x1="20.835318"
       y1="27.858318"
       x2="9.7465925"
       y2="8.936368"
       gradientUnits="userSpaceOnUse" />
  </defs>
  <sodipodi:namedview
     pagecolor="#ffffff"
     bordercolor="#666666"
     borderopacity="1"
     objecttolerance="10"
     gridtolerance="10"
     guidetolerance="10"
     inkscape:pageopacity="0"
     inkscape:pageshadow="2"
     inkscape:window-width="640"
     inkscape:window-height="480"
     id="namedview6"
     showgrid="false"
     inkscape:zoom="10.40625"
     inkscape:cx="-13.981982"
     inkscape:cy="16"
     inkscape:current-layer="vector" />
  <path
     style="fill:url(#linearGradient3983);stroke:url(#linearGradient3975);stroke-width:2;stroke-linecap:round;stroke-linejoin:round;fill-opacity:1"
     inkscape:connector-curvature="0"
     d="m 13.123188,15.149146 c -1.985327,6.712561 1.674887,11.966401 7.712129,12.709172 C 11.178492,32.301934 0.41401551,22.861274 3.5338151,12.312964 M 9.7465923,8.9363684 c 1.2715507,0.3760776 2.3418527,1.2421996 2.9755857,2.4067576 0.63249,1.165234 0.777088,2.534469 0.40101,3.80602 -0.376078,1.27155 -1.2422,2.341852 -2.406758,2.975585 -1.1652333,0.63249 -2.5344683,0.777088 -3.8060191,0.40101 C 5.63886,18.149664 4.5685585,17.283541 3.9348255,16.118983 3.3023351,14.95375 3.1577374,13.584515 3.5338151,12.312964 3.9098927,11.041413 4.776015,9.9711118 5.940573,9.3373788 7.1058064,8.7048884 8.4750414,8.5602907 9.7465923,8.9363684 Z"
     id="path_1" />
  <path
     style="fill:url(#linearGradient3959);stroke:url(#linearGradient3967);stroke-width:2;stroke-linecap:round;stroke-linejoin:round;fill-opacity:1"
     inkscape:connector-curvature="0"
     d="M 18.876812,16.850854 C 20.862139,10.138293 17.201925,4.8844534 11.164683,4.1416818 20.821508,-0.30193414 31.585984,9.1387255 28.466185,19.687036 m -6.212777,3.376596 c -1.271551,-0.376078 -2.341853,-1.2422 -2.975586,-2.406758 -0.63249,-1.165234 -0.777088,-2.534469 -0.40101,-3.80602 0.376078,-1.27155 1.2422,-2.341852 2.406758,-2.975585 1.165233,-0.63249 2.534468,-0.777088 3.806019,-0.40101 1.271551,0.376077 2.341852,1.2422 2.975585,2.406758 0.632491,1.165233 0.777089,2.534468 0.401011,3.806019 -0.376078,1.271551 -1.2422,2.341852 -2.406758,2.975585 -1.165233,0.632491 -2.534468,0.777088 -3.806019,0.401011 z"
     id="path_2" />
</svg>
