<?xml version="1.0" encoding="UTF-8" standalone="no"?>
<svg
        xmlns:dc="http://purl.org/dc/elements/1.1/"
        xmlns:cc="http://creativecommons.org/ns#"
        xmlns:rdf="http://www.w3.org/1999/02/22-rdf-syntax-ns#"
        xmlns="http://www.w3.org/2000/svg"
        xmlns:xlink="http://www.w3.org/1999/xlink"
        xmlns:sodipodi="http://sodipodi.sourceforge.net/DTD/sodipodi-0.dtd"
        xmlns:inkscape="http://www.inkscape.org/namespaces/inkscape"
        viewBox="0 0 32 32"
        id="vector"
        width="32px"
        height="32px"
        version="1.1"
        sodipodi:docname="frame55.svg"
        inkscape:version="0.92.4 (5da689c313, 2019-01-14)"
        inkscape:export-filename="D:\IdeaProjects\donim\icons\30fps\frame55.png"
        inkscape:export-xdpi="48"
        inkscape:export-ydpi="48">
  <metadata
     id="metadata10">
    <rdf:RDF>
      <cc:Work
         rdf:about="">
        <dc:format>image/svg+xml</dc:format>
        <dc:type
           rdf:resource="http://purl.org/dc/dcmitype/StillImage" />
      </cc:Work>
    </rdf:RDF>
  </metadata>
  <defs
     id="defs8">
    <linearGradient
       inkscape:collect="always"
       id="linearGradient3957">
      <stop
         style="stop-color:#003878;stop-opacity:1"
         offset="0"
         id="stop3953" />
      <stop
         style="stop-color:#1985ff;stop-opacity:1"
         offset="1"
         id="stop3955" />
    </linearGradient>
    <linearGradient
       inkscape:collect="always"
       xlink:href="#linearGradient3957"
       id="linearGradient3959"
       x1="6.1972589"
       y1="24.240526"
       x2="20.804216"
       y2="7.8809171"
       gradientUnits="userSpaceOnUse" />
    <linearGradient
       inkscape:collect="always"
       xlink:href="#linearGradient3957"
       id="linearGradient3967"
       x1="6.1972589"
       y1="24.240526"
       x2="20.804216"
       y2="7.8809171"
       gradientUnits="userSpaceOnUse" />
    <linearGradient
       inkscape:collect="always"
       xlink:href="#linearGradient3957"
       id="linearGradient3975"
       x1="25.80274"
       y1="7.7594743"
       x2="11.195784"
       y2="24.119083"
       gradientUnits="userSpaceOnUse" />
    <linearGradient
       inkscape:collect="always"
       xlink:href="#linearGradient3957"
       id="linearGradient3983"
       x1="25.80274"
       y1="7.7594743"
       x2="11.195784"
       y2="24.119083"
       gradientUnits="userSpaceOnUse" />
  </defs>
  <sodipodi:namedview
     pagecolor="#ffffff"
     bordercolor="#666666"
     borderopacity="1"
     objecttolerance="10"
     gridtolerance="10"
     guidetolerance="10"
     inkscape:pageopacity="0"
     inkscape:pageshadow="2"
     inkscape:window-width="640"
     inkscape:window-height="480"
     id="namedview6"
     showgrid="false"
     inkscape:zoom="10.40625"
     inkscape:cx="-13.981982"
     inkscape:cy="16"
     inkscape:current-layer="vector" />
  <path
     style="fill:url(#linearGradient3959);stroke:url(#linearGradient3967);stroke-width:2;stroke-linecap:round;stroke-linejoin:round;fill-opacity:1"
     inkscape:connector-curvature="0"
     d="M 15.927134,13.000885 C 8.9291993,13.170905 5.0518223,18.266585 6.1972589,24.240526 -0.99498481,16.412906 4.6874934,3.2710097 15.684248,3.0038351 m 5.119968,4.877082 c 0.03221,1.3256088 -0.463743,2.6100339 -1.377683,3.5705149 -0.914965,0.959507 -2.17379,1.517246 -3.499399,1.549453 -1.325609,0.03221 -2.610033,-0.463743 -3.570515,-1.377684 -0.959506,-0.914964 -1.517246,-2.1737891 -1.549453,-3.4993979 -0.03221,-1.3256088 0.463743,-2.6100337 1.377684,-3.5705154 0.914965,-0.9595062 2.173789,-1.5172459 3.499398,-1.5494526 1.325609,-0.032207 2.610034,0.4637428 3.570516,1.3776837 0.959506,0.9149648 1.517245,2.1737895 1.549452,3.4993983 z"
     id="path_1" />
  <path
     style="fill:url(#linearGradient3975);stroke:url(#linearGradient3983);stroke-width:2;stroke-linecap:round;stroke-linejoin:round;fill-opacity:1"
     inkscape:connector-curvature="0"
     d="m 16.072866,18.999115 c 6.997935,-0.17002 10.875312,-5.2657 9.729875,-11.2396409 7.192244,7.8276199 1.509766,20.9695159 -9.486989,21.2366909 m -5.119968,-4.877082 c -0.03221,-1.325609 0.463743,-2.610034 1.377683,-3.570515 0.914965,-0.959507 2.17379,-1.517246 3.499399,-1.549453 1.325609,-0.03221 2.610033,0.463743 3.570515,1.377684 0.959506,0.914964 1.517246,2.173789 1.549453,3.499398 0.03221,1.325609 -0.463743,2.610034 -1.377684,3.570515 -0.914965,0.959507 -2.173789,1.517246 -3.499398,1.549453 -1.325609,0.03221 -2.610034,-0.463743 -3.570516,-1.377684 -0.959506,-0.914965 -1.517245,-2.173789 -1.549452,-3.499398 z"
     id="path_2" />
</svg>
