<?xml version="1.0" encoding="UTF-8" standalone="no"?>
<svg
        xmlns:dc="http://purl.org/dc/elements/1.1/"
        xmlns:cc="http://creativecommons.org/ns#"
        xmlns:rdf="http://www.w3.org/1999/02/22-rdf-syntax-ns#"
        xmlns="http://www.w3.org/2000/svg"
        xmlns:xlink="http://www.w3.org/1999/xlink"
        xmlns:sodipodi="http://sodipodi.sourceforge.net/DTD/sodipodi-0.dtd"
        xmlns:inkscape="http://www.inkscape.org/namespaces/inkscape"
        viewBox="0 0 32 32"
        id="vector"
        width="32px"
        height="32px"
        version="1.1"
        sodipodi:docname="frame24.svg"
        inkscape:version="0.92.4 (5da689c313, 2019-01-14)"
        inkscape:export-filename="D:\IdeaProjects\donim\icons\30fps\frame24.png"
        inkscape:export-xdpi="48"
        inkscape:export-ydpi="48">
  <metadata
     id="metadata10">
    <rdf:RDF>
      <cc:Work
         rdf:about="">
        <dc:format>image/svg+xml</dc:format>
        <dc:type
           rdf:resource="http://purl.org/dc/dcmitype/StillImage" />
      </cc:Work>
    </rdf:RDF>
  </metadata>
  <defs
     id="defs8">
    <linearGradient
       inkscape:collect="always"
       id="linearGradient3957">
      <stop
         style="stop-color:#003878;stop-opacity:1"
         offset="0"
         id="stop3953" />
      <stop
         style="stop-color:#1985ff;stop-opacity:1"
         offset="1"
         id="stop3955" />
    </linearGradient>
    <linearGradient
       inkscape:collect="always"
       xlink:href="#linearGradient3957"
       id="linearGradient3959"
       x1="3.2034874"
       y1="15.500735"
       x2="25.016909"
       y2="13.225949"
       gradientUnits="userSpaceOnUse" />
    <linearGradient
       inkscape:collect="always"
       xlink:href="#linearGradient3957"
       id="linearGradient3967"
       x1="3.2034874"
       y1="15.500735"
       x2="25.016909"
       y2="13.225949"
       gradientUnits="userSpaceOnUse" />
    <linearGradient
       inkscape:collect="always"
       xlink:href="#linearGradient3957"
       id="linearGradient3975"
       x1="28.796513"
       y1="16.499266"
       x2="6.9830914"
       y2="18.774052"
       gradientUnits="userSpaceOnUse" />
    <linearGradient
       inkscape:collect="always"
       xlink:href="#linearGradient3957"
       id="linearGradient3983"
       x1="28.796513"
       y1="16.499266"
       x2="6.9830914"
       y2="18.774052"
       gradientUnits="userSpaceOnUse" />
  </defs>
  <sodipodi:namedview
     pagecolor="#ffffff"
     bordercolor="#666666"
     borderopacity="1"
     objecttolerance="10"
     gridtolerance="10"
     guidetolerance="10"
     inkscape:pageopacity="0"
     inkscape:pageshadow="2"
     inkscape:window-width="640"
     inkscape:window-height="480"
     id="namedview6"
     showgrid="false"
     inkscape:zoom="10.40625"
     inkscape:cx="-13.981982"
     inkscape:cy="16"
     inkscape:current-layer="vector" />
  <path
     style="fill:url(#linearGradient3983);stroke:url(#linearGradient3975);stroke-width:2;stroke-linecap:round;stroke-linejoin:round;fill-opacity:1"
     inkscape:connector-curvature="0"
     d="m 14.036011,18.267762 c 5.291445,4.582642 11.588444,3.421691 14.760502,-1.768497 0.05414,10.630008 -12.992005,16.528999 -21.3071334,9.327705 M 6.9830913,18.774051 c 0.8680833,-1.002351 2.099185,-1.618875 3.4215567,-1.714509 1.322473,-0.09422 2.629012,0.340137 3.631363,1.20822 1.002351,0.868084 1.618874,2.099185 1.714509,3.421557 0.09422,1.322473 -0.340138,2.629012 -1.208221,3.631363 -0.868083,1.002351 -2.099185,1.618874 -3.421557,1.714509 C 9.7982692,27.129415 8.4917305,26.695053 7.4893796,25.82697 6.4870286,24.958887 5.8705049,23.727785 5.7748705,22.405413 5.6806468,21.08294 6.115008,19.776402 6.9830913,18.774051 Z"
     id="path_1" />
  <path
     style="fill:url(#linearGradient3959);stroke:url(#linearGradient3967);stroke-width:2;stroke-linecap:round;stroke-linejoin:round;fill-opacity:1"
     inkscape:connector-curvature="0"
     d="M 17.963989,13.732238 C 12.672544,9.1495959 6.3755453,10.310547 3.2034874,15.500735 3.1493469,4.8707272 16.195492,-1.0282642 24.51062,6.17303 m 0.506289,7.052919 c -0.868084,1.002351 -2.099185,1.618875 -3.421557,1.714509 -1.322473,0.09422 -2.629012,-0.340137 -3.631363,-1.20822 -1.002351,-0.868084 -1.618874,-2.099185 -1.714509,-3.421557 -0.09422,-1.3224731 0.340138,-2.6290118 1.208221,-3.6313627 0.868083,-1.002351 2.099185,-1.6188747 3.421557,-1.7145091 1.322473,-0.094224 2.629011,0.3401375 3.631362,1.2082208 1.002351,0.8680832 1.618875,2.099185 1.714509,3.4215567 0.09422,1.3224733 -0.340137,2.6290113 -1.20822,3.6313623 z"
     id="path_2" />
</svg>
