<?xml version="1.0" encoding="UTF-8" standalone="no"?>
<svg
        xmlns:dc="http://purl.org/dc/elements/1.1/"
        xmlns:cc="http://creativecommons.org/ns#"
        xmlns:rdf="http://www.w3.org/1999/02/22-rdf-syntax-ns#"
        xmlns="http://www.w3.org/2000/svg"
        xmlns:xlink="http://www.w3.org/1999/xlink"
        xmlns:sodipodi="http://sodipodi.sourceforge.net/DTD/sodipodi-0.dtd"
        xmlns:inkscape="http://www.inkscape.org/namespaces/inkscape"
        viewBox="0 0 32 32"
        id="vector"
        width="32px"
        height="32px"
        version="1.1"
        sodipodi:docname="frame58.svg"
        inkscape:version="0.92.4 (5da689c313, 2019-01-14)"
        inkscape:export-filename="D:\IdeaProjects\donim\icons\30fps\frame58.png"
        inkscape:export-xdpi="48"
        inkscape:export-ydpi="48">
  <metadata
     id="metadata10">
    <rdf:RDF>
      <cc:Work
         rdf:about="">
        <dc:format>image/svg+xml</dc:format>
        <dc:type
           rdf:resource="http://purl.org/dc/dcmitype/StillImage" />
      </cc:Work>
    </rdf:RDF>
  </metadata>
  <defs
     id="defs8">
    <linearGradient
       inkscape:collect="always"
       id="linearGradient3957">
      <stop
         style="stop-color:#003878;stop-opacity:1"
         offset="0"
         id="stop3953" />
      <stop
         style="stop-color:#1985ff;stop-opacity:1"
         offset="1"
         id="stop3955" />
    </linearGradient>
    <linearGradient
       inkscape:collect="always"
       xlink:href="#linearGradient3957"
       id="linearGradient3959"
       x1="6.029922"
       y1="24.03726"
       x2="20.970114"
       y2="7.9813981"
       gradientUnits="userSpaceOnUse" />
    <linearGradient
       inkscape:collect="always"
       xlink:href="#linearGradient3957"
       id="linearGradient3967"
       x1="6.029922"
       y1="24.03726"
       x2="20.970114"
       y2="7.9813981"
       gradientUnits="userSpaceOnUse" />
    <linearGradient
       inkscape:collect="always"
       xlink:href="#linearGradient3957"
       id="linearGradient3975"
       x1="25.970078"
       y1="7.9627399"
       x2="11.029887"
       y2="24.018602"
       gradientUnits="userSpaceOnUse" />
    <linearGradient
       inkscape:collect="always"
       xlink:href="#linearGradient3957"
       id="linearGradient3983"
       x1="25.970078"
       y1="7.9627399"
       x2="11.029887"
       y2="24.018602"
       gradientUnits="userSpaceOnUse" />
  </defs>
  <sodipodi:namedview
     pagecolor="#ffffff"
     bordercolor="#666666"
     borderopacity="1"
     objecttolerance="10"
     gridtolerance="10"
     guidetolerance="10"
     inkscape:pageopacity="0"
     inkscape:pageshadow="2"
     inkscape:window-width="640"
     inkscape:window-height="480"
     id="namedview6"
     showgrid="false"
     inkscape:zoom="10.40625"
     inkscape:cx="-13.981982"
     inkscape:cy="16"
     inkscape:current-layer="vector" />
  <path
     style="fill:url(#linearGradient3959);stroke:url(#linearGradient3967);stroke-width:2;stroke-linecap:round;stroke-linejoin:round;fill-opacity:1"
     inkscape:connector-curvature="0"
     d="M 15.988805,13.000021 C 8.988854,13.026142 5.0075397,18.041033 6.0299221,24.03726 -0.99988164,16.063437 4.9515662,3.0411377 15.95149,3.0000905 m 5.018623,4.9813074 c 0.0049,1.3259907 -0.517302,2.5999481 -1.450795,3.5414381 -0.934497,0.940494 -2.204522,1.472237 -3.530513,1.477185 -1.32599,0.0049 -2.599948,-0.517302 -3.541438,-1.450795 -0.940494,-0.934497 -1.472237,-2.2045217 -1.477185,-3.5305125 -0.0049,-1.3259907 0.517302,-2.5999484 1.450795,-3.5414384 0.934497,-0.9404937 2.204522,-1.4722365 3.530513,-1.4771846 1.32599,-0.00495 2.599948,0.5173017 3.541438,1.450795 0.940494,0.934497 1.472237,2.2045216 1.477185,3.5305124 z"
     id="path_1" />
  <path
     style="fill:url(#linearGradient3975);stroke:url(#linearGradient3983);stroke-width:2;stroke-linecap:round;stroke-linejoin:round;fill-opacity:1"
     inkscape:connector-curvature="0"
     d="M 16.011195,18.999979 C 23.011146,18.973858 26.99246,13.958967 25.970078,7.9627401 32.999882,15.936563 27.048434,28.958862 16.04851,28.999909 m -5.018623,-4.981307 c -0.0049,-1.325991 0.517302,-2.599948 1.450795,-3.541438 0.934497,-0.940494 2.204522,-1.472237 3.530513,-1.477185 1.32599,-0.0049 2.599948,0.517302 3.541438,1.450795 0.940494,0.934497 1.472237,2.204522 1.477185,3.530512 0.0049,1.325991 -0.517302,2.599949 -1.450795,3.541439 -0.934497,0.940494 -2.204522,1.472236 -3.530513,1.477184 -1.32599,0.0049 -2.599948,-0.517301 -3.541438,-1.450795 -0.940494,-0.934496 -1.472237,-2.204521 -1.477185,-3.530512 z"
     id="path_2" />
</svg>
