<?xml version="1.0" encoding="UTF-8" standalone="no"?>
<svg
        xmlns:dc="http://purl.org/dc/elements/1.1/"
        xmlns:cc="http://creativecommons.org/ns#"
        xmlns:rdf="http://www.w3.org/1999/02/22-rdf-syntax-ns#"
        xmlns="http://www.w3.org/2000/svg"
        xmlns:xlink="http://www.w3.org/1999/xlink"
        xmlns:sodipodi="http://sodipodi.sourceforge.net/DTD/sodipodi-0.dtd"
        xmlns:inkscape="http://www.inkscape.org/namespaces/inkscape"
        viewBox="0 0 32 32"
        id="vector"
        width="32px"
        height="32px"
        version="1.1"
        sodipodi:docname="frame40.svg"
        inkscape:version="0.92.4 (5da689c313, 2019-01-14)"
        inkscape:export-filename="D:\IdeaProjects\donim\icons\30fps\frame40.png"
        inkscape:export-xdpi="48"
        inkscape:export-ydpi="48">
  <metadata
     id="metadata10">
    <rdf:RDF>
      <cc:Work
         rdf:about="">
        <dc:format>image/svg+xml</dc:format>
        <dc:type
           rdf:resource="http://purl.org/dc/dcmitype/StillImage" />
      </cc:Work>
    </rdf:RDF>
  </metadata>
  <defs
     id="defs8">
    <linearGradient
       inkscape:collect="always"
       id="linearGradient3957">
      <stop
         style="stop-color:#003878;stop-opacity:1"
         offset="0"
         id="stop3953" />
      <stop
         style="stop-color:#1985ff;stop-opacity:1"
         offset="1"
         id="stop3955" />
    </linearGradient>
    <linearGradient
       inkscape:collect="always"
       xlink:href="#linearGradient3957"
       id="linearGradient3959"
       x1="11.033367"
       y1="27.803921"
       x2="16.573412"
       y2="6.5834613"
       gradientUnits="userSpaceOnUse" />
    <linearGradient
       inkscape:collect="always"
       xlink:href="#linearGradient3957"
       id="linearGradient3967"
       x1="11.033367"
       y1="27.803921"
       x2="16.573412"
       y2="6.5834613"
       gradientUnits="userSpaceOnUse" />
    <linearGradient
       inkscape:collect="always"
       xlink:href="#linearGradient3957"
       id="linearGradient3975"
       x1="20.966633"
       y1="4.1960788"
       x2="15.426589"
       y2="25.416538"
       gradientUnits="userSpaceOnUse" />
    <linearGradient
       inkscape:collect="always"
       xlink:href="#linearGradient3957"
       id="linearGradient3983"
       x1="20.966633"
       y1="4.1960788"
       x2="15.426589"
       y2="25.416538"
       gradientUnits="userSpaceOnUse" />
  </defs>
  <sodipodi:namedview
     pagecolor="#ffffff"
     bordercolor="#666666"
     borderopacity="1"
     objecttolerance="10"
     gridtolerance="10"
     guidetolerance="10"
     inkscape:pageopacity="0"
     inkscape:pageshadow="2"
     inkscape:window-width="640"
     inkscape:window-height="480"
     id="namedview6"
     showgrid="false"
     inkscape:zoom="10.40625"
     inkscape:cx="-13.981982"
     inkscape:cy="16"
     inkscape:current-layer="vector" />
  <path
     style="fill:url(#linearGradient3959);stroke:url(#linearGradient3967);stroke-width:2;stroke-linecap:round;stroke-linejoin:round;fill-opacity:1"
     inkscape:connector-curvature="0"
     d="M 14.56757,13.364066 C 8.4170589,16.706402 7.2898633,23.009531 11.033367,27.803921 1.0630432,24.117101 0.12771573,9.8298629 9.7928054,4.5776213 m 6.7806056,2.00584 c 0.633133,1.1650827 0.777438,2.5343486 0.402021,3.8059127 -0.376773,1.271163 -1.242779,2.341559 -2.407862,2.974692 -1.165082,0.633134 -2.534348,0.777439 -3.805912,0.402022 C 9.490495,13.389315 8.4200992,12.523309 7.7869654,11.358226 7.1538315,10.193144 7.0095271,8.8238778 7.384944,7.5523138 7.7617171,6.2811509 8.6277228,5.2107551 9.7928054,4.5776213 10.957888,3.9444874 12.327154,3.800183 13.598718,4.1755999 c 1.271163,0.3767731 2.341559,1.2427788 2.974693,2.4078614 z"
     id="path_1" />
  <path
     style="fill:url(#linearGradient3983);stroke:url(#linearGradient3975);stroke-width:2;stroke-linecap:round;stroke-linejoin:round;fill-opacity:1"
     inkscape:connector-curvature="0"
     d="m 17.43243,18.635934 c 6.150511,-3.342336 7.277707,-9.6454646 3.534203,-14.4398552 9.970324,3.6868206 10.905651,17.9740582 1.240562,23.2263002 m -6.780606,-2.00584 c -0.633133,-1.165083 -0.777438,-2.534349 -0.402021,-3.805913 0.376773,-1.271163 1.242779,-2.341559 2.407862,-2.974692 1.165082,-0.633134 2.534348,-0.777439 3.805912,-0.402022 1.271163,0.376773 2.341559,1.242779 2.974693,2.407862 0.633133,1.165082 0.777438,2.534348 0.402021,3.805912 -0.376773,1.271163 -1.242779,2.341559 -2.407861,2.974693 -1.165083,0.633134 -2.534349,0.777438 -3.805913,0.402021 -1.271163,-0.376773 -2.341559,-1.242779 -2.974693,-2.407861 z"
     id="path_2" />
</svg>
