<?xml version="1.0" encoding="UTF-8" standalone="no"?>
<svg
        xmlns:dc="http://purl.org/dc/elements/1.1/"
        xmlns:cc="http://creativecommons.org/ns#"
        xmlns:rdf="http://www.w3.org/1999/02/22-rdf-syntax-ns#"
        xmlns="http://www.w3.org/2000/svg"
        xmlns:xlink="http://www.w3.org/1999/xlink"
        xmlns:sodipodi="http://sodipodi.sourceforge.net/DTD/sodipodi-0.dtd"
        xmlns:inkscape="http://www.inkscape.org/namespaces/inkscape"
        viewBox="0 0 32 32"
        id="vector"
        width="32px"
        height="32px"
        version="1.1"
        sodipodi:docname="frame26.svg"
        inkscape:version="0.92.4 (5da689c313, 2019-01-14)"
        inkscape:export-filename="D:\IdeaProjects\donim\icons\30fps\frame26.png"
        inkscape:export-xdpi="48"
        inkscape:export-ydpi="48">
  <metadata
     id="metadata10">
    <rdf:RDF>
      <cc:Work
         rdf:about="">
        <dc:format>image/svg+xml</dc:format>
        <dc:type
           rdf:resource="http://purl.org/dc/dcmitype/StillImage" />
      </cc:Work>
    </rdf:RDF>
  </metadata>
  <defs
     id="defs8">
    <linearGradient
       inkscape:collect="always"
       id="linearGradient3957">
      <stop
         style="stop-color:#003878;stop-opacity:1"
         offset="0"
         id="stop3953" />
      <stop
         style="stop-color:#1985ff;stop-opacity:1"
         offset="1"
         id="stop3955" />
    </linearGradient>
    <linearGradient
       inkscape:collect="always"
       xlink:href="#linearGradient3957"
       id="linearGradient3959"
       x1="4.3795896"
       y1="10.617988"
       x2="25.390287"
       y2="16.90691"
       gradientUnits="userSpaceOnUse" />
    <linearGradient
       inkscape:collect="always"
       xlink:href="#linearGradient3957"
       id="linearGradient3967"
       x1="4.3795896"
       y1="10.617988"
       x2="25.390287"
       y2="16.90691"
       gradientUnits="userSpaceOnUse" />
    <linearGradient
       inkscape:collect="always"
       xlink:href="#linearGradient3957"
       id="linearGradient3975"
       x1="27.620411"
       y1="21.382011"
       x2="6.6097116"
       y2="15.093091"
       gradientUnits="userSpaceOnUse" />
    <linearGradient
       inkscape:collect="always"
       xlink:href="#linearGradient3957"
       id="linearGradient3985"
       gradientUnits="userSpaceOnUse"
       x1="27.620411"
       y1="21.382011"
       x2="6.6097116"
       y2="15.093091" />
  </defs>
  <sodipodi:namedview
     pagecolor="#ffffff"
     bordercolor="#666666"
     borderopacity="1"
     objecttolerance="10"
     gridtolerance="10"
     guidetolerance="10"
     inkscape:pageopacity="0"
     inkscape:pageshadow="2"
     inkscape:window-width="640"
     inkscape:window-height="480"
     id="namedview6"
     showgrid="false"
     inkscape:zoom="10.40625"
     inkscape:cx="-13.981982"
     inkscape:cy="16"
     inkscape:current-layer="vector" />
  <path
     style="fill:url(#linearGradient3985);stroke:url(#linearGradient3975);stroke-width:2;stroke-linecap:round;stroke-linejoin:round;fill-opacity:1.0"
     inkscape:connector-curvature="0"
     d="m 13.314938,17.338073 c 3.122171,6.265146 9.381372,7.615107 14.305473,4.043939 -4.037996,9.833341 -18.3494125,10.261534 -23.2556812,0.416306 m 2.2449818,-6.705227 c 1.1867975,-0.591428 2.5603188,-0.687095 3.8177734,-0.266831 1.257005,0.421604 2.296024,1.325016 2.887453,2.511813 0.591428,1.186798 0.687095,2.560319 0.266832,3.817774 -0.421605,1.257005 -1.325017,2.296024 -2.511814,2.887452 C 9.8831583,24.634728 8.509637,24.730395 7.2521826,24.310131 5.9951772,23.888527 4.9561582,22.985115 4.3647298,21.798318 3.7733014,20.61152 3.6776343,19.237999 4.0978978,17.980544 4.5195024,16.723539 5.422914,15.68452 6.6097116,15.093091 Z"
     id="path_1" />
  <path
     style="fill:url(#linearGradient3959);stroke:url(#linearGradient3967);stroke-width:2;stroke-linecap:round;stroke-linejoin:round;fill-opacity:1"
     inkscape:connector-curvature="0"
     d="M 18.685062,14.661927 C 15.562891,8.3967812 9.3036897,7.0468202 4.3795894,10.617988 8.4175847,0.78464661 22.729002,0.35645378 27.63527,10.201682 m -2.244982,6.705227 c -1.186797,0.591428 -2.560318,0.687095 -3.817773,0.266831 -1.257005,-0.421604 -2.296024,-1.325016 -2.887453,-2.511813 -0.591428,-1.186798 -0.687095,-2.560319 -0.266832,-3.817774 0.421605,-1.2570049 1.325017,-2.296024 2.511814,-2.8874524 1.186798,-0.5914283 2.560319,-0.6870955 3.817773,-0.2668319 1.257006,0.4216046 2.296025,1.3250162 2.887453,2.5118133 0.591429,1.186798 0.687096,2.560319 0.266832,3.817774 -0.421604,1.257005 -1.325016,2.296024 -2.511814,2.887453 z"
     id="path_2" />
</svg>
