<?xml version="1.0" encoding="UTF-8" standalone="no"?>
<svg
        xmlns:dc="http://purl.org/dc/elements/1.1/"
        xmlns:cc="http://creativecommons.org/ns#"
        xmlns:rdf="http://www.w3.org/1999/02/22-rdf-syntax-ns#"
        xmlns="http://www.w3.org/2000/svg"
        xmlns:xlink="http://www.w3.org/1999/xlink"
        xmlns:sodipodi="http://sodipodi.sourceforge.net/DTD/sodipodi-0.dtd"
        xmlns:inkscape="http://www.inkscape.org/namespaces/inkscape"
        viewBox="0 0 32 32"
        id="vector"
        width="32px"
        height="32px"
        version="1.1"
        sodipodi:docname="frame16.svg"
        inkscape:version="0.92.4 (5da689c313, 2019-01-14)"
        inkscape:export-filename="D:\IdeaProjects\donim\icons\30fps\frame16.png"
        inkscape:export-xdpi="48"
        inkscape:export-ydpi="48">
  <metadata
     id="metadata10">
    <rdf:RDF>
      <cc:Work
         rdf:about="">
        <dc:format>image/svg+xml</dc:format>
        <dc:type
           rdf:resource="http://purl.org/dc/dcmitype/StillImage" />
      </cc:Work>
    </rdf:RDF>
  </metadata>
  <defs
     id="defs8">
    <linearGradient
       inkscape:collect="always"
       id="linearGradient3957">
      <stop
         style="stop-color:#003878;stop-opacity:1"
         offset="0"
         id="stop3953" />
      <stop
         style="stop-color:#1985ff;stop-opacity:1"
         offset="1"
         id="stop3955" />
    </linearGradient>
    <linearGradient
       inkscape:collect="always"
       xlink:href="#linearGradient3957"
       id="linearGradient3959"
       x1="9.8774986"
       y1="4.7521124"
       x2="22.999271"
       y2="22.325361"
       gradientUnits="userSpaceOnUse" />
    <linearGradient
       inkscape:collect="always"
       xlink:href="#linearGradient3957"
       id="linearGradient3967"
       x1="9.8774986"
       y1="4.7521124"
       x2="22.999271"
       y2="22.325361"
       gradientUnits="userSpaceOnUse" />
    <linearGradient
       inkscape:collect="always"
       xlink:href="#linearGradient3957"
       id="linearGradient3975"
       x1="22.122501"
       y1="27.247889"
       x2="9.0007277"
       y2="9.6746397"
       gradientUnits="userSpaceOnUse" />
    <linearGradient
       inkscape:collect="always"
       xlink:href="#linearGradient3957"
       id="linearGradient3983"
       x1="22.122501"
       y1="27.247889"
       x2="9.0007277"
       y2="9.6746397"
       gradientUnits="userSpaceOnUse" />
  </defs>
  <sodipodi:namedview
     pagecolor="#ffffff"
     bordercolor="#666666"
     borderopacity="1"
     objecttolerance="10"
     gridtolerance="10"
     guidetolerance="10"
     inkscape:pageopacity="0"
     inkscape:pageshadow="2"
     inkscape:window-width="640"
     inkscape:window-height="480"
     id="namedview6"
     showgrid="false"
     inkscape:zoom="10.40625"
     inkscape:cx="-13.981982"
     inkscape:cy="16"
     inkscape:current-layer="vector" />
  <path
     style="fill:url(#linearGradient3959);stroke:url(#linearGradient3967);stroke-width:2;stroke-linecap:round;stroke-linejoin:round;fill-opacity:1"
     inkscape:connector-curvature="0"
     d="M 18.953516,16.526063 C 20.180996,9.6345246 15.959885,4.8197321 9.8774985,4.7521124 18.981021,-0.73659204 30.727466,7.4500448 28.79857,18.279604 m -5.799298,4.045757 c -1.305454,-0.23252 -2.465333,-0.974405 -3.224492,-2.061369 -0.758,-1.087773 -1.053783,-2.432475 -0.821264,-3.737929 0.23252,-1.305455 0.974405,-2.465334 2.061369,-3.224493 1.087773,-0.757999 2.432475,-1.053783 3.737929,-0.821264 1.305454,0.23252 2.465334,0.974405 3.224493,2.061369 0.757999,1.087773 1.053783,2.432475 0.821263,3.737929 -0.232519,1.305455 -0.974404,2.465334 -2.061368,3.224493 -1.087773,0.757999 -2.432475,1.053783 -3.73793,0.821264 z"
     id="path_1" />
  <path
     style="fill:url(#linearGradient3983);stroke:url(#linearGradient3975);stroke-width:2;stroke-linecap:round;stroke-linejoin:round;fill-opacity:1"
     inkscape:connector-curvature="0"
     d="m 13.046484,15.473937 c -1.22748,6.891538 2.993631,11.706331 9.076017,11.773951 C 13.018979,32.736592 1.2725336,24.549955 3.2014296,13.720396 m 5.799298,-4.0457565 c 1.3054544,0.2325196 2.4653334,0.9744045 3.2244924,2.0613685 0.758,1.087773 1.053783,2.432475 0.821264,3.737929 -0.23252,1.305455 -0.974405,2.465334 -2.061369,3.224493 C 9.8973425,19.456429 8.55264,19.752213 7.2471858,19.519694 5.9417316,19.287174 4.7818524,18.545289 4.0226932,17.458325 3.2646938,16.370552 2.96891,15.02585 3.2014296,13.720396 3.4339493,12.414941 4.1758341,11.255062 5.2627979,10.495903 6.3505709,9.7379037 7.6952734,9.4421198 9.0007276,9.6746395 Z"
     id="path_2" />
</svg>
