<?xml version="1.0" encoding="UTF-8" standalone="no"?>
<svg
        xmlns:dc="http://purl.org/dc/elements/1.1/"
        xmlns:cc="http://creativecommons.org/ns#"
        xmlns:rdf="http://www.w3.org/1999/02/22-rdf-syntax-ns#"
        xmlns="http://www.w3.org/2000/svg"
        xmlns:xlink="http://www.w3.org/1999/xlink"
        xmlns:sodipodi="http://sodipodi.sourceforge.net/DTD/sodipodi-0.dtd"
        xmlns:inkscape="http://www.inkscape.org/namespaces/inkscape"
        viewBox="0 0 32 32"
        id="vector"
        width="32px"
        height="32px"
        version="1.1"
        sodipodi:docname="frame42.svg"
        inkscape:version="0.92.4 (5da689c313, 2019-01-14)"
        inkscape:export-filename="D:\IdeaProjects\donim\icons\30fps\frame42.png"
        inkscape:export-xdpi="48"
        inkscape:export-ydpi="48">
  <metadata
     id="metadata10">
    <rdf:RDF>
      <cc:Work
         rdf:about="">
        <dc:format>image/svg+xml</dc:format>
        <dc:type
           rdf:resource="http://purl.org/dc/dcmitype/StillImage" />
      </cc:Work>
    </rdf:RDF>
  </metadata>
  <defs
     id="defs8">
    <linearGradient
       inkscape:collect="always"
       id="linearGradient3957">
      <stop
         style="stop-color:#003878;stop-opacity:1"
         offset="0"
         id="stop3953" />
      <stop
         style="stop-color:#1985ff;stop-opacity:1"
         offset="1"
         id="stop3955" />
    </linearGradient>
    <linearGradient
       inkscape:collect="always"
       xlink:href="#linearGradient3957"
       id="linearGradient3959"
       x1="9.770195"
       y1="27.188812"
       x2="17.601496"
       y2="6.7029462"
       gradientUnits="userSpaceOnUse" />
    <linearGradient
       inkscape:collect="always"
       xlink:href="#linearGradient3957"
       id="linearGradient3967"
       x1="9.770195"
       y1="27.188812"
       x2="17.601496"
       y2="6.7029462"
       gradientUnits="userSpaceOnUse" />
    <linearGradient
       inkscape:collect="always"
       xlink:href="#linearGradient3957"
       id="linearGradient3975"
       x1="22.229805"
       y1="4.8111873"
       x2="14.398506"
       y2="25.297054"
       gradientUnits="userSpaceOnUse" />
    <linearGradient
       inkscape:collect="always"
       xlink:href="#linearGradient3957"
       id="linearGradient3983"
       x1="22.229805"
       y1="4.8111873"
       x2="14.398506"
       y2="25.297054"
       gradientUnits="userSpaceOnUse" />
  </defs>
  <sodipodi:namedview
     pagecolor="#ffffff"
     bordercolor="#666666"
     borderopacity="1"
     objecttolerance="10"
     gridtolerance="10"
     guidetolerance="10"
     inkscape:pageopacity="0"
     inkscape:pageshadow="2"
     inkscape:window-width="640"
     inkscape:window-height="480"
     id="namedview6"
     showgrid="false"
     inkscape:zoom="10.40625"
     inkscape:cx="-13.981982"
     inkscape:cy="16"
     inkscape:current-layer="vector" />
  <path
     style="fill:url(#linearGradient3959);stroke:url(#linearGradient3967);stroke-width:2;stroke-linecap:round;stroke-linejoin:round;fill-opacity:1"
     inkscape:connector-curvature="0"
     d="M 14.864945,13.223014 C 8.3853114,15.871477 6.5744227,22.013193 9.7701953,27.188813 0.26374786,22.43198 0.89914615,8.1282649 11.081427,3.9663954 m 6.520068,2.7365506 c 0.501695,1.2274277 0.495134,2.604261 -0.01732,3.827047 -0.513755,1.22224 -1.491806,2.191327 -2.719233,2.693021 -1.227428,0.501695 -2.604261,0.495134 -3.827048,-0.01732 C 9.8156581,12.691942 8.8465708,11.713891 8.3448764,10.486464 7.8431819,9.2590361 7.8497423,7.8822028 8.3621935,6.6594163 8.8759487,5.4371771 9.8539993,4.4680899 11.081427,3.9663954 c 1.227428,-0.5016944 2.604261,-0.4951341 3.827047,0.017317 1.22224,0.5137552 2.191327,1.4918057 2.693021,2.7192334 z"
     id="path_1" />
  <path
     style="fill:url(#linearGradient3983);stroke:url(#linearGradient3975);stroke-width:2;stroke-linecap:round;stroke-linejoin:round;fill-opacity:1"
     inkscape:connector-curvature="0"
     d="m 17.135055,18.776986 c 6.479634,-2.648463 8.290522,-8.7901793 5.09475,-13.9657989 9.506447,4.7568328 8.871049,19.0605479 -1.311232,23.2224179 m -6.520068,-2.736551 c -0.501695,-1.227428 -0.495134,-2.604261 0.01732,-3.827047 0.513755,-1.22224 1.491806,-2.191327 2.719233,-2.693021 1.227428,-0.501695 2.604261,-0.495134 3.827048,0.01732 1.222239,0.513755 2.191326,1.491806 2.693021,2.719233 0.501694,1.227428 0.495134,2.604261 -0.01732,3.827048 -0.513755,1.222239 -1.491805,2.191326 -2.719233,2.693021 -1.227428,0.501694 -2.604261,0.495134 -3.827047,-0.01732 -1.22224,-0.513755 -2.191327,-1.491805 -2.693021,-2.719233 z"
     id="path_2" />
</svg>
