<?xml version="1.0" encoding="UTF-8" standalone="no"?>
<svg
        xmlns:dc="http://purl.org/dc/elements/1.1/"
        xmlns:cc="http://creativecommons.org/ns#"
        xmlns:rdf="http://www.w3.org/1999/02/22-rdf-syntax-ns#"
        xmlns="http://www.w3.org/2000/svg"
        xmlns:xlink="http://www.w3.org/1999/xlink"
        xmlns:sodipodi="http://sodipodi.sourceforge.net/DTD/sodipodi-0.dtd"
        xmlns:inkscape="http://www.inkscape.org/namespaces/inkscape"
        viewBox="0 0 32 32"
        id="vector"
        width="32px"
        height="32px"
        version="1.1"
        sodipodi:docname="frame17.svg"
        inkscape:version="0.92.4 (5da689c313, 2019-01-14)">
  <metadata
     id="metadata10">
    <rdf:RDF>
      <cc:Work
         rdf:about="">
        <dc:format>image/svg+xml</dc:format>
        <dc:type
           rdf:resource="http://purl.org/dc/dcmitype/StillImage" />
      </cc:Work>
    </rdf:RDF>
  </metadata>
  <defs
     id="defs8">
    <linearGradient
       inkscape:collect="always"
       id="linearGradient3957">
      <stop
         style="stop-color:#003878;stop-opacity:1"
         offset="0"
         id="stop3953" />
      <stop
         style="stop-color:#1985ff;stop-opacity:1"
         offset="1"
         id="stop3955" />
    </linearGradient>
    <linearGradient
       inkscape:collect="always"
       xlink:href="#linearGradient3957"
       id="linearGradient3959"
       x1="13.175761"
       y1="3.5090563"
       x2="21.009762"
       y2="23.993891"
       gradientUnits="userSpaceOnUse" />
    <linearGradient
       inkscape:collect="always"
       xlink:href="#linearGradient3957"
       id="linearGradient3967"
       x1="13.175761"
       y1="3.5090563"
       x2="21.009762"
       y2="23.993891"
       gradientUnits="userSpaceOnUse" />
    <linearGradient
       inkscape:collect="always"
       xlink:href="#linearGradient3957"
       id="linearGradient3975"
       x1="18.82424"
       y1="28.490944"
       x2="10.990238"
       y2="8.0061092"
       gradientUnits="userSpaceOnUse" />
    <linearGradient
       inkscape:collect="always"
       xlink:href="#linearGradient3957"
       id="linearGradient3983"
       x1="18.82424"
       y1="28.490944"
       x2="10.990238"
       y2="8.0061092"
       gradientUnits="userSpaceOnUse" />
  </defs>
  <sodipodi:namedview
     pagecolor="#ffffff"
     bordercolor="#666666"
     borderopacity="1"
     objecttolerance="10"
     gridtolerance="10"
     guidetolerance="10"
     inkscape:pageopacity="0"
     inkscape:pageshadow="2"
     inkscape:window-width="640"
     inkscape:window-height="480"
     id="namedview6"
     showgrid="false"
     inkscape:zoom="10.40625"
     inkscape:cx="0.38438438"
     inkscape:cy="16"
     inkscape:current-layer="vector" />
  <path
     style="fill:url(#linearGradient3959);stroke:url(#linearGradient3967);stroke-width:2;stroke-linecap:round;stroke-linejoin:round;fill-opacity:1"
     inkscape:connector-curvature="0"
     d="M 18.698232,17.311314 C 21.757964,11.015439 19.009329,5.2322734 13.175761,3.5090563 23.430779,0.71001864 32.50049,11.788843 27.692339,21.68236 m -6.682577,2.31153 c -1.192618,-0.5796 -2.106315,-1.609587 -2.540395,-2.862339 -0.432743,-1.253214 -0.350736,-2.627619 0.228865,-3.820237 0.579601,-1.192619 1.609587,-2.106315 2.862339,-2.540395 1.253214,-0.432744 2.627619,-0.350736 3.820237,0.228865 1.192619,0.5796 2.106315,1.609587 2.540395,2.862339 0.432744,1.253214 0.350736,2.627619 -0.228864,3.820237 -0.579601,1.192619 -1.609588,2.106315 -2.862339,2.540395 -1.253215,0.432744 -2.627619,0.350736 -3.820238,-0.228865 z"
     id="path_1" />
  <path
     style="fill:url(#linearGradient3983);stroke:url(#linearGradient3975);stroke-width:2;stroke-linecap:round;stroke-linejoin:round;fill-opacity:1"
     inkscape:connector-curvature="0"
     d="M 13.301768,14.688686 C 10.242036,20.984561 12.990671,26.767727 18.824239,28.490944 8.5692214,31.289981 -0.50048952,20.211157 4.3076613,10.31764 M 10.990238,8.0061097 c 1.192618,0.5796007 2.106315,1.6095872 2.540395,2.8623393 0.432743,1.253214 0.350736,2.627619 -0.228865,3.820237 -0.579601,1.192619 -1.609587,2.106315 -2.862339,2.540395 C 9.1862146,17.661825 7.8118101,17.579817 6.6191915,17.000216 5.426573,16.420616 4.5128768,15.390629 4.0787966,14.137877 3.6460529,12.884663 3.7280606,11.510258 4.3076613,10.31764 4.887262,9.1250214 5.9172485,8.2113251 7.1700005,7.777245 8.4232147,7.3445013 9.7976192,7.426509 10.990238,8.0061097 Z"
     id="path_2" />
</svg>
