<?xml version="1.0" encoding="UTF-8" standalone="no"?>
<svg
        xmlns:dc="http://purl.org/dc/elements/1.1/"
        xmlns:cc="http://creativecommons.org/ns#"
        xmlns:rdf="http://www.w3.org/1999/02/22-rdf-syntax-ns#"
        xmlns="http://www.w3.org/2000/svg"
        xmlns:xlink="http://www.w3.org/1999/xlink"
        xmlns:sodipodi="http://sodipodi.sourceforge.net/DTD/sodipodi-0.dtd"
        xmlns:inkscape="http://www.inkscape.org/namespaces/inkscape"
        viewBox="0 0 32 32"
        id="vector"
        width="32px"
        height="32px"
        version="1.1"
        sodipodi:docname="frame15.svg"
        inkscape:version="0.92.4 (5da689c313, 2019-01-14)"
        inkscape:export-filename="D:\IdeaProjects\donim\icons\30fps\frame15.png"
        inkscape:export-xdpi="48"
        inkscape:export-ydpi="48">
  <metadata
     id="metadata10">
    <rdf:RDF>
      <cc:Work
         rdf:about="">
        <dc:format>image/svg+xml</dc:format>
        <dc:type
           rdf:resource="http://purl.org/dc/dcmitype/StillImage" />
      </cc:Work>
    </rdf:RDF>
  </metadata>
  <defs
     id="defs8">
    <linearGradient
       inkscape:collect="always"
       id="linearGradient3957">
      <stop
         style="stop-color:#003878;stop-opacity:1"
         offset="0"
         id="stop3953" />
      <stop
         style="stop-color:#1985ff;stop-opacity:1"
         offset="1"
         id="stop3955" />
    </linearGradient>
    <linearGradient
       inkscape:collect="always"
       xlink:href="#linearGradient3957"
       id="linearGradient3959"
       x1="7.1866479"
       y1="6.7088847"
       x2="24.392481"
       y2="20.308861"
       gradientUnits="userSpaceOnUse" />
    <linearGradient
       inkscape:collect="always"
       xlink:href="#linearGradient3957"
       id="linearGradient3967"
       x1="7.1866479"
       y1="6.7088847"
       x2="24.392481"
       y2="20.308861"
       gradientUnits="userSpaceOnUse" />
    <linearGradient
       inkscape:collect="always"
       xlink:href="#linearGradient3957"
       id="linearGradient3975"
       x1="24.813353"
       y1="25.291115"
       x2="7.6075196"
       y2="11.69114"
       gradientUnits="userSpaceOnUse" />
    <linearGradient
       inkscape:collect="always"
       xlink:href="#linearGradient3957"
       id="linearGradient3983"
       x1="24.813353"
       y1="25.291115"
       x2="7.6075196"
       y2="11.69114"
       gradientUnits="userSpaceOnUse" />
  </defs>
  <sodipodi:namedview
     pagecolor="#ffffff"
     bordercolor="#666666"
     borderopacity="1"
     objecttolerance="10"
     gridtolerance="10"
     guidetolerance="10"
     inkscape:pageopacity="0"
     inkscape:pageshadow="2"
     inkscape:window-width="640"
     inkscape:window-height="480"
     id="namedview6"
     showgrid="false"
     inkscape:zoom="10.40625"
     inkscape:cx="-15.231231"
     inkscape:cy="16"
     inkscape:current-layer="vector" />
  <path
     style="fill:url(#linearGradient3959);stroke:url(#linearGradient3967);stroke-width:2;stroke-linecap:round;stroke-linejoin:round;fill-opacity:1"
     inkscape:connector-curvature="0"
     d="M 18.989353,15.747477 C 18.400132,8.7723196 13.08118,5.2073873 7.1866479,6.7088846 14.569036,-0.93966767 28.027945,3.9447717 28.953864,14.905733 M 24.39248,20.30886 c -1.321294,0.111615 -2.633139,-0.306444 -3.646682,-1.161164 -1.01263,-0.855799 -1.64483,-2.078925 -1.756445,-3.400219 -0.111615,-1.321294 0.306445,-2.63314 1.161164,-3.646682 0.8558,-1.01263 2.078925,-1.64483 3.400219,-1.756445 1.321295,-0.111615 2.63314,0.306444 3.646683,1.161164 1.01263,0.855799 1.644829,2.078925 1.756445,3.400219 0.111615,1.321294 -0.306445,2.63314 -1.161164,3.646682 -0.8558,1.01263 -2.078926,1.64483 -3.40022,1.756445 z"
     id="path_1" />
  <path
     style="fill:url(#linearGradient3983);stroke:url(#linearGradient3975);stroke-width:2;stroke-linecap:round;stroke-linejoin:round;fill-opacity:1"
     inkscape:connector-curvature="0"
     d="m 13.010647,16.252523 c 0.589221,6.975157 5.908173,10.54009 11.802705,9.038592 C 17.430964,32.939668 3.9720546,28.055228 3.0461365,17.094267 M 7.6075198,11.69114 c 1.3212941,-0.111615 2.6331392,0.306444 3.6466822,1.161164 1.01263,0.855799 1.64483,2.078925 1.756445,3.400219 0.111615,1.321294 -0.306445,2.63314 -1.161164,3.646682 -0.8558,1.01263 -2.0789254,1.64483 -3.4002194,1.756445 C 7.1279695,21.767265 5.8161239,21.349206 4.8025814,20.494486 3.7899512,19.638687 3.1577517,18.415561 3.0461365,17.094267 2.9345213,15.772973 3.3525812,14.461127 4.2073002,13.447585 5.0630999,12.434955 6.2862257,11.802755 7.6075198,11.69114 Z"
     id="path_2" />
</svg>
