<?xml version="1.0" encoding="UTF-8" standalone="no"?>
<svg
    xmlns:dc="http://purl.org/dc/elements/1.1/"
    xmlns:cc="http://creativecommons.org/ns#"
    xmlns:rdf="http://www.w3.org/1999/02/22-rdf-syntax-ns#"
    xmlns="http://www.w3.org/2000/svg"
    xmlns:sodipodi="http://sodipodi.sourceforge.net/DTD/sodipodi-0.dtd"
    xmlns:inkscape="http://www.inkscape.org/namespaces/inkscape"
    version="1.1"
    id="Capa_1"
    x="0px"
    y="0px"
    viewBox="0 0 512.003 512.003"
    style="enable-background:new 0 0 512.003 512.003;"
    xml:space="preserve"
    sodipodi:docname="installer.svg"
    inkscape:version="1.0.1 (3bc2e813f5, 2020-09-07)"><metadata
   id="metadata39"><rdf:RDF><cc:Work
       rdf:about=""><dc:format>image/svg+xml</dc:format><dc:type
    rdf:resource="http://purl.org/dc/dcmitype/StillImage" /><dc:title /></cc:Work></rdf:RDF></metadata><defs
    id="defs37"><linearGradient
     id="grad1"
     x1="6"
     x2="21"
     y1="24"
     y2="8"
     gradientUnits="userSpaceOnUse"><stop
       stop-color="#003878"
       offset="0"
       id="stop41" /><stop
    stop-color="#1984ff"
    offset="1"
    id="stop43" /></linearGradient><linearGradient
    id="grad2"
    x1="26"
    x2="11"
    y1="8"
    y2="24"
    gradientUnits="userSpaceOnUse"><stop
       stop-color="#003878"
       offset="0"
       id="stop46" /><stop
    stop-color="#1984ff"
    offset="1"
    id="stop48" /></linearGradient></defs><sodipodi:namedview
    pagecolor="#ffffff"
    bordercolor="#666666"
    borderopacity="1"
    objecttolerance="10"
    gridtolerance="10"
    guidetolerance="10"
    inkscape:pageopacity="0"
    inkscape:pageshadow="2"
    inkscape:window-width="1920"
    inkscape:window-height="1017"
    id="namedview35"
    showgrid="false"
    inkscape:zoom="0.5"
    inkscape:cx="-52.087802"
    inkscape:cy="159.89598"
    inkscape:window-x="-8"
    inkscape:window-y="-8"
    inkscape:window-maximized="1"
    inkscape:current-layer="layer3"
    showguides="true"
    inkscape:guide-bbox="true"
    inkscape:document-rotation="0"><inkscape:grid
     type="xygrid"
     id="grid83" /></sodipodi:namedview>
  <g
      inkscape:groupmode="layer"
      id="layer5"
      inkscape:label="box-in"
      style="display:inline"><path
     style="display:inline;fill:#1a1a1a;fill-opacity:1;stroke:none;stroke-width:2;stroke-linecap:butt;stroke-linejoin:miter;stroke-miterlimit:4;stroke-dasharray:none;stroke-opacity:1"
     d="M 256.00149,272.44041 V 82.440408 L 51.001495,177.44041 Z"
     id="path938" /><path
      style="display:inline;fill:#131313;fill-opacity:1;stroke:none;stroke-width:2;stroke-linecap:butt;stroke-linejoin:miter;stroke-miterlimit:4;stroke-dasharray:none;stroke-opacity:1"
      d="M 256.00149,272.44041 V 82.440408 l 210,95.000002 z"
      id="path936" /></g><g
      inkscape:groupmode="layer"
      id="layer4"
      inkscape:label="logo"
      style="display:inline"><g
     stroke-linecap="round"
     stroke-linejoin="round"
     stroke-width="2"
     id="g57"
     transform="matrix(11.62067,0,0,11.62067,70.070775,-54.126061)"><g
       id="g992"
       transform="translate(3.2389134e-8,2.6577401)"><path
         d="M 16,13 C 9,13 5,18 6,24 -1,16 5,3 16,3 m 5,5 a 5,5 0 0 1 -5,5 5,5 0 0 1 -5,-5 5,5 0 0 1 5,-5 5,5 0 0 1 5,5 z"
         fill="url(#grad1)"
         stroke="url(#grad1)"
         id="path53"
         style="fill:url(#grad1);stroke:url(#grad1)" /><path
      d="m 16,19 c 7,0 11,-5 10,-11 7,8 1,21 -10,21 m -5,-5 a 5,5 0 0 1 5,-5 5,5 0 0 1 5,5 5,5 0 0 1 -5,5 5,5 0 0 1 -5,-5 z"
      fill="url(#grad2)"
      stroke="url(#grad2)"
      id="path55"
      style="fill:url(#grad2);stroke:url(#grad2)" /></g></g></g><g
      inkscape:groupmode="layer"
      id="layer3"
      inkscape:label="box-out"
      style="display:inline"><path
   style="fill:#1f1f1f;fill-opacity:1;stroke:none;stroke-width:2;stroke-linecap:butt;stroke-linejoin:miter;stroke-miterlimit:4;stroke-dasharray:none;stroke-opacity:1"
   d="m 256.00149,272.44041 -1.01638,239.56258 210,-95 1.01638,-239.56258 z"
   id="path932"
   sodipodi:nodetypes="ccccc" /><path
      style="fill:#1c1c1c;fill-opacity:1;stroke:none;stroke-width:2;stroke-linecap:butt;stroke-linejoin:miter;stroke-miterlimit:4;stroke-dasharray:none;stroke-opacity:1"
      d="m 256.00149,272.44041 -1.01638,239.56258 -204.999997,-95 1.016385,-239.56258 z"
      id="path934"
      sodipodi:nodetypes="ccccc" /><path
      style="fill:#292929;fill-opacity:1;stroke:none;stroke-width:2;stroke-linecap:butt;stroke-linejoin:miter;stroke-miterlimit:4;stroke-dasharray:none;stroke-opacity:1"
      d="m 256.00149,272.44041 -204.999992,-95 -45.0000003,125 209.9999923,95 z"
      id="path926" />
    <path
        style="fill:#2f2f2f;fill-opacity:1;stroke:none;stroke-width:2;stroke-linecap:butt;stroke-linejoin:miter;stroke-miterlimit:4;stroke-dasharray:none;stroke-opacity:1"
        d="m 256.00149,272.44041 40,125 210,-95 -40,-125 z"
        id="path928"
        sodipodi:nodetypes="ccccc" />
  </g></svg>
