<svg viewBox="0 0 512 512" xmlns="http://www.w3.org/2000/svg">
  <defs>
    <linearGradient id="grad1" x1="6" x2="21" y1="24" y2="8" gradientUnits="userSpaceOnUse">
      <stop offset="0" stop-color="#003878"/>
      <stop offset="1" stop-color="#1984ff"/>
    </linearGradient>
    <linearGradient id="grad2" x1="26" x2="11" y1="8" y2="24" gradientUnits="userSpaceOnUse">
      <stop offset="0" stop-color="#003878"/>
      <stop offset="1" stop-color="#1984ff"/>
    </linearGradient>
  </defs>
  <g>
    <path stroke="#141414" stroke-width="2" d="m 256 272 v -192"/>
    <path fill="#121212" d="m 256 272 v -192 l 208 96 z"/>
    <path fill="#171717" d="m 256 272 v -192 l -208 96 z"/>
  </g>
  <g stroke-width="2" stroke-linejoin="round" transform="matrix(12 0 0 12 64 -24)">
    <path fill="url(#grad1)" stroke="url(#grad1)" d="m16 13c-7 0-11 5-10 11-7-8-1-21 10-21m5 5a5 5 0 0 1-5 5 5 5 0 0 1-5-5 5 5 0 0 1 5-5 5 5 0 0 1 5 5z"/>
    <path fill="url(#grad2)" stroke="url(#grad2)" d="m16 19c7 0 11-5 10-11 7 8 1 21-10 21m-5-5a5 5 0 0 1 5-5 5 5 0 0 1 5 5 5 5 0 0 1-5 5 5 5 0 0 1-5-5z"/>
  </g>
  <g>
    <path stroke="#1c1c1c" stroke-width="2" d="m 256 272 v 240"/>
    <path fill="#1f1f1f" d="m 256 272 v 240 l 208 -96 v -240 z"/>
    <path fill="#2e2e2e" d="m 256 272 48 112 208 -96 -48 -112 z"/>
    <path fill="#1c1c1c" d="m 256 272 v 240 l -208 -96 v -240 z"/>
    <path fill="#292929" d="m 256 272 -48 112 -208 -96 48 -112 z"/>
  </g>
</svg>
