<?xml version="1.0" encoding="UTF-8"?>
<svg width="128" height="128" version="1.1" viewBox="0 0 512 512" xmlns="http://www.w3.org/2000/svg">
  <defs>
    <linearGradient id="grad1" x1="6" x2="21" y1="24" y2="8" gradientUnits="userSpaceOnUse">
      <stop offset="0" stop-color="#003878"/>
      <stop offset="1" stop-color="#1984ff"/>
    </linearGradient>
    <linearGradient id="grad2" x1="26" x2="11" y1="8" y2="24" gradientUnits="userSpaceOnUse">
      <stop offset="0" stop-color="#003878"/>
      <stop offset="1" stop-color="#1984ff"/>
    </linearGradient>
  </defs>
  <g>
    <path fill="#1a1a1a" d="m256 272.44v-190l-205 95z"/>
    <path fill="#131313" d="m256 272.44v-190l210 95z"/>
  </g>
  <g stroke-width="2" stroke-linejoin="round" transform="matrix(11.621,0,0,11.621,70.064,-23.242)">
    <path fill="url(#grad1)" stroke="url(#grad1)" d="m16 13c-7 0-11 5-10 11-7-8-1-21 10-21m5 5a5 5 0 0 1-5 5 5 5 0 0 1-5-5 5 5 0 0 1 5-5 5 5 0 0 1 5 5z"/>
    <path fill="url(#grad2)" stroke="url(#grad2)" d="m16 19c7 0 11-5 10-11 7 8 1 21-10 21m-5-5a5 5 0 0 1 5-5 5 5 0 0 1 5 5 5 5 0 0 1-5 5 5 5 0 0 1-5-5z"/>
  </g>
  <g>
    <path fill="#1f1f1f" d="m256 272.44-1.0164 239.56 210-95 1.0164-239.56z"/>
    <path fill="#1c1c1c" d="m256 272.44-1.0164 239.56-205-95 1.0164-239.56z"/>
    <path fill="#292929" d="m256 272.44-205-95-45 125 210 95z"/>
    <path fill="#2f2f2f" d="m256 272.44 40 125 210-95-40-125z"/>
  </g>
</svg>
