<?xml version="1.0" encoding="UTF-8" standalone="no"?>
<svg
    xmlns:dc="http://purl.org/dc/elements/1.1/"
    xmlns:cc="http://creativecommons.org/ns#"
    xmlns:rdf="http://www.w3.org/1999/02/22-rdf-syntax-ns#"
    xmlns="http://www.w3.org/2000/svg"
    xmlns:sodipodi="http://sodipodi.sourceforge.net/DTD/sodipodi-0.dtd"
    xmlns:inkscape="http://www.inkscape.org/namespaces/inkscape"
    width="128"
    height="128"
    version="1.1"
    viewBox="0 0 512 512"
    id="svg40"
    sodipodi:docname="installer2.svg"
    inkscape:version="1.0.1 (3bc2e813f5, 2020-09-07)">
  <metadata
     id="metadata44">
    <rdf:RDF>
      <cc:Work
         rdf:about="">
        <dc:format>image/svg+xml</dc:format>
        <dc:type
           rdf:resource="http://purl.org/dc/dcmitype/StillImage" />
        <dc:title></dc:title>
      </cc:Work>
    </rdf:RDF>
  </metadata>
  <sodipodi:namedview
     pagecolor="#ffffff"
     bordercolor="#666666"
     borderopacity="1"
     objecttolerance="10"
     gridtolerance="10"
     guidetolerance="10"
     inkscape:pageopacity="0"
     inkscape:pageshadow="2"
     inkscape:window-width="1920"
     inkscape:window-height="1017"
     id="namedview42"
     showgrid="false"
     inkscape:zoom="3.4335938"
     inkscape:cx="64"
     inkscape:cy="64"
     inkscape:window-x="-8"
     inkscape:window-y="-8"
     inkscape:window-maximized="1"
     inkscape:current-layer="svg40"
     showguides="false">
    <inkscape:grid
       type="xygrid"
       id="grid869"
       empspacing="4" />
  </sodipodi:namedview>
  <defs
     id="defs12">
    <linearGradient
       id="grad1"
       x1="6"
       x2="21"
       y1="24"
       y2="8"
       gradientUnits="userSpaceOnUse">
      <stop
         offset="0"
         stop-color="#003878"
         id="stop2" />
      <stop
         offset="1"
         stop-color="#1984ff"
         id="stop4" />
    </linearGradient>
    <linearGradient
       id="grad2"
       x1="26"
       x2="11"
       y1="8"
       y2="24"
       gradientUnits="userSpaceOnUse">
      <stop
         offset="0"
         stop-color="#003878"
         id="stop7" />
      <stop
         offset="1"
         stop-color="#1984ff"
         id="stop9" />
    </linearGradient>
  </defs>
  <g
     id="g20"
     transform="translate(0,16)">
    <path
       stroke="#141414"
       stroke-width="2"
       d="M 256,272 V 80"
       id="path14"
       style="stroke:#252218;stroke-opacity:1" />
    <path
       fill="#121212"
       d="M 256,272 V 80 l 208,96 z"
       id="path16"
       style="fill:#1f1c14;fill-opacity:1" />
    <path
       fill="#171717"
       d="M 256,272 V 80 L 48,176 Z"
       id="path18"
       style="fill:#2c291e;fill-opacity:1" />
  </g>
  <g
     stroke-width="2"
     stroke-linejoin="round"
     transform="matrix(12 0 0 12 64 -24)"
     id="g26">
    <path
       fill="url(#grad1)"
       stroke="url(#grad1)"
       d="m16 13c-7 0-11 5-10 11-7-8-1-21 10-21m5 5a5 5 0 0 1-5 5 5 5 0 0 1-5-5 5 5 0 0 1 5-5 5 5 0 0 1 5 5z"
       id="path22" />
    <path
       fill="url(#grad2)"
       stroke="url(#grad2)"
       d="m16 19c7 0 11-5 10-11 7 8 1 21-10 21m-5-5a5 5 0 0 1 5-5 5 5 0 0 1 5 5 5 5 0 0 1-5 5 5 5 0 0 1-5-5z"
       id="path24" />
  </g>
  <g
     id="g38"
     transform="translate(0,16)">
    <path
       stroke="#1c1c1c"
       stroke-width="2"
       d="M 256,272 V 496"
       id="path28"
       style="stroke:#bdb499;stroke-opacity:1"
       sodipodi:nodetypes="cc" />
    <path
       fill="#1f1f1f"
       d="M 256,272 V 496 L 464,400 V 176 Z"
       id="path30"
       style="fill:#c2baa3;fill-opacity:1"
       sodipodi:nodetypes="ccccc" />
    <path
       fill="#2e2e2e"
       d="M 256,272 304,384 512,288 464,176 Z"
       id="path32"
       style="fill:#d4d0bf;fill-opacity:1" />
    <path
       fill="#1c1c1c"
       d="M 256,272 V 496 L 48,400 V 176 Z"
       id="path34"
       style="fill:#b8af94;fill-opacity:1"
       sodipodi:nodetypes="ccccc" />
    <path
       fill="#292929"
       d="M 256,272 208,384 0,288 48,176 Z"
       id="path36"
       style="fill:#ccc7b3;fill-opacity:1" />
  </g>
</svg>
