<?xml version="1.0" encoding="UTF-8"?>
<svg width="24" height="24" version="1.1" viewBox="0 0 24 24" xmlns="http://www.w3.org/2000/svg">
  <defs>
    <linearGradient id="grad1" x1="6" x2="21" y1="24" y2="8" gradientUnits="userSpaceOnUse">
      <stop stop-color="#003878" offset="0"/>
      <stop stop-color="#1984ff" offset="1"/>
    </linearGradient>
    <linearGradient id="grad2" x1="26" x2="11" y1="8" y2="24" gradientUnits="userSpaceOnUse">
      <stop stop-color="#003878" offset="0"/>
      <stop stop-color="#1984ff" offset="1"/>
    </linearGradient>
    <clipPath id="clipPath973">
      <path d="m22.074 16.8c0.03403-0.25521 0.05104-0.51892 0.05104-0.79965 0-0.27222-0.01701-0.54444-0.05955-0.79965l1.7269-1.3441c0.15312-0.1191 0.19566-0.34878 0.10208-0.51892l-1.6333-2.8243c-0.10208-0.18715-0.31476-0.2467-0.50191-0.18715l-2.0332 0.81667c-0.42535-0.32326-0.87622-0.59549-1.3781-0.79965l-0.30625-2.1608c-0.034031-0.20417-0.20417-0.34878-0.40833-0.34878h-3.2667c-0.20417 0-0.3658 0.14462-0.39983 0.34878l-0.30625 2.1608c-0.50191 0.20417-0.96129 0.4849-1.3781 0.79965l-2.0332-0.81667c-0.18715-0.06806-0.39983 0-0.50191 0.18715l-1.6248 2.8243c-0.10208 0.17865-0.068052 0.39983 0.10208 0.51892l1.7269 1.3441c-0.042537 0.25521-0.076568 0.53594-0.076568 0.79965 0 0.26372 0.01701 0.54444 0.059547 0.79965l-1.7269 1.3441c-0.15312 0.1191-0.19566 0.34878-0.10208 0.51892l1.6333 2.8243c0.10208 0.18715 0.31476 0.2467 0.50191 0.18715l2.0332-0.81667c0.42535 0.32326 0.87622 0.59549 1.3781 0.79965l0.30625 2.1608c0.04254 0.20417 0.20417 0.34879 0.40833 0.34879h3.2667c0.20417 0 0.37431-0.14462 0.39983-0.34879l0.30625-2.1608c0.50191-0.20417 0.96128-0.47639 1.3781-0.79965l2.0332 0.81667c0.18715 0.06805 0.39983 0 0.50191-0.18715l1.6333-2.8243c0.10208-0.18715 0.05955-0.39983-0.10208-0.51892z" display="none" fill="#1ae200" stroke-width=".8507"/>
      <path class="powerclip" d="m-2.9837-3h37.967v38h-37.967zm25.058 19.8c0.03403-0.25521 0.05104-0.51892 0.05104-0.79965 0-0.27222-0.01701-0.54444-0.05955-0.79965l1.7269-1.3441c0.15312-0.1191 0.19566-0.34878 0.10208-0.51892l-1.6333-2.8243c-0.10208-0.18715-0.31476-0.2467-0.50191-0.18715l-2.0332 0.81667c-0.42535-0.32326-0.87622-0.59549-1.3781-0.79965l-0.30625-2.1608c-0.034031-0.20417-0.20417-0.34878-0.40833-0.34878h-3.2667c-0.20417 0-0.3658 0.14462-0.39983 0.34878l-0.30625 2.1608c-0.50191 0.20417-0.96129 0.4849-1.3781 0.79965l-2.0332-0.81667c-0.18715-0.06806-0.39983 0-0.50191 0.18715l-1.6248 2.8243c-0.10208 0.17865-0.068052 0.39983 0.10208 0.51892l1.7269 1.3441c-0.042537 0.25521-0.076568 0.53594-0.076568 0.79965 0 0.26372 0.01701 0.54444 0.059547 0.79965l-1.7269 1.3441c-0.15312 0.1191-0.19566 0.34878-0.10208 0.51892l1.6333 2.8243c0.10208 0.18715 0.31476 0.2467 0.50191 0.18715l2.0332-0.81667c0.42535 0.32326 0.87622 0.59549 1.3781 0.79965l0.30625 2.1608c0.04254 0.20417 0.20417 0.34879 0.40833 0.34879h3.2667c0.20417 0 0.37431-0.14462 0.39983-0.34879l0.30625-2.1608c0.50191-0.20417 0.96128-0.47639 1.3781-0.79965l2.0332 0.81667c0.18715 0.06805 0.39983 0 0.50191-0.18715l1.6333-2.8243c0.10208-0.18715 0.05955-0.39983-0.10208-0.51892z" fill="#1ae200" stroke-width=".8507"/>
    </clipPath>
  </defs>
  <g>
    <g transform="matrix(.85714 0 0 .85714 -1.7143 -1.7143)" clip-path="url(#clipPath973)" stroke-linecap="round" stroke-linejoin="round" stroke-width="2">
      <path d="m16 13c-7 0-11 5-10 11-7-8-1-21 10-21m5 5a5 5 0 0 1-5 5 5 5 0 0 1-5-5 5 5 0 0 1 5-5 5 5 0 0 1 5 5z" fill="url(#grad1)" stroke="url(#grad1)"/>
      <path d="m16 19c7 0 11-5 10-11 7 8 1 21-10 21m-5-5a5 5 0 0 1 5-5 5 5 0 0 1 5 5 5 5 0 0 1-5 5 5 5 0 0 1-5-5z" fill="url(#grad2)" stroke="url(#grad2)"/>
    </g>
    <path d="m15.57 12.47c0.02-0.15 0.03-0.305 0.03-0.47 0-0.16-0.01-0.32-0.035-0.47l1.015-0.79c0.09-0.07 0.115-0.205 0.06-0.305l-0.96-1.66c-0.06-0.11-0.185-0.145-0.295-0.11l-1.195 0.48c-0.25-0.19-0.515-0.35-0.81-0.47l-0.18-1.27c-0.02-0.12-0.12-0.205-0.24-0.205h-1.92c-0.12 0-0.215 0.085-0.235 0.205l-0.18 1.27c-0.295 0.12-0.565 0.285-0.81 0.47l-1.195-0.48c-0.11-0.04-0.235 0-0.295 0.11l-0.955 1.66c-0.06 0.105-0.04 0.235 0.06 0.305l1.015 0.79c-0.025 0.15-0.045 0.315-0.045 0.47s0.01 0.32 0.035 0.47l-1.015 0.79c-0.09 0.07-0.115 0.205-0.06 0.305l0.96 1.66c0.06 0.11 0.185 0.145 0.295 0.11l1.195-0.48c0.25 0.19 0.515 0.35 0.81 0.47l0.18 1.27c0.025 0.12 0.12 0.205 0.24 0.205h1.92c0.12 0 0.22-0.085 0.235-0.205l0.18-1.27c0.295-0.12 0.565-0.28 0.81-0.47l1.195 0.48c0.11 0.04 0.235 0 0.295-0.11l0.96-1.66c0.06-0.11 0.035-0.235-0.06-0.305zm-3.57 1.33c-0.99 0-1.8-0.81-1.8-1.8s0.81-1.8 1.8-1.8 1.8 0.81 1.8 1.8-0.81 1.8-1.8 1.8z" fill="#999" stroke-width=".5"/>
  </g>
</svg>
