<svg width="90" height="122.8" viewBox="0 0 32 43" xmlns="http://www.w3.org/2000/svg">
  <defs>
    <linearGradient id="grad1" x1="6" x2="21" y1="24" y2="8" gradientUnits="userSpaceOnUse">
      <stop stop-color="#003878" offset="0"/>
      <stop stop-color="#1984ff" offset="1"/>
    </linearGradient>
    <linearGradient id="grad2" x1="26" x2="11" y1="8" y2="24" gradientUnits="userSpaceOnUse">
      <stop stop-color="#003878" offset="0"/>
      <stop stop-color="#1984ff" offset="1"/>
    </linearGradient>
  </defs>
  <g stroke-linecap="round" stroke-linejoin="round" stroke-width="2">
    <animateTransform id="anim" attributeName="transform"
                      type="rotate" from="0 16 16" to="180 16 16"
                      dur="3s"
                      begin="0s; anim.end + 5s"
                      calcMode="spline"
                      keyTimes="0; 1"
                      keySplines="0.4, 0.2, 0.25, 1.0"
                      fill="freeze"/>
    <path d="m16 13c-7 0-11 5-10 11-7-8-1-21 10-21m5 5a5 5 0 0 1-5 5 5 5 0 0 1-5-5 5 5 0 0 1 5-5 5 5 0 0 1 5 5z" fill="url(#grad1)" stroke="url(#grad1)"/>
    <path d="m16 19c7 0 11-5 10-11 7 8 1 21-10 21m-5-5a5 5 0 0 1 5-5 5 5 0 0 1 5 5 5 5 0 0 1-5 5 5 5 0 0 1-5-5z" fill="url(#grad2)" stroke="url(#grad2)"/>
  </g>
  <!-- NOTE: The font used is named "Righteous" -->
  <g id="text" transform="translate(0 34.5)">
    <path d="m8.2021 5.2197q0 0.4834-0.12695 0.93262-0.12207 0.44434-0.35156 0.83496-0.22949 0.38574-0.54688 0.70801-0.31738 0.31738-0.70801 0.54688t-0.83984 0.35645q-0.44434 0.12207-0.92773 0.12207h-2.1094v-7.002h2.1094q0.4834 0 0.92773 0.12695 0.44922 0.12207 0.83984 0.35156t0.70801 0.55176q0.31738 0.31738 0.54688 0.70801 0.22949 0.38574 0.35156 0.83496 0.12695 0.44434 0.12695 0.92773zm-1.4014 0q0-0.43457-0.16602-0.81543-0.16113-0.38086-0.44922-0.66406-0.2832-0.28809-0.66895-0.4541-0.38086-0.16602-0.81543-0.16602h-0.69824v4.1992h0.69824q0.43457 0 0.81543-0.16113 0.38574-0.16602 0.66895-0.44922 0.28809-0.28809 0.44922-0.66895 0.16602-0.38574 0.16602-0.82031z"/>
    <path d="m14.042 6.0596q0 0.58594-0.20996 1.0938-0.20996 0.50293-0.57129 0.87402-0.36133 0.36621-0.84961 0.58105-0.4834 0.20996-1.04 0.20996-0.55176 0-1.04-0.20996-0.4834-0.21484-0.84961-0.58105-0.36133-0.37109-0.57129-0.87402-0.20996-0.50781-0.20996-1.0938 0-0.5957 0.20996-1.1035 0.20996-0.50781 0.57129-0.87402 0.36621-0.37109 0.84961-0.58105 0.48828-0.20996 1.04-0.20996 0.55664 0 1.04 0.2002 0.48828 0.19531 0.84961 0.56152 0.36133 0.36133 0.57129 0.87402 0.20996 0.50781 0.20996 1.1328zm-1.3428 0q0-0.32227-0.10742-0.58105-0.10254-0.26367-0.2832-0.44922-0.18066-0.19043-0.4248-0.28809-0.23926-0.10254-0.5127-0.10254-0.27344 0-0.51758 0.10254-0.23926 0.097656-0.41992 0.28809-0.17578 0.18555-0.27832 0.44922-0.10254 0.25879-0.10254 0.58105 0 0.30273 0.10254 0.56152 0.10254 0.25879 0.27832 0.44922 0.18066 0.19043 0.41992 0.30273 0.24414 0.10742 0.51758 0.10742 0.27344 0 0.5127-0.10254 0.24414-0.10254 0.4248-0.28809 0.18066-0.18555 0.2832-0.44922 0.10742-0.26367 0.10742-0.58105z"/>
    <path d="m16.112 8.7207h-1.333v-5.2295h0.32227l0.43945 0.50781q0.32226-0.29297 0.72754-0.44922 0.41016-0.16113 0.85449-0.16113 0.47852 0 0.90332 0.18555 0.4248 0.18066 0.74219 0.50293 0.31738 0.31738 0.49805 0.74707 0.18555 0.4248 0.18555 0.9082v2.9883h-1.333v-2.9883q0-0.20508-0.07813-0.38574-0.07813-0.18555-0.21484-0.32227-0.13672-0.13672-0.31738-0.21484t-0.38574-0.078125q-0.20996 0-0.39551 0.078125t-0.32227 0.21484q-0.13672 0.13672-0.21484 0.32227-0.07813 0.18066-0.07813 0.38574z"/>
    <path d="m21.972 2.0703q0 0.18555-0.07324 0.34668-0.06836 0.16113-0.19043 0.2832-0.12207 0.11719-0.28809 0.19043-0.16113 0.068359-0.34668 0.068359t-0.35156-0.068359q-0.16113-0.073242-0.2832-0.19043-0.11719-0.12207-0.19043-0.2832-0.06836-0.16113-0.06836-0.34668 0-0.18066 0.06836-0.3418 0.07324-0.16602 0.19043-0.2832 0.12207-0.12207 0.2832-0.19043 0.16602-0.073242 0.35156-0.073242t0.34668 0.073242q0.16602 0.068359 0.28809 0.19043 0.12207 0.11719 0.19043 0.2832 0.07324 0.16113 0.07324 0.3418zm-0.22949 6.6504h-1.3428v-5.2295h1.3428z"/>
    <path d="m29.408 8.7207h-1.3281v-3.3203q0-0.13672-0.05371-0.25879-0.04883-0.12207-0.1416-0.21484-0.09277-0.092773-0.21484-0.1416-0.12207-0.053711-0.25879-0.053711t-0.25879 0.053711q-0.11719 0.048828-0.20996 0.1416-0.08789 0.092773-0.1416 0.21484-0.04883 0.12207-0.04883 0.25879v3.3203h-1.333v-3.3203q0-0.13672-0.05371-0.25879-0.04883-0.12207-0.1416-0.21484-0.09277-0.092773-0.21484-0.1416-0.12207-0.053711-0.25879-0.053711t-0.25879 0.053711q-0.11719 0.048828-0.20996 0.1416-0.08789 0.092773-0.1416 0.21484-0.04883 0.12207-0.04883 0.25879v3.3203h-1.333v-5.2295h0.32227l0.36133 0.40039q0.27832-0.23438 0.61035-0.36133 0.33691-0.13184 0.69824-0.13184 0.36621 0 0.71289 0.13672 0.35156 0.13672 0.61523 0.47363 0.12207-0.16602 0.27832-0.2832t0.32715-0.19043q0.17578-0.073242 0.36133-0.10254 0.18555-0.03418 0.36621-0.03418 0.41504 0 0.77637 0.15625 0.36621 0.15625 0.63477 0.42969 0.27344 0.26855 0.42969 0.63477 0.15625 0.36621 0.15625 0.78125z"/>
  </g>
  <style>
    <!-- data-color-mode is an attrubute set in the html element of the Github page; May change and so is not reliable -->
    [data-color-mode="dark"], [data-color-mode="auto"] @media (prefers-color-scheme: dark) {
      #text { fill: #aaa }
    }
    [data-color-mode="light"], [data-color-mode="auto"] @media (prefers-color-scheme: light) {
      #text { fill: #333 }
    }
  </style>
</svg>
