<?xml version="1.0" encoding="UTF-8"?>
<svg width="32" height="10" version="1.1" viewBox="0 0 32 10" xmlns="http://www.w3.org/2000/svg">
  <!-- NOTE: The font used was Righteous with a little tampering of the letter o -->
  <path d="m8.2021 5.2197q0 0.4834-0.12695 0.93262-0.12207 0.44434-0.35156 0.83496-0.22949 0.38574-0.54688 0.70801-0.31738 0.31738-0.70801 0.54688t-0.83984 0.35645q-0.44434 0.12207-0.92773 0.12207h-2.1094v-7.002h2.1094q0.4834 0 0.92773 0.12695 0.44922 0.12207 0.83984 0.35156t0.70801 0.55176q0.31738 0.31738 0.54688 0.70801 0.22949 0.38574 0.35156 0.83496 0.12695 0.44434 0.12695 0.92773zm-1.4014 0q0-0.43457-0.16602-0.81543-0.16113-0.38086-0.44922-0.66406-0.2832-0.28809-0.66895-0.4541-0.38086-0.16602-0.81543-0.16602h-0.69824v4.1992h0.69824q0.43457 0 0.81543-0.16113 0.38574-0.16602 0.66895-0.44922 0.28809-0.28809 0.44922-0.66895 0.16602-0.38574 0.16602-0.82031z"/>
  <path d="m11.879 3.3379v1.4004c0.001336 5.67e-4 0.002572 0.0013815 0.003906 0.0019532 0.16276 0.065104 0.30534 0.16211 0.42578 0.28906 0.12044 0.1237 0.21484 0.27344 0.2832 0.44922 0.071615 0.17253 0.10742 0.36523 0.10742 0.58008 0 0.21159-0.035807 0.40625-0.10742 0.58203-0.068359 0.17578-0.16276 0.32552-0.2832 0.44922-0.12044 0.1237-0.26302 0.2207-0.42578 0.28906-0.001334 5.718e-4 -0.00257 0.0013862-0.003906 0.0019532v1.3887c0.18417-0.034875 0.3627-0.088054 0.5332-0.16211 0.32552-0.14323 0.60677-0.33594 0.84766-0.58008 0.24088-0.2474 0.43229-0.53971 0.57226-0.875 0.13997-0.33854 0.20898-0.70312 0.20898-1.0938 0-0.41667-0.069011-0.79427-0.20898-1.1328-0.13997-0.3418-0.33138-0.63216-0.57226-0.87305-0.24089-0.24414-0.52214-0.43229-0.84766-0.5625-0.1705-0.070611-0.34903-0.11909-0.5332-0.15234zm-1.0156 0.0039063c-0.18274 0.034903-0.3602 0.086603-0.53125 0.16016-0.32227 0.13997-0.60742 0.33268-0.85156 0.58008-0.24089 0.24414-0.43034 0.53646-0.57031 0.875-0.13997 0.33854-0.21094 0.70443-0.21094 1.1016 0 0.39062 0.070963 0.75521 0.21094 1.0938 0.13997 0.33529 0.32943 0.6276 0.57031 0.875 0.24414 0.24414 0.5293 0.43685 0.85156 0.58008 0.17106 0.073554 0.34851 0.12525 0.53125 0.16016v-1.3906c-0.003237-0.0013926-0.006536-0.0024854-0.009765-0.0039062-0.15951-0.07487-0.29948-0.17578-0.41992-0.30273-0.11719-0.12695-0.21094-0.27669-0.2793-0.44922-0.068359-0.17253-0.10156-0.36068-0.10156-0.5625 0-0.21484 0.033204-0.40755 0.10156-0.58008 0.06836-0.17578 0.16211-0.32552 0.2793-0.44922 0.12044-0.12695 0.26042-0.22396 0.41992-0.28906 0.003239-0.0013607 0.006518-0.0025727 0.009765-0.0039063v-1.3945z"/>
  <path d="m16.112 8.7207h-1.333v-5.2295h0.32227l0.43945 0.50781q0.32226-0.29297 0.72754-0.44922 0.41016-0.16113 0.85449-0.16113 0.47852 0 0.90332 0.18555 0.4248 0.18066 0.74219 0.50293 0.31738 0.31738 0.49805 0.74707 0.18555 0.4248 0.18555 0.9082v2.9883h-1.333v-2.9883q0-0.20508-0.07813-0.38574-0.07813-0.18555-0.21484-0.32227-0.13672-0.13672-0.31738-0.21484t-0.38574-0.078125q-0.20996 0-0.39551 0.078125t-0.32227 0.21484q-0.13672 0.13672-0.21484 0.32227-0.07813 0.18066-0.07813 0.38574z"/>
  <path d="m21.972 2.0703q0 0.18555-0.07324 0.34668-0.06836 0.16113-0.19043 0.2832-0.12207 0.11719-0.28809 0.19043-0.16113 0.068359-0.34668 0.068359t-0.35156-0.068359q-0.16113-0.073242-0.2832-0.19043-0.11719-0.12207-0.19043-0.2832-0.06836-0.16113-0.06836-0.34668 0-0.18066 0.06836-0.3418 0.07324-0.16602 0.19043-0.2832 0.12207-0.12207 0.2832-0.19043 0.16602-0.073242 0.35156-0.073242t0.34668 0.073242q0.16602 0.068359 0.28809 0.19043 0.12207 0.11719 0.19043 0.2832 0.07324 0.16113 0.07324 0.3418zm-0.22949 6.6504h-1.3428v-5.2295h1.3428z"/>
  <path d="m29.408 8.7207h-1.3281v-3.3203q0-0.13672-0.05371-0.25879-0.04883-0.12207-0.1416-0.21484-0.09277-0.092773-0.21484-0.1416-0.12207-0.053711-0.25879-0.053711t-0.25879 0.053711q-0.11719 0.048828-0.20996 0.1416-0.08789 0.092773-0.1416 0.21484-0.04883 0.12207-0.04883 0.25879v3.3203h-1.333v-3.3203q0-0.13672-0.05371-0.25879-0.04883-0.12207-0.1416-0.21484-0.09277-0.092773-0.21484-0.1416-0.12207-0.053711-0.25879-0.053711t-0.25879 0.053711q-0.11719 0.048828-0.20996 0.1416-0.08789 0.092773-0.1416 0.21484-0.04883 0.12207-0.04883 0.25879v3.3203h-1.333v-5.2295h0.32227l0.36133 0.40039q0.27832-0.23438 0.61035-0.36133 0.33691-0.13184 0.69824-0.13184 0.36621 0 0.71289 0.13672 0.35156 0.13672 0.61523 0.47363 0.12207-0.16602 0.27832-0.2832t0.32715-0.19043q0.17578-0.073242 0.36133-0.10254 0.18555-0.03418 0.36621-0.03418 0.41504 0 0.77637 0.15625 0.36621 0.15625 0.63477 0.42969 0.27344 0.26855 0.42969 0.63477 0.15625 0.36621 0.15625 0.78125z"/>
</svg>
